M48
; DRILL file {KiCad 7.0.10-148-g62bb553460} date Fri Mar 29 08:39:51 2024
; FORMAT={-:-/ absolute / metric / decimal}
; #@! TF.CreationDate,2024-03-29T08:39:51+01:00
; #@! TF.GenerationSoftware,Kicad,Pcbnew,7.0.10-148-g62bb553460
; #@! TF.FileFunction,Plated,1,2,PTH
FMAT,2
METRIC
; #@! TA.AperFunction,Plated,PTH,ViaDrill
T1C0.400
; #@! TA.AperFunction,Plated,PTH,ComponentDrill
T2C0.800
; #@! TA.AperFunction,Plated,PTH,ComponentDrill
T3C0.889
; #@! TA.AperFunction,Plated,PTH,ComponentDrill
T4C0.950
; #@! TA.AperFunction,Plated,PTH,ComponentDrill
T5C1.000
; #@! TA.AperFunction,Plated,PTH,ComponentDrill
T6C1.400
%
G90
G05
T1
X133.985Y-205.232
X134.112Y-181.864
X139.446Y-213.106
X140.589Y-211.137
X143.764Y-169.418
X144.78Y-209.55
X153.924Y-157.48
X154.178Y-181.102
X162.814Y-206.248
X163.576Y-144.526
X164.592Y-169.164
X166.116Y-213.106
X169.799Y-211.201
X173.392Y-209.55
X173.482Y-182.118
X173.736Y-132.334
X174.244Y-155.956
X179.07Y-206.375
X182.626Y-213.106
X183.642Y-169.164
X184.912Y-144.018
X186.309Y-211.201
X186.563Y-124.841
X189.756Y-209.55
X192.786Y-183.134
X193.548Y-156.464
X195.834Y-133.096
X203.708Y-171.704
X204.724Y-145.542
X207.772Y-123.952
X213.36Y-158.496
X213.36Y-186.69
X217.17Y-136.144
X219.71Y-213.995
X221.234Y-220.726
X223.266Y-173.99
X225.044Y-218.821
X225.298Y-149.352
X230.378Y-136.398
X231.14Y-216.916
X232.664Y-192.278
X233.934Y-162.306
X238.76Y-148.336
X242.824Y-179.578
X245.11Y-222.25
X246.38Y-153.162
X247.269Y-229.616
X249.682Y-199.644
X249.809Y-227.711
X252.73Y-141.986
X253.238Y-168.402
X255.016Y-225.806
X259.588Y-187.198
X260.858Y-155.194
X267.208Y-168.656
X267.716Y-207.01
X270.51Y-176.022
X276.86Y-194.818
X289.56Y-224.028
X292.735Y-209.55
X294.64Y-219.075
X295.656Y-169.164
X297.688Y-188.976
X297.815Y-204.47
X300.99Y-212.725
X305.308Y-166.385
X308.864Y-221.996
X315.214Y-228.346
X317.119Y-232.156
X318.516Y-220.98
X320.04Y-189.23
X324.866Y-227.33
X332.232Y-175.26
X338.836Y-171.196
X342.519Y-224.79
X343.408Y-192.532
X343.408Y-210.312
X347.599Y-223.52
X349.504Y-178.308
X353.314Y-221.996
X353.568Y-162.56
X358.648Y-214.63
X362.712Y-150.368
X363.22Y-199.644
X364.236Y-182.88
X368.3Y-167.132
X374.314Y-224.708
X377.698Y-218.44
X378.46Y-154.94
X379.349Y-223.52
X383.794Y-191.77
X386.588Y-142.24
X386.588Y-221.996
X388.112Y-176.784
X392.684Y-161.544
X396.24Y-224.79
X398.272Y-217.17
X400.304Y-183.388
X400.812Y-148.336
X402.209Y-223.52
X404.876Y-168.148
X405.892Y-134.112
X407.924Y-221.996
X410.972Y-153.924
X419.1Y-141.224
X422.656Y-179.324
X428.244Y-164.084
X430.784Y-130.556
X432.308Y-149.352
X442.0Y-224.79
X443.992Y-138.684
X443.992Y-178.816
X446.278Y-216.154
X449.072Y-164.084
X449.834Y-223.52
X455.168Y-149.86
X456.184Y-221.996
X465.836Y-138.684
X466.852Y-179.324
X472.44Y-164.592
X485.14Y-179.832
T2
X290.195Y-191.77
X290.195Y-194.31
X290.195Y-196.85
X290.195Y-199.39
X290.195Y-201.93
X290.195Y-204.47
X290.195Y-207.01
X290.195Y-209.55
X290.195Y-212.09
X290.195Y-214.63
X290.195Y-217.17
X290.195Y-219.71
X310.515Y-181.61
X310.515Y-184.15
X310.515Y-186.69
X310.515Y-189.23
X310.515Y-191.77
X310.515Y-194.31
X310.515Y-196.85
X310.515Y-199.39
X310.515Y-201.93
X310.515Y-204.47
X310.515Y-207.01
X310.515Y-209.55
X310.515Y-212.09
X310.515Y-214.63
X310.515Y-217.17
X310.515Y-219.71
T3
X335.105Y-239.185
X335.105Y-241.725
X335.105Y-244.265
X342.725Y-251.885
X345.265Y-251.885
X347.805Y-251.885
X353.266Y-238.55
X353.266Y-244.9
X357.766Y-238.55
X357.766Y-244.9
T4
X271.86Y-124.46
X274.36Y-124.46
X276.86Y-124.46
X287.1Y-124.46
X289.6Y-124.46
X292.1Y-124.46
T6
X338.597Y-234.105
X338.597Y-249.345
X351.933Y-234.105
X351.933Y-249.345
T5
X339.0Y-141.58G85X339.0Y-139.98
G05
X341.5Y-125.53G85X341.5Y-124.03
G05
X344.0Y-141.58G85X344.0Y-139.98
G05
X364.0Y-141.58G85X364.0Y-139.98
G05
X366.5Y-125.53G85X366.5Y-124.03
G05
X369.0Y-141.58G85X369.0Y-139.98
G05
M30
