%TF.GenerationSoftware,KiCad,Pcbnew,7.0.10-148-g62bb553460*%
%TF.CreationDate,2024-03-27T23:52:54+01:00*%
%TF.ProjectId,bandoneon,62616e64-6f6e-4656-9f6e-2e6b69636164,rev?*%
%TF.SameCoordinates,Original*%
%TF.FileFunction,Soldermask,Top*%
%TF.FilePolarity,Negative*%
%FSLAX46Y46*%
G04 Gerber Fmt 4.6, Leading zero omitted, Abs format (unit mm)*
G04 Created by KiCad (PCBNEW 7.0.10-148-g62bb553460) date 2024-03-27 23:52:54*
%MOMM*%
%LPD*%
G01*
G04 APERTURE LIST*
G04 Aperture macros list*
%AMRoundRect*
0 Rectangle with rounded corners*
0 $1 Rounding radius*
0 $2 $3 $4 $5 $6 $7 $8 $9 X,Y pos of 4 corners*
0 Add a 4 corners polygon primitive as box body*
4,1,4,$2,$3,$4,$5,$6,$7,$8,$9,$2,$3,0*
0 Add four circle primitives for the rounded corners*
1,1,$1+$1,$2,$3*
1,1,$1+$1,$4,$5*
1,1,$1+$1,$6,$7*
1,1,$1+$1,$8,$9*
0 Add four rect primitives between the rounded corners*
20,1,$1+$1,$2,$3,$4,$5,0*
20,1,$1+$1,$4,$5,$6,$7,0*
20,1,$1+$1,$6,$7,$8,$9,0*
20,1,$1+$1,$8,$9,$2,$3,0*%
G04 Aperture macros list end*
%ADD10RoundRect,0.150000X-0.150000X0.825000X-0.150000X-0.825000X0.150000X-0.825000X0.150000X0.825000X0*%
%ADD11C,1.700000*%
%ADD12RoundRect,0.150000X-0.348123X-0.404928X0.511515X0.153327X0.348123X0.404928X-0.511515X-0.153327X0*%
%ADD13RoundRect,0.150000X-0.153327X-0.511515X0.404928X0.348123X0.153327X0.511515X-0.404928X-0.348123X0*%
%ADD14RoundRect,0.150000X-0.404928X0.348123X0.153327X-0.511515X0.404928X-0.348123X-0.153327X0.511515X0*%
%ADD15C,3.200000*%
%ADD16RoundRect,0.140000X-0.170000X0.140000X-0.170000X-0.140000X0.170000X-0.140000X0.170000X0.140000X0*%
%ADD17RoundRect,0.140000X0.170000X-0.140000X0.170000X0.140000X-0.170000X0.140000X-0.170000X-0.140000X0*%
%ADD18RoundRect,0.150000X-0.179887X-0.502789X0.422592X0.326453X0.179887X0.502789X-0.422592X-0.326453X0*%
%ADD19RoundRect,0.150000X-0.511515X0.153327X0.348123X-0.404928X0.511515X-0.153327X-0.348123X0.404928X0*%
%ADD20RoundRect,0.150000X0.150000X-0.512500X0.150000X0.512500X-0.150000X0.512500X-0.150000X-0.512500X0*%
%ADD21RoundRect,0.150000X-0.512500X-0.150000X0.512500X-0.150000X0.512500X0.150000X-0.512500X0.150000X0*%
%ADD22RoundRect,0.100000X-0.100000X0.130000X-0.100000X-0.130000X0.100000X-0.130000X0.100000X0.130000X0*%
%ADD23R,1.600000X1.600000*%
%ADD24C,1.600000*%
%ADD25C,2.400000*%
%ADD26C,0.762000*%
%ADD27O,1.800000X3.200000*%
%ADD28C,1.800000*%
%ADD29C,2.000000*%
%ADD30O,2.000000X3.600000*%
%ADD31O,2.000000X3.500000*%
%ADD32RoundRect,0.250000X-0.600000X-0.725000X0.600000X-0.725000X0.600000X0.725000X-0.600000X0.725000X0*%
%ADD33O,1.700000X1.950000*%
G04 APERTURE END LIST*
D10*
%TO.C,U9*%
X355346000Y-213360000D03*
X354076000Y-213360000D03*
X352806000Y-213360000D03*
X351536000Y-213360000D03*
X350266000Y-213360000D03*
X348996000Y-213360000D03*
X347726000Y-213360000D03*
X346456000Y-213360000D03*
X346456000Y-218310000D03*
X347726000Y-218310000D03*
X348996000Y-218310000D03*
X350266000Y-218310000D03*
X351536000Y-218310000D03*
X352806000Y-218310000D03*
X354076000Y-218310000D03*
X355346000Y-218310000D03*
%TD*%
D11*
%TO.C,H37*%
X145424754Y-165079266D03*
X153945646Y-159545734D03*
D12*
X148213805Y-162135290D03*
X149248619Y-163728764D03*
X150639188Y-161692973D03*
%TD*%
D11*
%TO.C,H38*%
X135100854Y-177095366D03*
X143621746Y-171561834D03*
D12*
X137889905Y-174151390D03*
X138924719Y-175744864D03*
X140315288Y-173709073D03*
%TD*%
D11*
%TO.C,H43*%
X462250034Y-149669046D03*
X467783566Y-141148154D03*
D13*
X463600536Y-145845181D03*
X465194010Y-146879995D03*
X465636327Y-144454612D03*
%TD*%
D11*
%TO.C,H11*%
X253416434Y-146779154D03*
X258949966Y-155300046D03*
D14*
X256360410Y-149568205D03*
X254766936Y-150603019D03*
X256802727Y-151993588D03*
%TD*%
D15*
%TO.C,MH08*%
X498341000Y-168933000D03*
%TD*%
%TO.C,MH01*%
X239268000Y-126492000D03*
%TD*%
D11*
%TO.C,H31*%
X208752354Y-143803966D03*
X217273246Y-138270434D03*
D12*
X211541405Y-140859990D03*
X212576219Y-142453464D03*
X213966788Y-140417673D03*
%TD*%
D11*
%TO.C,H14*%
X215107654Y-181383466D03*
X223628546Y-175849934D03*
D12*
X217896705Y-178439490D03*
X218931519Y-180032964D03*
X220322088Y-177997173D03*
%TD*%
D11*
%TO.C,H69*%
X407356034Y-164389046D03*
X412889566Y-155868154D03*
D13*
X408706536Y-160565181D03*
X410300010Y-161599995D03*
X410742327Y-159174612D03*
%TD*%
D16*
%TO.C,C1*%
X398272000Y-214658000D03*
X398272000Y-215618000D03*
%TD*%
D11*
%TO.C,H5*%
X251546154Y-194710466D03*
X260067046Y-189176934D03*
D12*
X254335205Y-191766490D03*
X255370019Y-193359964D03*
X256760588Y-191324173D03*
%TD*%
D11*
%TO.C,H41*%
X468934234Y-175125946D03*
X474467766Y-166605054D03*
D13*
X470284736Y-171302081D03*
X471878210Y-172336895D03*
X472320527Y-169911512D03*
%TD*%
D17*
%TO.C,C2*%
X358648000Y-217142000D03*
X358648000Y-216182000D03*
%TD*%
D11*
%TO.C,H61*%
X339273434Y-202910846D03*
X344806966Y-194389954D03*
D13*
X340623936Y-199086981D03*
X342217410Y-200121795D03*
X342659727Y-197696412D03*
%TD*%
D11*
%TO.C,H68*%
X415815134Y-151655846D03*
X421348666Y-143134954D03*
D13*
X417165636Y-147831981D03*
X418759110Y-148866795D03*
X419201427Y-146441412D03*
%TD*%
D16*
%TO.C,C5*%
X245110000Y-219484000D03*
X245110000Y-220444000D03*
%TD*%
D11*
%TO.C,H29*%
X184576154Y-190490466D03*
X193097046Y-184956934D03*
D12*
X187365205Y-187546490D03*
X188400019Y-189139964D03*
X189790588Y-187104173D03*
%TD*%
D11*
%TO.C,H16*%
X196438854Y-153000466D03*
X204959746Y-147466934D03*
D12*
X199227905Y-150056490D03*
X200262719Y-151649964D03*
X201653288Y-149614173D03*
%TD*%
D16*
%TO.C,C8*%
X219710000Y-211765000D03*
X219710000Y-212725000D03*
%TD*%
D15*
%TO.C,MH19*%
X319000000Y-172720000D03*
%TD*%
D11*
%TO.C,H18*%
X175549154Y-176713566D03*
X184070046Y-171180034D03*
D12*
X178338205Y-173769590D03*
X179373019Y-175363064D03*
X180763588Y-173327273D03*
%TD*%
D15*
%TO.C,MH22*%
X192603912Y-119089841D03*
%TD*%
%TO.C,MH05*%
X417000000Y-130000000D03*
%TD*%
D11*
%TO.C,H58*%
X355056034Y-158829046D03*
X360589566Y-150308154D03*
D13*
X356406536Y-155005181D03*
X358000010Y-156039995D03*
X358442327Y-153614612D03*
%TD*%
D15*
%TO.C,MH12*%
X369000000Y-255000000D03*
%TD*%
D11*
%TO.C,H9*%
X234556454Y-187186966D03*
X243077346Y-181653434D03*
D12*
X237345505Y-184242990D03*
X238380319Y-185836464D03*
X239770888Y-183800673D03*
%TD*%
D11*
%TO.C,H13*%
X225626154Y-169725466D03*
X234147046Y-164191934D03*
D12*
X228415205Y-166781490D03*
X229450019Y-168374964D03*
X230840588Y-166339173D03*
%TD*%
D11*
%TO.C,H49*%
X393425034Y-157075046D03*
X398958566Y-148554154D03*
D13*
X394775536Y-153251181D03*
X396369010Y-154285995D03*
X396811327Y-151860612D03*
%TD*%
D11*
%TO.C,H48*%
X401977634Y-144375046D03*
X407511166Y-135854154D03*
D13*
X403328136Y-140551181D03*
X404921610Y-141585995D03*
X405363927Y-139160612D03*
%TD*%
D11*
%TO.C,H3*%
X262495451Y-217048806D03*
X268467349Y-208829194D03*
D18*
X264044228Y-213300861D03*
X265581360Y-214417653D03*
X266150006Y-212018743D03*
%TD*%
D11*
%TO.C,H54*%
X370791434Y-163145846D03*
X376324966Y-154624954D03*
D13*
X372141936Y-159321981D03*
X373735410Y-160356795D03*
X374177727Y-157931412D03*
%TD*%
D11*
%TO.C,H63*%
X335538534Y-218564946D03*
X341072066Y-210044054D03*
D13*
X336889036Y-214741081D03*
X338482510Y-215775895D03*
X338924827Y-213350512D03*
%TD*%
D16*
%TO.C,C7*%
X133985000Y-201958000D03*
X133985000Y-202918000D03*
%TD*%
D11*
%TO.C,H25*%
X231192434Y-140725754D03*
X236725966Y-149246646D03*
D14*
X234136410Y-143514805D03*
X232542936Y-144549619D03*
X234578727Y-145940188D03*
%TD*%
D11*
%TO.C,H71*%
X397128834Y-193988946D03*
X402662366Y-185468054D03*
D13*
X398479336Y-190165081D03*
X400072810Y-191199895D03*
X400515127Y-188774512D03*
%TD*%
D15*
%TO.C,MH11*%
X497240000Y-227722000D03*
%TD*%
D11*
%TO.C,H50*%
X385005534Y-169860746D03*
X390539066Y-161339854D03*
D13*
X386356036Y-166036881D03*
X387949510Y-167071695D03*
X388391827Y-164646312D03*
%TD*%
D11*
%TO.C,H42*%
X463617734Y-189745846D03*
X469151266Y-181224954D03*
D13*
X464968236Y-185921981D03*
X466561710Y-186956795D03*
X467004027Y-184531412D03*
%TD*%
D10*
%TO.C,U6*%
X144770000Y-199500000D03*
X143500000Y-199500000D03*
X142230000Y-199500000D03*
X140960000Y-199500000D03*
X139690000Y-199500000D03*
X138420000Y-199500000D03*
X137150000Y-199500000D03*
X135880000Y-199500000D03*
X135880000Y-204450000D03*
X137150000Y-204450000D03*
X138420000Y-204450000D03*
X139690000Y-204450000D03*
X140960000Y-204450000D03*
X142230000Y-204450000D03*
X143500000Y-204450000D03*
X144770000Y-204450000D03*
%TD*%
D15*
%TO.C,MH09*%
X475500000Y-201500000D03*
%TD*%
D11*
%TO.C,H33*%
X145979154Y-188486266D03*
X154500046Y-182952734D03*
D12*
X148768205Y-185542290D03*
X149803019Y-187135764D03*
X151193588Y-185099973D03*
%TD*%
D15*
%TO.C,MH17*%
X212725000Y-207010000D03*
%TD*%
D16*
%TO.C,C6*%
X446278000Y-213896000D03*
X446278000Y-214856000D03*
%TD*%
D11*
%TO.C,H1*%
X330979154Y-163441434D03*
X339500046Y-168974966D03*
D19*
X334803019Y-164791936D03*
X333768205Y-166385410D03*
X336193588Y-166827727D03*
%TD*%
D10*
%TO.C,U8*%
X388620000Y-212090000D03*
X387350000Y-212090000D03*
X386080000Y-212090000D03*
X384810000Y-212090000D03*
X383540000Y-212090000D03*
X382270000Y-212090000D03*
X381000000Y-212090000D03*
X379730000Y-212090000D03*
X379730000Y-217040000D03*
X381000000Y-217040000D03*
X382270000Y-217040000D03*
X383540000Y-217040000D03*
X384810000Y-217040000D03*
X386080000Y-217040000D03*
X387350000Y-217040000D03*
X388620000Y-217040000D03*
%TD*%
D11*
%TO.C,H6*%
X241596154Y-207390466D03*
X250117046Y-201856934D03*
D12*
X244385205Y-204446490D03*
X245420019Y-206039964D03*
X246810588Y-204004173D03*
%TD*%
D11*
%TO.C,H20*%
X199610954Y-131243966D03*
X208131846Y-125710434D03*
D12*
X202400005Y-128299990D03*
X203434819Y-129893464D03*
X204825388Y-127857673D03*
%TD*%
D20*
%TO.C,U13*%
X281154000Y-127121500D03*
X282104000Y-127121500D03*
X283054000Y-127121500D03*
X283054000Y-124846500D03*
X282104000Y-124846500D03*
X281154000Y-124846500D03*
%TD*%
D11*
%TO.C,H32*%
X156379154Y-176533566D03*
X164900046Y-171000034D03*
D12*
X159168205Y-173589590D03*
X160203019Y-175183064D03*
X161593588Y-173147273D03*
%TD*%
D21*
%TO.C,U11*%
X348966500Y-146326000D03*
X348966500Y-147276000D03*
X348966500Y-148226000D03*
X351241500Y-148226000D03*
X351241500Y-147276000D03*
X351241500Y-146326000D03*
%TD*%
D15*
%TO.C,MH13*%
X370205000Y-213360000D03*
%TD*%
D11*
%TO.C,H21*%
X187360954Y-140393966D03*
X195881846Y-134860434D03*
D12*
X190150005Y-137449990D03*
X191184819Y-139043464D03*
X192575388Y-137007673D03*
%TD*%
D10*
%TO.C,U3*%
X231394000Y-207710000D03*
X230124000Y-207710000D03*
X228854000Y-207710000D03*
X227584000Y-207710000D03*
X226314000Y-207710000D03*
X225044000Y-207710000D03*
X223774000Y-207710000D03*
X222504000Y-207710000D03*
X222504000Y-212660000D03*
X223774000Y-212660000D03*
X225044000Y-212660000D03*
X226314000Y-212660000D03*
X227584000Y-212660000D03*
X228854000Y-212660000D03*
X230124000Y-212660000D03*
X231394000Y-212660000D03*
%TD*%
D11*
%TO.C,H12*%
X238026154Y-160800466D03*
X246547046Y-155266934D03*
D12*
X240815205Y-157856490D03*
X241850019Y-159449964D03*
X243240588Y-157414173D03*
%TD*%
D11*
%TO.C,H26*%
X217171254Y-156764466D03*
X225692146Y-151230934D03*
D12*
X219960305Y-153820490D03*
X220995119Y-155413964D03*
X222385688Y-153378173D03*
%TD*%
D11*
%TO.C,H52*%
X376203134Y-200303646D03*
X381736666Y-191782754D03*
D13*
X377553636Y-196479781D03*
X379147110Y-197514595D03*
X379589427Y-195089212D03*
%TD*%
D16*
%TO.C,C3*%
X162814000Y-204145000D03*
X162814000Y-205105000D03*
%TD*%
D11*
%TO.C,H44*%
X451580034Y-160850046D03*
X457113566Y-152329154D03*
D13*
X452930536Y-157026181D03*
X454524010Y-158060995D03*
X454966327Y-155635612D03*
%TD*%
D11*
%TO.C,H19*%
X165199554Y-189346766D03*
X173720446Y-183813234D03*
D12*
X167988605Y-186402790D03*
X169023419Y-187996264D03*
X170413988Y-185960473D03*
%TD*%
D15*
%TO.C,MH07*%
X477000000Y-157000000D03*
%TD*%
D11*
%TO.C,H53*%
X379142834Y-150455546D03*
X384676366Y-141934654D03*
D13*
X380493336Y-146631681D03*
X382086810Y-147666495D03*
X382529127Y-145241112D03*
%TD*%
D11*
%TO.C,H59*%
X349063734Y-173054446D03*
X354597266Y-164533554D03*
D13*
X350414236Y-169230581D03*
X352007710Y-170265395D03*
X352450027Y-167840012D03*
%TD*%
D11*
%TO.C,H22*%
X176325554Y-151346866D03*
X184846446Y-145813334D03*
D12*
X179114605Y-148402890D03*
X180149419Y-149996364D03*
X181539988Y-147960573D03*
%TD*%
D15*
%TO.C,MH21*%
X153354986Y-136757115D03*
%TD*%
D11*
%TO.C,H15*%
X205199954Y-193949966D03*
X213720846Y-188416434D03*
D12*
X207989005Y-191005990D03*
X209023819Y-192599464D03*
X210414388Y-190563673D03*
%TD*%
D11*
%TO.C,H8*%
X245224954Y-175774966D03*
X253745846Y-170241434D03*
D12*
X248014005Y-172830990D03*
X249048819Y-174424464D03*
X250439388Y-172388673D03*
%TD*%
D11*
%TO.C,H70*%
X401494334Y-178745246D03*
X407027866Y-170224354D03*
D13*
X402844836Y-174921381D03*
X404438310Y-175956195D03*
X404880627Y-173530812D03*
%TD*%
D16*
%TO.C,C9*%
X377698000Y-216182000D03*
X377698000Y-217142000D03*
%TD*%
D11*
%TO.C,H47*%
X440443734Y-149514446D03*
X445977266Y-140993554D03*
D13*
X441794236Y-145690581D03*
X443387710Y-146725395D03*
X443830027Y-144300012D03*
%TD*%
D11*
%TO.C,H45*%
X445850934Y-175227546D03*
X451384466Y-166706654D03*
D13*
X447201436Y-171403681D03*
X448794910Y-172438495D03*
X449237227Y-170013112D03*
%TD*%
D11*
%TO.C,H2*%
X271449951Y-204825006D03*
X277421849Y-196605394D03*
D18*
X272998728Y-201077061D03*
X274535860Y-202193853D03*
X275104506Y-199794943D03*
%TD*%
D15*
%TO.C,MH15*%
X283210000Y-234950000D03*
%TD*%
D11*
%TO.C,H34*%
X176376154Y-129050466D03*
X184897046Y-123516934D03*
D12*
X179165205Y-126106490D03*
X180200019Y-127699964D03*
X181590588Y-125664173D03*
%TD*%
D11*
%TO.C,H51*%
X380536034Y-185039046D03*
X386069566Y-176518154D03*
D13*
X381886536Y-181215181D03*
X383480010Y-182249995D03*
X383922327Y-179824612D03*
%TD*%
D11*
%TO.C,H36*%
X155185554Y-152186266D03*
X163706446Y-146652734D03*
D12*
X157974605Y-149242290D03*
X159009419Y-150835764D03*
X160399988Y-148799973D03*
%TD*%
D11*
%TO.C,H57*%
X355686934Y-207765146D03*
X361220466Y-199244254D03*
D13*
X357037436Y-203941281D03*
X358630910Y-204976095D03*
X359073227Y-202550712D03*
%TD*%
D15*
%TO.C,MH02*%
X269240000Y-142748000D03*
%TD*%
D11*
%TO.C,H67*%
X427446034Y-141109046D03*
X432979566Y-132588154D03*
D13*
X428796536Y-137285181D03*
X430390010Y-138319995D03*
X430832327Y-135894612D03*
%TD*%
D15*
%TO.C,MH03*%
X354000000Y-138000000D03*
%TD*%
D11*
%TO.C,H64*%
X428796034Y-160059046D03*
X434329566Y-151538154D03*
D13*
X430146536Y-156235181D03*
X431740010Y-157269995D03*
X432182327Y-154844612D03*
%TD*%
D11*
%TO.C,H35*%
X165389554Y-139966766D03*
X173910446Y-134433234D03*
D12*
X168178605Y-137022790D03*
X169213419Y-138616264D03*
X170603988Y-136580473D03*
%TD*%
D15*
%TO.C,MH18*%
X156972000Y-199136000D03*
%TD*%
%TO.C,MH20*%
X122619000Y-168933000D03*
%TD*%
D10*
%TO.C,U7*%
X458445000Y-210000000D03*
X457175000Y-210000000D03*
X455905000Y-210000000D03*
X454635000Y-210000000D03*
X453365000Y-210000000D03*
X452095000Y-210000000D03*
X450825000Y-210000000D03*
X449555000Y-210000000D03*
X449555000Y-214950000D03*
X450825000Y-214950000D03*
X452095000Y-214950000D03*
X453365000Y-214950000D03*
X454635000Y-214950000D03*
X455905000Y-214950000D03*
X457175000Y-214950000D03*
X458445000Y-214950000D03*
%TD*%
D11*
%TO.C,H28*%
X195439154Y-179183566D03*
X203960046Y-173650034D03*
D12*
X198228205Y-176239590D03*
X199263019Y-177833064D03*
X200653588Y-175797273D03*
%TD*%
D11*
%TO.C,H40*%
X481490034Y-190699346D03*
X487023566Y-182178454D03*
D13*
X482840536Y-186875481D03*
X484434010Y-187910295D03*
X484876327Y-185484912D03*
%TD*%
D11*
%TO.C,H66*%
X419074934Y-189917746D03*
X424608466Y-181396854D03*
D13*
X420425436Y-186093881D03*
X422018910Y-187128695D03*
X422461227Y-184703312D03*
%TD*%
D11*
%TO.C,H39*%
X125287854Y-189833666D03*
X133808746Y-184300134D03*
D12*
X128076905Y-186889690D03*
X129111719Y-188483164D03*
X130502288Y-186447373D03*
%TD*%
D15*
%TO.C,MH06*%
X452500000Y-134500000D03*
%TD*%
D11*
%TO.C,H62*%
X328066434Y-185970846D03*
X333599966Y-177449954D03*
D13*
X329416936Y-182146981D03*
X331010410Y-183181795D03*
X331452727Y-180756412D03*
%TD*%
D15*
%TO.C,MH14*%
X279500000Y-171500000D03*
%TD*%
D11*
%TO.C,H56*%
X360607734Y-192724646D03*
X366141266Y-184203754D03*
D13*
X361958236Y-188900781D03*
X363551710Y-189935595D03*
X363994027Y-187510212D03*
%TD*%
D20*
%TO.C,U12*%
X295214000Y-201289500D03*
X296164000Y-201289500D03*
X297114000Y-201289500D03*
X297114000Y-199014500D03*
X296164000Y-199014500D03*
X295214000Y-199014500D03*
%TD*%
D10*
%TO.C,U2*%
X256032000Y-217235000D03*
X254762000Y-217235000D03*
X253492000Y-217235000D03*
X252222000Y-217235000D03*
X250952000Y-217235000D03*
X249682000Y-217235000D03*
X248412000Y-217235000D03*
X247142000Y-217235000D03*
X247142000Y-222185000D03*
X248412000Y-222185000D03*
X249682000Y-222185000D03*
X250952000Y-222185000D03*
X252222000Y-222185000D03*
X253492000Y-222185000D03*
X254762000Y-222185000D03*
X256032000Y-222185000D03*
%TD*%
D16*
%TO.C,C4*%
X179070000Y-203990000D03*
X179070000Y-204950000D03*
%TD*%
D15*
%TO.C,MH39*%
X123720000Y-227722000D03*
%TD*%
D11*
%TO.C,H60*%
X344905634Y-188496946D03*
X350439166Y-179976054D03*
D13*
X346256136Y-184673081D03*
X347849610Y-185707895D03*
X348291927Y-183282512D03*
%TD*%
D11*
%TO.C,H10*%
X224659154Y-199863566D03*
X233180046Y-194330034D03*
D12*
X227448205Y-196919590D03*
X228483019Y-198513064D03*
X229873588Y-196477273D03*
%TD*%
D11*
%TO.C,H17*%
X185436154Y-163910466D03*
X193957046Y-158376934D03*
D12*
X188225205Y-160966490D03*
X189260019Y-162559964D03*
X190650588Y-160524173D03*
%TD*%
D15*
%TO.C,MH16*%
X250000000Y-255000000D03*
%TD*%
D11*
%TO.C,H7*%
X259890434Y-160647054D03*
X265423966Y-169167946D03*
D14*
X262834410Y-163436105D03*
X261240936Y-164470919D03*
X263276727Y-165861488D03*
%TD*%
D11*
%TO.C,H24*%
X245366434Y-133879154D03*
X250899966Y-142400046D03*
D14*
X248310410Y-136668205D03*
X246716936Y-137703019D03*
X248752727Y-139093588D03*
%TD*%
D22*
%TO.C,R1*%
X364004000Y-145456000D03*
X364004000Y-146096000D03*
%TD*%
D10*
%TO.C,U4*%
X173736000Y-200152000D03*
X172466000Y-200152000D03*
X171196000Y-200152000D03*
X169926000Y-200152000D03*
X168656000Y-200152000D03*
X167386000Y-200152000D03*
X166116000Y-200152000D03*
X164846000Y-200152000D03*
X164846000Y-205102000D03*
X166116000Y-205102000D03*
X167386000Y-205102000D03*
X168656000Y-205102000D03*
X169926000Y-205102000D03*
X171196000Y-205102000D03*
X172466000Y-205102000D03*
X173736000Y-205102000D03*
%TD*%
D11*
%TO.C,H4*%
X262376154Y-183450466D03*
X270897046Y-177916934D03*
D12*
X265165205Y-180506490D03*
X266200019Y-182099964D03*
X267590588Y-180064173D03*
%TD*%
D11*
%TO.C,H46*%
X440386034Y-189749946D03*
X445919566Y-181229054D03*
D13*
X441736536Y-185926081D03*
X443330010Y-186960895D03*
X443772327Y-184535512D03*
%TD*%
D15*
%TO.C,MH33*%
X324485000Y-203200000D03*
%TD*%
D11*
%TO.C,H30*%
X223012234Y-127957554D03*
X228545766Y-136478446D03*
D14*
X225956210Y-130746605D03*
X224362736Y-131781419D03*
X226398527Y-133171988D03*
%TD*%
D11*
%TO.C,H27*%
X204949954Y-165899966D03*
X213470846Y-160366434D03*
D12*
X207739005Y-162955990D03*
X208773819Y-164549464D03*
X210164388Y-162513673D03*
%TD*%
D10*
%TO.C,U10*%
X410083000Y-212155000D03*
X408813000Y-212155000D03*
X407543000Y-212155000D03*
X406273000Y-212155000D03*
X405003000Y-212155000D03*
X403733000Y-212155000D03*
X402463000Y-212155000D03*
X401193000Y-212155000D03*
X401193000Y-217105000D03*
X402463000Y-217105000D03*
X403733000Y-217105000D03*
X405003000Y-217105000D03*
X406273000Y-217105000D03*
X407543000Y-217105000D03*
X408813000Y-217105000D03*
X410083000Y-217105000D03*
%TD*%
%TO.C,U5*%
X190246000Y-200090000D03*
X188976000Y-200090000D03*
X187706000Y-200090000D03*
X186436000Y-200090000D03*
X185166000Y-200090000D03*
X183896000Y-200090000D03*
X182626000Y-200090000D03*
X181356000Y-200090000D03*
X181356000Y-205040000D03*
X182626000Y-205040000D03*
X183896000Y-205040000D03*
X185166000Y-205040000D03*
X186436000Y-205040000D03*
X187706000Y-205040000D03*
X188976000Y-205040000D03*
X190246000Y-205040000D03*
%TD*%
D11*
%TO.C,H23*%
X166176154Y-163650466D03*
X174697046Y-158116934D03*
D12*
X168965205Y-160706490D03*
X170000019Y-162299964D03*
X171390588Y-160264173D03*
%TD*%
D15*
%TO.C,MH10*%
X412750000Y-198628000D03*
%TD*%
D11*
%TO.C,H55*%
X364985234Y-177488546D03*
X370518766Y-168967654D03*
D13*
X366335736Y-173664681D03*
X367929210Y-174699495D03*
X368371527Y-172274112D03*
%TD*%
D11*
%TO.C,H65*%
X424566434Y-175395846D03*
X430099966Y-166874954D03*
D13*
X425916936Y-171571981D03*
X427510410Y-172606795D03*
X427952727Y-170181412D03*
%TD*%
D23*
%TO.C,U1*%
X310515000Y-181610000D03*
D24*
X310515000Y-184150000D03*
X310515000Y-186690000D03*
X310515000Y-189230000D03*
X310515000Y-191770000D03*
X310515000Y-194310000D03*
X310515000Y-196850000D03*
X310515000Y-199390000D03*
X310515000Y-201930000D03*
X310515000Y-204470000D03*
X310515000Y-207010000D03*
X310515000Y-209550000D03*
X310515000Y-212090000D03*
X310515000Y-214630000D03*
X310515000Y-217170000D03*
X310515000Y-219710000D03*
X290195000Y-219710000D03*
X290195000Y-217170000D03*
X290195000Y-214630000D03*
X290195000Y-212090000D03*
X290195000Y-209550000D03*
X290195000Y-207010000D03*
X290195000Y-204470000D03*
X290195000Y-201930000D03*
X290195000Y-199390000D03*
X290195000Y-196850000D03*
X290195000Y-194310000D03*
X290195000Y-191770000D03*
%TD*%
D25*
%TO.C,J1*%
X338597000Y-249345000D03*
X351933000Y-249345000D03*
D26*
X345265000Y-241725000D03*
D27*
X353266000Y-238550000D03*
X357766000Y-238550000D03*
D25*
X338597000Y-234105000D03*
X351933000Y-234105000D03*
D28*
X342725000Y-251885000D03*
X345265000Y-251885000D03*
X347805000Y-251885000D03*
X335105000Y-239185000D03*
X335105000Y-241725000D03*
X335105000Y-244265000D03*
D27*
X353266000Y-244900000D03*
X357766000Y-244900000D03*
%TD*%
D29*
%TO.C,J5*%
X345500000Y-136780000D03*
X345500000Y-124780000D03*
X337500000Y-136780000D03*
X337500000Y-124780000D03*
D30*
X344000000Y-140780000D03*
D31*
X341500000Y-124780000D03*
D30*
X339000000Y-140780000D03*
%TD*%
D29*
%TO.C,J4*%
X370500000Y-136780000D03*
X370500000Y-124780000D03*
X362500000Y-136780000D03*
X362500000Y-124780000D03*
D30*
X369000000Y-140780000D03*
D31*
X366500000Y-124780000D03*
D30*
X364000000Y-140780000D03*
%TD*%
D32*
%TO.C,J6*%
X271860000Y-124460000D03*
D33*
X274360000Y-124460000D03*
X276860000Y-124460000D03*
%TD*%
D32*
%TO.C,J7*%
X287100000Y-124460000D03*
D33*
X289600000Y-124460000D03*
X292100000Y-124460000D03*
%TD*%
M02*
