%TF.GenerationSoftware,KiCad,Pcbnew,7.0.10-148-g62bb553460*%
%TF.CreationDate,2024-03-29T08:39:48+01:00*%
%TF.ProjectId,bandoneon,62616e64-6f6e-4656-9f6e-2e6b69636164,rev?*%
%TF.SameCoordinates,Original*%
%TF.FileFunction,Profile,NP*%
%FSLAX46Y46*%
G04 Gerber Fmt 4.6, Leading zero omitted, Abs format (unit mm)*
G04 Created by KiCad (PCBNEW 7.0.10-148-g62bb553460) date 2024-03-29 08:39:48*
%MOMM*%
%LPD*%
G01*
G04 APERTURE LIST*
%TA.AperFunction,Profile*%
%ADD10C,0.200000*%
%TD*%
%TA.AperFunction,Profile*%
%ADD11C,0.100000*%
%TD*%
G04 APERTURE END LIST*
D10*
X118048267Y-223002575D02*
X118048267Y-171803572D01*
X361728876Y-114783736D02*
X371271124Y-114783736D01*
X493802717Y-234251272D02*
X379109820Y-258630000D01*
X121416525Y-163671830D02*
G75*
G03*
X118048267Y-171803572I8131875J-8131770D01*
G01*
X295100000Y-117000000D02*
X268900000Y-117000000D01*
X121416539Y-163671844D02*
X166936375Y-118152008D01*
X241850180Y-258630000D02*
X127157283Y-234251272D01*
D11*
X310000000Y-124000000D02*
X310000000Y-124000000D01*
D10*
X371271124Y-114783736D02*
X445891897Y-114783736D01*
X175068103Y-114783728D02*
G75*
G03*
X166936375Y-118152008I-3J-11499972D01*
G01*
X336728876Y-114783736D02*
X346271124Y-114783736D01*
X379109820Y-258630000D02*
X241850180Y-258630000D01*
X296200000Y-114783736D02*
X336728876Y-114783736D01*
X502911733Y-171803572D02*
X502911733Y-223002575D01*
X175068103Y-114783736D02*
X267900000Y-114783736D01*
X454023625Y-118152008D02*
X499543461Y-163671844D01*
X118048300Y-223002575D02*
G75*
G03*
X127157283Y-234251271I11500100J75D01*
G01*
X295100000Y-117000000D02*
X296200000Y-114783736D01*
X502911743Y-171803572D02*
G75*
G03*
X499543461Y-163671844I-11500043J-28D01*
G01*
X454023640Y-118151993D02*
G75*
G03*
X445891897Y-114783736I-8131740J-8131807D01*
G01*
X493802711Y-234251244D02*
G75*
G03*
X502911733Y-223002575I-2390911J11248644D01*
G01*
X346271124Y-114783736D02*
X361728876Y-114783736D01*
X268900000Y-117000000D02*
X267900000Y-114783736D01*
M02*
