%TF.GenerationSoftware,KiCad,Pcbnew,7.0.10-148-g62bb553460*%
%TF.CreationDate,2024-03-29T08:39:52+01:00*%
%TF.ProjectId,bandoneon,62616e64-6f6e-4656-9f6e-2e6b69636164,rev?*%
%TF.SameCoordinates,Original*%
%TF.FileFunction,Drillmap*%
%TF.FilePolarity,Positive*%
%FSLAX45Y45*%
G04 Gerber Fmt 4.5, Leading zero omitted, Abs format (unit mm)*
G04 Created by KiCad (PCBNEW 7.0.10-148-g62bb553460) date 2024-03-29 08:39:52*
%MOMM*%
%LPD*%
G01*
G04 APERTURE LIST*
%ADD10C,0.200000*%
%ADD11C,0.100000*%
%ADD12C,0.140000*%
G04 APERTURE END LIST*
D10*
X11804827Y-22300258D02*
X11804827Y-17180357D01*
X36172888Y-11478374D02*
X37127112Y-11478374D01*
X49380272Y-23425127D02*
X37910982Y-25863000D01*
X12141652Y-16367183D02*
G75*
G03*
X11804827Y-17180357I813188J-813177D01*
G01*
X29510000Y-11700000D02*
X26890000Y-11700000D01*
X12141654Y-16367184D02*
X16693637Y-11815201D01*
X24185018Y-25863000D02*
X12715728Y-23425127D01*
D11*
X31000000Y-12400000D02*
X31000000Y-12400000D01*
D10*
X37127112Y-11478374D02*
X44589190Y-11478374D01*
X17506810Y-11478373D02*
G75*
G03*
X16693637Y-11815201I0J-1149997D01*
G01*
X33672888Y-11478374D02*
X34627112Y-11478374D01*
X37910982Y-25863000D02*
X24185018Y-25863000D01*
X29620000Y-11478374D02*
X33672888Y-11478374D01*
X50291173Y-17180357D02*
X50291173Y-22300258D01*
X17506810Y-11478374D02*
X26790000Y-11478374D01*
X45402362Y-11815201D02*
X49954346Y-16367184D01*
X11804830Y-22300258D02*
G75*
G03*
X12715728Y-23425127I1150010J8D01*
G01*
X29510000Y-11700000D02*
X29620000Y-11478374D01*
X50291174Y-17180357D02*
G75*
G03*
X49954346Y-16367184I-1150004J-3D01*
G01*
X45402364Y-11815199D02*
G75*
G03*
X44589190Y-11478374I-813174J-813181D01*
G01*
X49380271Y-23425124D02*
G75*
G03*
X50291173Y-22300258I-239091J1124864D01*
G01*
X34627112Y-11478374D02*
X36172888Y-11478374D01*
X26890000Y-11700000D02*
X26790000Y-11478374D01*
D11*
X13378500Y-20503200D02*
X13418500Y-20543200D01*
X13418500Y-20503200D02*
X13378500Y-20543200D01*
X13391200Y-18166400D02*
X13431200Y-18206400D01*
X13431200Y-18166400D02*
X13391200Y-18206400D01*
X13924600Y-21290600D02*
X13964600Y-21330600D01*
X13964600Y-21290600D02*
X13924600Y-21330600D01*
X14038900Y-21093750D02*
X14078900Y-21133750D01*
X14078900Y-21093750D02*
X14038900Y-21133750D01*
X14356400Y-16921800D02*
X14396400Y-16961800D01*
X14396400Y-16921800D02*
X14356400Y-16961800D01*
X14458000Y-20935000D02*
X14498000Y-20975000D01*
X14498000Y-20935000D02*
X14458000Y-20975000D01*
X15372400Y-15728000D02*
X15412400Y-15768000D01*
X15412400Y-15728000D02*
X15372400Y-15768000D01*
X15397800Y-18090200D02*
X15437800Y-18130200D01*
X15437800Y-18090200D02*
X15397800Y-18130200D01*
X16261400Y-20604800D02*
X16301400Y-20644800D01*
X16301400Y-20604800D02*
X16261400Y-20644800D01*
X16337600Y-14432600D02*
X16377600Y-14472600D01*
X16377600Y-14432600D02*
X16337600Y-14472600D01*
X16439200Y-16896400D02*
X16479200Y-16936400D01*
X16479200Y-16896400D02*
X16439200Y-16936400D01*
X16591600Y-21290600D02*
X16631600Y-21330600D01*
X16631600Y-21290600D02*
X16591600Y-21330600D01*
X16959900Y-21100100D02*
X16999900Y-21140100D01*
X16999900Y-21100100D02*
X16959900Y-21140100D01*
X17319205Y-20935000D02*
X17359205Y-20975000D01*
X17359205Y-20935000D02*
X17319205Y-20975000D01*
X17328200Y-18191800D02*
X17368200Y-18231800D01*
X17368200Y-18191800D02*
X17328200Y-18231800D01*
X17353600Y-13213400D02*
X17393600Y-13253400D01*
X17393600Y-13213400D02*
X17353600Y-13253400D01*
X17404400Y-15575600D02*
X17444400Y-15615600D01*
X17444400Y-15575600D02*
X17404400Y-15615600D01*
X17887000Y-20617500D02*
X17927000Y-20657500D01*
X17927000Y-20617500D02*
X17887000Y-20657500D01*
X18242600Y-21290600D02*
X18282600Y-21330600D01*
X18282600Y-21290600D02*
X18242600Y-21330600D01*
X18344200Y-16896400D02*
X18384200Y-16936400D01*
X18384200Y-16896400D02*
X18344200Y-16936400D01*
X18471200Y-14381800D02*
X18511200Y-14421800D01*
X18511200Y-14381800D02*
X18471200Y-14421800D01*
X18610900Y-21100100D02*
X18650900Y-21140100D01*
X18650900Y-21100100D02*
X18610900Y-21140100D01*
X18636300Y-12464100D02*
X18676300Y-12504100D01*
X18676300Y-12464100D02*
X18636300Y-12504100D01*
X18955576Y-20935000D02*
X18995576Y-20975000D01*
X18995576Y-20935000D02*
X18955576Y-20975000D01*
X19258600Y-18293400D02*
X19298600Y-18333400D01*
X19298600Y-18293400D02*
X19258600Y-18333400D01*
X19334800Y-15626400D02*
X19374800Y-15666400D01*
X19374800Y-15626400D02*
X19334800Y-15666400D01*
X19563400Y-13289600D02*
X19603400Y-13329600D01*
X19603400Y-13289600D02*
X19563400Y-13329600D01*
X20350800Y-17150400D02*
X20390800Y-17190400D01*
X20390800Y-17150400D02*
X20350800Y-17190400D01*
X20452400Y-14534200D02*
X20492400Y-14574200D01*
X20492400Y-14534200D02*
X20452400Y-14574200D01*
X20757200Y-12375200D02*
X20797200Y-12415200D01*
X20797200Y-12375200D02*
X20757200Y-12415200D01*
X21316000Y-15829600D02*
X21356000Y-15869600D01*
X21356000Y-15829600D02*
X21316000Y-15869600D01*
X21316000Y-18649000D02*
X21356000Y-18689000D01*
X21356000Y-18649000D02*
X21316000Y-18689000D01*
X21697000Y-13594400D02*
X21737000Y-13634400D01*
X21737000Y-13594400D02*
X21697000Y-13634400D01*
X21951000Y-21379500D02*
X21991000Y-21419500D01*
X21991000Y-21379500D02*
X21951000Y-21419500D01*
X22103400Y-22052600D02*
X22143400Y-22092600D01*
X22143400Y-22052600D02*
X22103400Y-22092600D01*
X22306600Y-17379000D02*
X22346600Y-17419000D01*
X22346600Y-17379000D02*
X22306600Y-17419000D01*
X22484400Y-21862100D02*
X22524400Y-21902100D01*
X22524400Y-21862100D02*
X22484400Y-21902100D01*
X22509800Y-14915200D02*
X22549800Y-14955200D01*
X22549800Y-14915200D02*
X22509800Y-14955200D01*
X23017800Y-13619800D02*
X23057800Y-13659800D01*
X23057800Y-13619800D02*
X23017800Y-13659800D01*
X23094000Y-21671600D02*
X23134000Y-21711600D01*
X23134000Y-21671600D02*
X23094000Y-21711600D01*
X23246400Y-19207800D02*
X23286400Y-19247800D01*
X23286400Y-19207800D02*
X23246400Y-19247800D01*
X23373400Y-16210600D02*
X23413400Y-16250600D01*
X23413400Y-16210600D02*
X23373400Y-16250600D01*
X23856000Y-14813600D02*
X23896000Y-14853600D01*
X23896000Y-14813600D02*
X23856000Y-14853600D01*
X24262400Y-17937800D02*
X24302400Y-17977800D01*
X24302400Y-17937800D02*
X24262400Y-17977800D01*
X24491000Y-22205000D02*
X24531000Y-22245000D01*
X24531000Y-22205000D02*
X24491000Y-22245000D01*
X24618000Y-15296200D02*
X24658000Y-15336200D01*
X24658000Y-15296200D02*
X24618000Y-15336200D01*
X24706900Y-22941600D02*
X24746900Y-22981600D01*
X24746900Y-22941600D02*
X24706900Y-22981600D01*
X24948200Y-19944400D02*
X24988200Y-19984400D01*
X24988200Y-19944400D02*
X24948200Y-19984400D01*
X24960900Y-22751100D02*
X25000900Y-22791100D01*
X25000900Y-22751100D02*
X24960900Y-22791100D01*
X25253000Y-14178600D02*
X25293000Y-14218600D01*
X25293000Y-14178600D02*
X25253000Y-14218600D01*
X25303800Y-16820200D02*
X25343800Y-16860200D01*
X25343800Y-16820200D02*
X25303800Y-16860200D01*
X25481600Y-22560600D02*
X25521600Y-22600600D01*
X25521600Y-22560600D02*
X25481600Y-22600600D01*
X25938800Y-18699800D02*
X25978800Y-18739800D01*
X25978800Y-18699800D02*
X25938800Y-18739800D01*
X26065800Y-15499400D02*
X26105800Y-15539400D01*
X26105800Y-15499400D02*
X26065800Y-15539400D01*
X26700800Y-16845600D02*
X26740800Y-16885600D01*
X26740800Y-16845600D02*
X26700800Y-16885600D01*
X26751600Y-20681000D02*
X26791600Y-20721000D01*
X26791600Y-20681000D02*
X26751600Y-20721000D01*
X27031000Y-17582200D02*
X27071000Y-17622200D01*
X27071000Y-17582200D02*
X27031000Y-17622200D01*
X27666000Y-19461800D02*
X27706000Y-19501800D01*
X27706000Y-19461800D02*
X27666000Y-19501800D01*
X28936000Y-22382800D02*
X28976000Y-22422800D01*
X28976000Y-22382800D02*
X28936000Y-22422800D01*
X29253500Y-20935000D02*
X29293500Y-20975000D01*
X29293500Y-20935000D02*
X29253500Y-20975000D01*
X29444000Y-21887500D02*
X29484000Y-21927500D01*
X29484000Y-21887500D02*
X29444000Y-21927500D01*
X29545600Y-16896400D02*
X29585600Y-16936400D01*
X29585600Y-16896400D02*
X29545600Y-16936400D01*
X29748800Y-18877600D02*
X29788800Y-18917600D01*
X29788800Y-18877600D02*
X29748800Y-18917600D01*
X29761500Y-20427000D02*
X29801500Y-20467000D01*
X29801500Y-20427000D02*
X29761500Y-20467000D01*
X30079000Y-21252500D02*
X30119000Y-21292500D01*
X30119000Y-21252500D02*
X30079000Y-21292500D01*
X30510800Y-16618541D02*
X30550800Y-16658541D01*
X30550800Y-16618541D02*
X30510800Y-16658541D01*
X30866400Y-22179600D02*
X30906400Y-22219600D01*
X30906400Y-22179600D02*
X30866400Y-22219600D01*
X31501400Y-22814600D02*
X31541400Y-22854600D01*
X31541400Y-22814600D02*
X31501400Y-22854600D01*
X31691900Y-23195600D02*
X31731900Y-23235600D01*
X31731900Y-23195600D02*
X31691900Y-23235600D01*
X31831600Y-22078000D02*
X31871600Y-22118000D01*
X31871600Y-22078000D02*
X31831600Y-22118000D01*
X31984000Y-18903000D02*
X32024000Y-18943000D01*
X32024000Y-18903000D02*
X31984000Y-18943000D01*
X32466600Y-22713000D02*
X32506600Y-22753000D01*
X32506600Y-22713000D02*
X32466600Y-22753000D01*
X33203200Y-17506000D02*
X33243200Y-17546000D01*
X33243200Y-17506000D02*
X33203200Y-17546000D01*
X33863600Y-17099600D02*
X33903600Y-17139600D01*
X33903600Y-17099600D02*
X33863600Y-17139600D01*
X34231900Y-22459000D02*
X34271900Y-22499000D01*
X34271900Y-22459000D02*
X34231900Y-22499000D01*
X34320800Y-19233200D02*
X34360800Y-19273200D01*
X34360800Y-19233200D02*
X34320800Y-19273200D01*
X34320800Y-21011200D02*
X34360800Y-21051200D01*
X34360800Y-21011200D02*
X34320800Y-21051200D01*
X34739900Y-22332000D02*
X34779900Y-22372000D01*
X34779900Y-22332000D02*
X34739900Y-22372000D01*
X34930400Y-17810800D02*
X34970400Y-17850800D01*
X34970400Y-17810800D02*
X34930400Y-17850800D01*
X35311400Y-22179600D02*
X35351400Y-22219600D01*
X35351400Y-22179600D02*
X35311400Y-22219600D01*
X35336800Y-16236000D02*
X35376800Y-16276000D01*
X35376800Y-16236000D02*
X35336800Y-16276000D01*
X35844800Y-21443000D02*
X35884800Y-21483000D01*
X35884800Y-21443000D02*
X35844800Y-21483000D01*
X36251200Y-15016800D02*
X36291200Y-15056800D01*
X36291200Y-15016800D02*
X36251200Y-15056800D01*
X36302000Y-19944400D02*
X36342000Y-19984400D01*
X36342000Y-19944400D02*
X36302000Y-19984400D01*
X36403600Y-18268000D02*
X36443600Y-18308000D01*
X36443600Y-18268000D02*
X36403600Y-18308000D01*
X36810000Y-16693200D02*
X36850000Y-16733200D01*
X36850000Y-16693200D02*
X36810000Y-16733200D01*
X37411397Y-22450797D02*
X37451397Y-22490797D01*
X37451397Y-22450797D02*
X37411397Y-22490797D01*
X37749800Y-21824000D02*
X37789800Y-21864000D01*
X37789800Y-21824000D02*
X37749800Y-21864000D01*
X37826000Y-15474000D02*
X37866000Y-15514000D01*
X37866000Y-15474000D02*
X37826000Y-15514000D01*
X37914900Y-22332000D02*
X37954900Y-22372000D01*
X37954900Y-22332000D02*
X37914900Y-22372000D01*
X38359400Y-19157000D02*
X38399400Y-19197000D01*
X38399400Y-19157000D02*
X38359400Y-19197000D01*
X38638800Y-14204000D02*
X38678800Y-14244000D01*
X38678800Y-14204000D02*
X38638800Y-14244000D01*
X38638800Y-22179600D02*
X38678800Y-22219600D01*
X38678800Y-22179600D02*
X38638800Y-22219600D01*
X38791200Y-17658400D02*
X38831200Y-17698400D01*
X38831200Y-17658400D02*
X38791200Y-17698400D01*
X39248400Y-16134400D02*
X39288400Y-16174400D01*
X39288400Y-16134400D02*
X39248400Y-16174400D01*
X39604000Y-22459000D02*
X39644000Y-22499000D01*
X39644000Y-22459000D02*
X39604000Y-22499000D01*
X39807200Y-21697000D02*
X39847200Y-21737000D01*
X39847200Y-21697000D02*
X39807200Y-21737000D01*
X40010400Y-18318800D02*
X40050400Y-18358800D01*
X40050400Y-18318800D02*
X40010400Y-18358800D01*
X40061200Y-14813600D02*
X40101200Y-14853600D01*
X40101200Y-14813600D02*
X40061200Y-14853600D01*
X40200900Y-22332000D02*
X40240900Y-22372000D01*
X40240900Y-22332000D02*
X40200900Y-22372000D01*
X40467600Y-16794800D02*
X40507600Y-16834800D01*
X40507600Y-16794800D02*
X40467600Y-16834800D01*
X40569200Y-13391200D02*
X40609200Y-13431200D01*
X40609200Y-13391200D02*
X40569200Y-13431200D01*
X40772400Y-22179600D02*
X40812400Y-22219600D01*
X40812400Y-22179600D02*
X40772400Y-22219600D01*
X41077200Y-15372400D02*
X41117200Y-15412400D01*
X41117200Y-15372400D02*
X41077200Y-15412400D01*
X41890000Y-14102400D02*
X41930000Y-14142400D01*
X41930000Y-14102400D02*
X41890000Y-14142400D01*
X42245600Y-17912400D02*
X42285600Y-17952400D01*
X42285600Y-17912400D02*
X42245600Y-17952400D01*
X42804400Y-16388400D02*
X42844400Y-16428400D01*
X42844400Y-16388400D02*
X42804400Y-16428400D01*
X43058400Y-13035600D02*
X43098400Y-13075600D01*
X43098400Y-13035600D02*
X43058400Y-13075600D01*
X43210800Y-14915200D02*
X43250800Y-14955200D01*
X43250800Y-14915200D02*
X43210800Y-14955200D01*
X44180000Y-22459000D02*
X44220000Y-22499000D01*
X44220000Y-22459000D02*
X44180000Y-22499000D01*
X44379200Y-13848400D02*
X44419200Y-13888400D01*
X44419200Y-13848400D02*
X44379200Y-13888400D01*
X44379200Y-17861600D02*
X44419200Y-17901600D01*
X44419200Y-17861600D02*
X44379200Y-17901600D01*
X44607800Y-21595400D02*
X44647800Y-21635400D01*
X44647800Y-21595400D02*
X44607800Y-21635400D01*
X44887200Y-16388400D02*
X44927200Y-16428400D01*
X44927200Y-16388400D02*
X44887200Y-16428400D01*
X44963400Y-22332000D02*
X45003400Y-22372000D01*
X45003400Y-22332000D02*
X44963400Y-22372000D01*
X45496800Y-14966000D02*
X45536800Y-15006000D01*
X45536800Y-14966000D02*
X45496800Y-15006000D01*
X45598400Y-22179600D02*
X45638400Y-22219600D01*
X45638400Y-22179600D02*
X45598400Y-22219600D01*
X46563600Y-13848400D02*
X46603600Y-13888400D01*
X46603600Y-13848400D02*
X46563600Y-13888400D01*
X46665200Y-17912400D02*
X46705200Y-17952400D01*
X46705200Y-17912400D02*
X46665200Y-17952400D01*
X47224000Y-16439200D02*
X47264000Y-16479200D01*
X47264000Y-16439200D02*
X47224000Y-16479200D01*
X48494000Y-17963200D02*
X48534000Y-18003200D01*
X48534000Y-17963200D02*
X48494000Y-18003200D01*
X29059500Y-19177000D02*
G75*
G03*
X28979500Y-19177000I-40000J0D01*
G01*
X28979500Y-19177000D02*
G75*
G03*
X29059500Y-19177000I40000J0D01*
G01*
X29059500Y-19431000D02*
G75*
G03*
X28979500Y-19431000I-40000J0D01*
G01*
X28979500Y-19431000D02*
G75*
G03*
X29059500Y-19431000I40000J0D01*
G01*
X29059500Y-19685000D02*
G75*
G03*
X28979500Y-19685000I-40000J0D01*
G01*
X28979500Y-19685000D02*
G75*
G03*
X29059500Y-19685000I40000J0D01*
G01*
X29059500Y-19939000D02*
G75*
G03*
X28979500Y-19939000I-40000J0D01*
G01*
X28979500Y-19939000D02*
G75*
G03*
X29059500Y-19939000I40000J0D01*
G01*
X29059500Y-20193000D02*
G75*
G03*
X28979500Y-20193000I-40000J0D01*
G01*
X28979500Y-20193000D02*
G75*
G03*
X29059500Y-20193000I40000J0D01*
G01*
X29059500Y-20447000D02*
G75*
G03*
X28979500Y-20447000I-40000J0D01*
G01*
X28979500Y-20447000D02*
G75*
G03*
X29059500Y-20447000I40000J0D01*
G01*
X29059500Y-20701000D02*
G75*
G03*
X28979500Y-20701000I-40000J0D01*
G01*
X28979500Y-20701000D02*
G75*
G03*
X29059500Y-20701000I40000J0D01*
G01*
X29059500Y-20955000D02*
G75*
G03*
X28979500Y-20955000I-40000J0D01*
G01*
X28979500Y-20955000D02*
G75*
G03*
X29059500Y-20955000I40000J0D01*
G01*
X29059500Y-21209000D02*
G75*
G03*
X28979500Y-21209000I-40000J0D01*
G01*
X28979500Y-21209000D02*
G75*
G03*
X29059500Y-21209000I40000J0D01*
G01*
X29059500Y-21463000D02*
G75*
G03*
X28979500Y-21463000I-40000J0D01*
G01*
X28979500Y-21463000D02*
G75*
G03*
X29059500Y-21463000I40000J0D01*
G01*
X29059500Y-21717000D02*
G75*
G03*
X28979500Y-21717000I-40000J0D01*
G01*
X28979500Y-21717000D02*
G75*
G03*
X29059500Y-21717000I40000J0D01*
G01*
X29059500Y-21971000D02*
G75*
G03*
X28979500Y-21971000I-40000J0D01*
G01*
X28979500Y-21971000D02*
G75*
G03*
X29059500Y-21971000I40000J0D01*
G01*
X31091500Y-18161000D02*
G75*
G03*
X31011500Y-18161000I-40000J0D01*
G01*
X31011500Y-18161000D02*
G75*
G03*
X31091500Y-18161000I40000J0D01*
G01*
X31091500Y-18415000D02*
G75*
G03*
X31011500Y-18415000I-40000J0D01*
G01*
X31011500Y-18415000D02*
G75*
G03*
X31091500Y-18415000I40000J0D01*
G01*
X31091500Y-18669000D02*
G75*
G03*
X31011500Y-18669000I-40000J0D01*
G01*
X31011500Y-18669000D02*
G75*
G03*
X31091500Y-18669000I40000J0D01*
G01*
X31091500Y-18923000D02*
G75*
G03*
X31011500Y-18923000I-40000J0D01*
G01*
X31011500Y-18923000D02*
G75*
G03*
X31091500Y-18923000I40000J0D01*
G01*
X31091500Y-19177000D02*
G75*
G03*
X31011500Y-19177000I-40000J0D01*
G01*
X31011500Y-19177000D02*
G75*
G03*
X31091500Y-19177000I40000J0D01*
G01*
X31091500Y-19431000D02*
G75*
G03*
X31011500Y-19431000I-40000J0D01*
G01*
X31011500Y-19431000D02*
G75*
G03*
X31091500Y-19431000I40000J0D01*
G01*
X31091500Y-19685000D02*
G75*
G03*
X31011500Y-19685000I-40000J0D01*
G01*
X31011500Y-19685000D02*
G75*
G03*
X31091500Y-19685000I40000J0D01*
G01*
X31091500Y-19939000D02*
G75*
G03*
X31011500Y-19939000I-40000J0D01*
G01*
X31011500Y-19939000D02*
G75*
G03*
X31091500Y-19939000I40000J0D01*
G01*
X31091500Y-20193000D02*
G75*
G03*
X31011500Y-20193000I-40000J0D01*
G01*
X31011500Y-20193000D02*
G75*
G03*
X31091500Y-20193000I40000J0D01*
G01*
X31091500Y-20447000D02*
G75*
G03*
X31011500Y-20447000I-40000J0D01*
G01*
X31011500Y-20447000D02*
G75*
G03*
X31091500Y-20447000I40000J0D01*
G01*
X31091500Y-20701000D02*
G75*
G03*
X31011500Y-20701000I-40000J0D01*
G01*
X31011500Y-20701000D02*
G75*
G03*
X31091500Y-20701000I40000J0D01*
G01*
X31091500Y-20955000D02*
G75*
G03*
X31011500Y-20955000I-40000J0D01*
G01*
X31011500Y-20955000D02*
G75*
G03*
X31091500Y-20955000I40000J0D01*
G01*
X31091500Y-21209000D02*
G75*
G03*
X31011500Y-21209000I-40000J0D01*
G01*
X31011500Y-21209000D02*
G75*
G03*
X31091500Y-21209000I40000J0D01*
G01*
X31091500Y-21463000D02*
G75*
G03*
X31011500Y-21463000I-40000J0D01*
G01*
X31011500Y-21463000D02*
G75*
G03*
X31091500Y-21463000I40000J0D01*
G01*
X31091500Y-21717000D02*
G75*
G03*
X31011500Y-21717000I-40000J0D01*
G01*
X31011500Y-21717000D02*
G75*
G03*
X31091500Y-21717000I40000J0D01*
G01*
X31091500Y-21971000D02*
G75*
G03*
X31011500Y-21971000I-40000J0D01*
G01*
X31011500Y-21971000D02*
G75*
G03*
X31091500Y-21971000I40000J0D01*
G01*
X33510500Y-23874050D02*
X33510500Y-23962950D01*
X33466050Y-23918500D02*
X33554950Y-23918500D01*
X33510500Y-24128050D02*
X33510500Y-24216950D01*
X33466050Y-24172500D02*
X33554950Y-24172500D01*
X33510500Y-24382050D02*
X33510500Y-24470950D01*
X33466050Y-24426500D02*
X33554950Y-24426500D01*
X34272500Y-25144050D02*
X34272500Y-25232950D01*
X34228050Y-25188500D02*
X34316950Y-25188500D01*
X34526500Y-25144050D02*
X34526500Y-25232950D01*
X34482050Y-25188500D02*
X34570950Y-25188500D01*
X34780500Y-25144050D02*
X34780500Y-25232950D01*
X34736050Y-25188500D02*
X34824950Y-25188500D01*
X35326600Y-23810550D02*
X35326600Y-23899450D01*
X35282150Y-23855000D02*
X35371050Y-23855000D01*
X35326600Y-24445550D02*
X35326600Y-24534450D01*
X35282150Y-24490000D02*
X35371050Y-24490000D01*
X35776600Y-23810550D02*
X35776600Y-23899450D01*
X35732150Y-23855000D02*
X35821050Y-23855000D01*
X35776600Y-24445550D02*
X35776600Y-24534450D01*
X35732150Y-24490000D02*
X35821050Y-24490000D01*
X27219588Y-12479588D02*
X27219588Y-12412412D01*
X27152412Y-12412412D01*
X27152412Y-12479588D01*
X27219588Y-12479588D01*
X27469588Y-12479588D02*
X27469588Y-12412412D01*
X27402412Y-12412412D01*
X27402412Y-12479588D01*
X27469588Y-12479588D01*
X27719588Y-12479588D02*
X27719588Y-12412412D01*
X27652412Y-12412412D01*
X27652412Y-12479588D01*
X27719588Y-12479588D01*
X28743588Y-12479588D02*
X28743588Y-12412412D01*
X28676412Y-12412412D01*
X28676412Y-12479588D01*
X28743588Y-12479588D01*
X28993588Y-12479588D02*
X28993588Y-12412412D01*
X28926412Y-12412412D01*
X28926412Y-12479588D01*
X28993588Y-12479588D01*
X29243588Y-12479588D02*
X29243588Y-12412412D01*
X29176412Y-12412412D01*
X29176412Y-12479588D01*
X29243588Y-12479588D01*
X33900000Y-14128000D02*
X33950000Y-14078000D01*
X33900000Y-14028000D01*
X33850000Y-14078000D01*
X33900000Y-14128000D01*
X33950000Y-14158000D02*
X33950000Y-13998000D01*
X33950000Y-13998000D02*
G75*
G03*
X33850000Y-13998000I-50000J0D01*
G01*
X33850000Y-13998000D02*
X33850000Y-14158000D01*
X33850000Y-14158000D02*
G75*
G03*
X33950000Y-14158000I50000J0D01*
G01*
X34150000Y-12528000D02*
X34200000Y-12478000D01*
X34150000Y-12428000D01*
X34100000Y-12478000D01*
X34150000Y-12528000D01*
X34200000Y-12553000D02*
X34200000Y-12403000D01*
X34200000Y-12403000D02*
G75*
G03*
X34100000Y-12403000I-50000J0D01*
G01*
X34100000Y-12403000D02*
X34100000Y-12553000D01*
X34100000Y-12553000D02*
G75*
G03*
X34200000Y-12553000I50000J0D01*
G01*
X34400000Y-14128000D02*
X34450000Y-14078000D01*
X34400000Y-14028000D01*
X34350000Y-14078000D01*
X34400000Y-14128000D01*
X34450000Y-14158000D02*
X34450000Y-13998000D01*
X34450000Y-13998000D02*
G75*
G03*
X34350000Y-13998000I-50000J0D01*
G01*
X34350000Y-13998000D02*
X34350000Y-14158000D01*
X34350000Y-14158000D02*
G75*
G03*
X34450000Y-14158000I50000J0D01*
G01*
X36400000Y-14128000D02*
X36450000Y-14078000D01*
X36400000Y-14028000D01*
X36350000Y-14078000D01*
X36400000Y-14128000D01*
X36450000Y-14158000D02*
X36450000Y-13998000D01*
X36450000Y-13998000D02*
G75*
G03*
X36350000Y-13998000I-50000J0D01*
G01*
X36350000Y-13998000D02*
X36350000Y-14158000D01*
X36350000Y-14158000D02*
G75*
G03*
X36450000Y-14158000I50000J0D01*
G01*
X36650000Y-12528000D02*
X36700000Y-12478000D01*
X36650000Y-12428000D01*
X36600000Y-12478000D01*
X36650000Y-12528000D01*
X36700000Y-12553000D02*
X36700000Y-12403000D01*
X36700000Y-12403000D02*
G75*
G03*
X36600000Y-12403000I-50000J0D01*
G01*
X36600000Y-12403000D02*
X36600000Y-12553000D01*
X36600000Y-12553000D02*
G75*
G03*
X36700000Y-12553000I50000J0D01*
G01*
X36900000Y-14128000D02*
X36950000Y-14078000D01*
X36900000Y-14028000D01*
X36850000Y-14078000D01*
X36900000Y-14128000D01*
X36950000Y-14158000D02*
X36950000Y-13998000D01*
X36950000Y-13998000D02*
G75*
G03*
X36850000Y-13998000I-50000J0D01*
G01*
X36850000Y-13998000D02*
X36850000Y-14158000D01*
X36850000Y-14158000D02*
G75*
G03*
X36950000Y-14158000I50000J0D01*
G01*
D12*
X33789700Y-23340500D02*
X33929700Y-23480500D01*
X33929700Y-23340500D02*
X33789700Y-23480500D01*
X33929700Y-23410500D02*
G75*
G03*
X33789700Y-23410500I-70000J0D01*
G01*
X33789700Y-23410500D02*
G75*
G03*
X33929700Y-23410500I70000J0D01*
G01*
X33789700Y-24864500D02*
X33929700Y-25004500D01*
X33929700Y-24864500D02*
X33789700Y-25004500D01*
X33929700Y-24934500D02*
G75*
G03*
X33789700Y-24934500I-70000J0D01*
G01*
X33789700Y-24934500D02*
G75*
G03*
X33929700Y-24934500I70000J0D01*
G01*
X35123300Y-23340500D02*
X35263300Y-23480500D01*
X35263300Y-23340500D02*
X35123300Y-23480500D01*
X35263300Y-23410500D02*
G75*
G03*
X35123300Y-23410500I-70000J0D01*
G01*
X35123300Y-23410500D02*
G75*
G03*
X35263300Y-23410500I70000J0D01*
G01*
X35123300Y-24864500D02*
X35263300Y-25004500D01*
X35263300Y-24864500D02*
X35123300Y-25004500D01*
X35263300Y-24934500D02*
G75*
G03*
X35123300Y-24934500I-70000J0D01*
G01*
X35123300Y-24934500D02*
G75*
G03*
X35263300Y-24934500I70000J0D01*
G01*
D10*
X12055603Y-26184484D02*
X12055603Y-25984484D01*
X12055603Y-25984484D02*
X12103222Y-25984484D01*
X12103222Y-25984484D02*
X12131794Y-25994008D01*
X12131794Y-25994008D02*
X12150842Y-26013055D01*
X12150842Y-26013055D02*
X12160365Y-26032103D01*
X12160365Y-26032103D02*
X12169889Y-26070198D01*
X12169889Y-26070198D02*
X12169889Y-26098769D01*
X12169889Y-26098769D02*
X12160365Y-26136865D01*
X12160365Y-26136865D02*
X12150842Y-26155912D01*
X12150842Y-26155912D02*
X12131794Y-26174960D01*
X12131794Y-26174960D02*
X12103222Y-26184484D01*
X12103222Y-26184484D02*
X12055603Y-26184484D01*
X12255603Y-26184484D02*
X12255603Y-26051150D01*
X12255603Y-26089246D02*
X12265127Y-26070198D01*
X12265127Y-26070198D02*
X12274651Y-26060674D01*
X12274651Y-26060674D02*
X12293699Y-26051150D01*
X12293699Y-26051150D02*
X12312746Y-26051150D01*
X12379413Y-26184484D02*
X12379413Y-26051150D01*
X12379413Y-25984484D02*
X12369889Y-25994008D01*
X12369889Y-25994008D02*
X12379413Y-26003531D01*
X12379413Y-26003531D02*
X12388937Y-25994008D01*
X12388937Y-25994008D02*
X12379413Y-25984484D01*
X12379413Y-25984484D02*
X12379413Y-26003531D01*
X12503222Y-26184484D02*
X12484175Y-26174960D01*
X12484175Y-26174960D02*
X12474651Y-26155912D01*
X12474651Y-26155912D02*
X12474651Y-25984484D01*
X12607984Y-26184484D02*
X12588937Y-26174960D01*
X12588937Y-26174960D02*
X12579413Y-26155912D01*
X12579413Y-26155912D02*
X12579413Y-25984484D01*
X12836556Y-26184484D02*
X12836556Y-25984484D01*
X12836556Y-25984484D02*
X12903223Y-26127341D01*
X12903223Y-26127341D02*
X12969889Y-25984484D01*
X12969889Y-25984484D02*
X12969889Y-26184484D01*
X13150842Y-26184484D02*
X13150842Y-26079722D01*
X13150842Y-26079722D02*
X13141318Y-26060674D01*
X13141318Y-26060674D02*
X13122270Y-26051150D01*
X13122270Y-26051150D02*
X13084175Y-26051150D01*
X13084175Y-26051150D02*
X13065127Y-26060674D01*
X13150842Y-26174960D02*
X13131794Y-26184484D01*
X13131794Y-26184484D02*
X13084175Y-26184484D01*
X13084175Y-26184484D02*
X13065127Y-26174960D01*
X13065127Y-26174960D02*
X13055603Y-26155912D01*
X13055603Y-26155912D02*
X13055603Y-26136865D01*
X13055603Y-26136865D02*
X13065127Y-26117817D01*
X13065127Y-26117817D02*
X13084175Y-26108293D01*
X13084175Y-26108293D02*
X13131794Y-26108293D01*
X13131794Y-26108293D02*
X13150842Y-26098769D01*
X13246080Y-26051150D02*
X13246080Y-26251150D01*
X13246080Y-26060674D02*
X13265127Y-26051150D01*
X13265127Y-26051150D02*
X13303223Y-26051150D01*
X13303223Y-26051150D02*
X13322270Y-26060674D01*
X13322270Y-26060674D02*
X13331794Y-26070198D01*
X13331794Y-26070198D02*
X13341318Y-26089246D01*
X13341318Y-26089246D02*
X13341318Y-26146388D01*
X13341318Y-26146388D02*
X13331794Y-26165436D01*
X13331794Y-26165436D02*
X13322270Y-26174960D01*
X13322270Y-26174960D02*
X13303223Y-26184484D01*
X13303223Y-26184484D02*
X13265127Y-26184484D01*
X13265127Y-26184484D02*
X13246080Y-26174960D01*
X13427032Y-26165436D02*
X13436556Y-26174960D01*
X13436556Y-26174960D02*
X13427032Y-26184484D01*
X13427032Y-26184484D02*
X13417508Y-26174960D01*
X13417508Y-26174960D02*
X13427032Y-26165436D01*
X13427032Y-26165436D02*
X13427032Y-26184484D01*
X13427032Y-26060674D02*
X13436556Y-26070198D01*
X13436556Y-26070198D02*
X13427032Y-26079722D01*
X13427032Y-26079722D02*
X13417508Y-26070198D01*
X13417508Y-26070198D02*
X13427032Y-26060674D01*
X13427032Y-26060674D02*
X13427032Y-26079722D01*
D11*
X11754827Y-26493000D02*
X11794827Y-26533000D01*
X11794827Y-26493000D02*
X11754827Y-26533000D01*
D10*
X12093699Y-26404484D02*
X12112746Y-26404484D01*
X12112746Y-26404484D02*
X12131794Y-26414008D01*
X12131794Y-26414008D02*
X12141318Y-26423531D01*
X12141318Y-26423531D02*
X12150842Y-26442579D01*
X12150842Y-26442579D02*
X12160365Y-26480674D01*
X12160365Y-26480674D02*
X12160365Y-26528293D01*
X12160365Y-26528293D02*
X12150842Y-26566388D01*
X12150842Y-26566388D02*
X12141318Y-26585436D01*
X12141318Y-26585436D02*
X12131794Y-26594960D01*
X12131794Y-26594960D02*
X12112746Y-26604484D01*
X12112746Y-26604484D02*
X12093699Y-26604484D01*
X12093699Y-26604484D02*
X12074651Y-26594960D01*
X12074651Y-26594960D02*
X12065127Y-26585436D01*
X12065127Y-26585436D02*
X12055603Y-26566388D01*
X12055603Y-26566388D02*
X12046080Y-26528293D01*
X12046080Y-26528293D02*
X12046080Y-26480674D01*
X12046080Y-26480674D02*
X12055603Y-26442579D01*
X12055603Y-26442579D02*
X12065127Y-26423531D01*
X12065127Y-26423531D02*
X12074651Y-26414008D01*
X12074651Y-26414008D02*
X12093699Y-26404484D01*
X12246080Y-26585436D02*
X12255603Y-26594960D01*
X12255603Y-26594960D02*
X12246080Y-26604484D01*
X12246080Y-26604484D02*
X12236556Y-26594960D01*
X12236556Y-26594960D02*
X12246080Y-26585436D01*
X12246080Y-26585436D02*
X12246080Y-26604484D01*
X12427032Y-26471150D02*
X12427032Y-26604484D01*
X12379413Y-26394960D02*
X12331794Y-26537817D01*
X12331794Y-26537817D02*
X12455603Y-26537817D01*
X12569889Y-26404484D02*
X12588937Y-26404484D01*
X12588937Y-26404484D02*
X12607984Y-26414008D01*
X12607984Y-26414008D02*
X12617508Y-26423531D01*
X12617508Y-26423531D02*
X12627032Y-26442579D01*
X12627032Y-26442579D02*
X12636556Y-26480674D01*
X12636556Y-26480674D02*
X12636556Y-26528293D01*
X12636556Y-26528293D02*
X12627032Y-26566388D01*
X12627032Y-26566388D02*
X12617508Y-26585436D01*
X12617508Y-26585436D02*
X12607984Y-26594960D01*
X12607984Y-26594960D02*
X12588937Y-26604484D01*
X12588937Y-26604484D02*
X12569889Y-26604484D01*
X12569889Y-26604484D02*
X12550842Y-26594960D01*
X12550842Y-26594960D02*
X12541318Y-26585436D01*
X12541318Y-26585436D02*
X12531794Y-26566388D01*
X12531794Y-26566388D02*
X12522270Y-26528293D01*
X12522270Y-26528293D02*
X12522270Y-26480674D01*
X12522270Y-26480674D02*
X12531794Y-26442579D01*
X12531794Y-26442579D02*
X12541318Y-26423531D01*
X12541318Y-26423531D02*
X12550842Y-26414008D01*
X12550842Y-26414008D02*
X12569889Y-26404484D01*
X12760365Y-26404484D02*
X12779413Y-26404484D01*
X12779413Y-26404484D02*
X12798461Y-26414008D01*
X12798461Y-26414008D02*
X12807984Y-26423531D01*
X12807984Y-26423531D02*
X12817508Y-26442579D01*
X12817508Y-26442579D02*
X12827032Y-26480674D01*
X12827032Y-26480674D02*
X12827032Y-26528293D01*
X12827032Y-26528293D02*
X12817508Y-26566388D01*
X12817508Y-26566388D02*
X12807984Y-26585436D01*
X12807984Y-26585436D02*
X12798461Y-26594960D01*
X12798461Y-26594960D02*
X12779413Y-26604484D01*
X12779413Y-26604484D02*
X12760365Y-26604484D01*
X12760365Y-26604484D02*
X12741318Y-26594960D01*
X12741318Y-26594960D02*
X12731794Y-26585436D01*
X12731794Y-26585436D02*
X12722270Y-26566388D01*
X12722270Y-26566388D02*
X12712746Y-26528293D01*
X12712746Y-26528293D02*
X12712746Y-26480674D01*
X12712746Y-26480674D02*
X12722270Y-26442579D01*
X12722270Y-26442579D02*
X12731794Y-26423531D01*
X12731794Y-26423531D02*
X12741318Y-26414008D01*
X12741318Y-26414008D02*
X12760365Y-26404484D01*
X12912746Y-26604484D02*
X12912746Y-26471150D01*
X12912746Y-26490198D02*
X12922270Y-26480674D01*
X12922270Y-26480674D02*
X12941318Y-26471150D01*
X12941318Y-26471150D02*
X12969889Y-26471150D01*
X12969889Y-26471150D02*
X12988937Y-26480674D01*
X12988937Y-26480674D02*
X12998461Y-26499722D01*
X12998461Y-26499722D02*
X12998461Y-26604484D01*
X12998461Y-26499722D02*
X13007984Y-26480674D01*
X13007984Y-26480674D02*
X13027032Y-26471150D01*
X13027032Y-26471150D02*
X13055603Y-26471150D01*
X13055603Y-26471150D02*
X13074651Y-26480674D01*
X13074651Y-26480674D02*
X13084175Y-26499722D01*
X13084175Y-26499722D02*
X13084175Y-26604484D01*
X13179413Y-26604484D02*
X13179413Y-26471150D01*
X13179413Y-26490198D02*
X13188937Y-26480674D01*
X13188937Y-26480674D02*
X13207984Y-26471150D01*
X13207984Y-26471150D02*
X13236556Y-26471150D01*
X13236556Y-26471150D02*
X13255604Y-26480674D01*
X13255604Y-26480674D02*
X13265127Y-26499722D01*
X13265127Y-26499722D02*
X13265127Y-26604484D01*
X13265127Y-26499722D02*
X13274651Y-26480674D01*
X13274651Y-26480674D02*
X13293699Y-26471150D01*
X13293699Y-26471150D02*
X13322270Y-26471150D01*
X13322270Y-26471150D02*
X13341318Y-26480674D01*
X13341318Y-26480674D02*
X13350842Y-26499722D01*
X13350842Y-26499722D02*
X13350842Y-26604484D01*
X13741318Y-26394960D02*
X13569889Y-26652103D01*
X13998461Y-26404484D02*
X14017508Y-26404484D01*
X14017508Y-26404484D02*
X14036556Y-26414008D01*
X14036556Y-26414008D02*
X14046080Y-26423531D01*
X14046080Y-26423531D02*
X14055604Y-26442579D01*
X14055604Y-26442579D02*
X14065127Y-26480674D01*
X14065127Y-26480674D02*
X14065127Y-26528293D01*
X14065127Y-26528293D02*
X14055604Y-26566388D01*
X14055604Y-26566388D02*
X14046080Y-26585436D01*
X14046080Y-26585436D02*
X14036556Y-26594960D01*
X14036556Y-26594960D02*
X14017508Y-26604484D01*
X14017508Y-26604484D02*
X13998461Y-26604484D01*
X13998461Y-26604484D02*
X13979413Y-26594960D01*
X13979413Y-26594960D02*
X13969889Y-26585436D01*
X13969889Y-26585436D02*
X13960366Y-26566388D01*
X13960366Y-26566388D02*
X13950842Y-26528293D01*
X13950842Y-26528293D02*
X13950842Y-26480674D01*
X13950842Y-26480674D02*
X13960366Y-26442579D01*
X13960366Y-26442579D02*
X13969889Y-26423531D01*
X13969889Y-26423531D02*
X13979413Y-26414008D01*
X13979413Y-26414008D02*
X13998461Y-26404484D01*
X14150842Y-26585436D02*
X14160366Y-26594960D01*
X14160366Y-26594960D02*
X14150842Y-26604484D01*
X14150842Y-26604484D02*
X14141318Y-26594960D01*
X14141318Y-26594960D02*
X14150842Y-26585436D01*
X14150842Y-26585436D02*
X14150842Y-26604484D01*
X14284175Y-26404484D02*
X14303223Y-26404484D01*
X14303223Y-26404484D02*
X14322270Y-26414008D01*
X14322270Y-26414008D02*
X14331794Y-26423531D01*
X14331794Y-26423531D02*
X14341318Y-26442579D01*
X14341318Y-26442579D02*
X14350842Y-26480674D01*
X14350842Y-26480674D02*
X14350842Y-26528293D01*
X14350842Y-26528293D02*
X14341318Y-26566388D01*
X14341318Y-26566388D02*
X14331794Y-26585436D01*
X14331794Y-26585436D02*
X14322270Y-26594960D01*
X14322270Y-26594960D02*
X14303223Y-26604484D01*
X14303223Y-26604484D02*
X14284175Y-26604484D01*
X14284175Y-26604484D02*
X14265127Y-26594960D01*
X14265127Y-26594960D02*
X14255604Y-26585436D01*
X14255604Y-26585436D02*
X14246080Y-26566388D01*
X14246080Y-26566388D02*
X14236556Y-26528293D01*
X14236556Y-26528293D02*
X14236556Y-26480674D01*
X14236556Y-26480674D02*
X14246080Y-26442579D01*
X14246080Y-26442579D02*
X14255604Y-26423531D01*
X14255604Y-26423531D02*
X14265127Y-26414008D01*
X14265127Y-26414008D02*
X14284175Y-26404484D01*
X14541318Y-26604484D02*
X14427032Y-26604484D01*
X14484175Y-26604484D02*
X14484175Y-26404484D01*
X14484175Y-26404484D02*
X14465127Y-26433055D01*
X14465127Y-26433055D02*
X14446080Y-26452103D01*
X14446080Y-26452103D02*
X14427032Y-26461627D01*
X14722270Y-26404484D02*
X14627032Y-26404484D01*
X14627032Y-26404484D02*
X14617508Y-26499722D01*
X14617508Y-26499722D02*
X14627032Y-26490198D01*
X14627032Y-26490198D02*
X14646080Y-26480674D01*
X14646080Y-26480674D02*
X14693699Y-26480674D01*
X14693699Y-26480674D02*
X14712747Y-26490198D01*
X14712747Y-26490198D02*
X14722270Y-26499722D01*
X14722270Y-26499722D02*
X14731794Y-26518769D01*
X14731794Y-26518769D02*
X14731794Y-26566388D01*
X14731794Y-26566388D02*
X14722270Y-26585436D01*
X14722270Y-26585436D02*
X14712747Y-26594960D01*
X14712747Y-26594960D02*
X14693699Y-26604484D01*
X14693699Y-26604484D02*
X14646080Y-26604484D01*
X14646080Y-26604484D02*
X14627032Y-26594960D01*
X14627032Y-26594960D02*
X14617508Y-26585436D01*
X14798461Y-26404484D02*
X14931794Y-26404484D01*
X14931794Y-26404484D02*
X14846080Y-26604484D01*
X14998461Y-26404484D02*
X14998461Y-26442579D01*
X15074651Y-26404484D02*
X15074651Y-26442579D01*
X15369890Y-26680674D02*
X15360366Y-26671150D01*
X15360366Y-26671150D02*
X15341318Y-26642579D01*
X15341318Y-26642579D02*
X15331794Y-26623531D01*
X15331794Y-26623531D02*
X15322270Y-26594960D01*
X15322270Y-26594960D02*
X15312747Y-26547341D01*
X15312747Y-26547341D02*
X15312747Y-26509246D01*
X15312747Y-26509246D02*
X15322270Y-26461627D01*
X15322270Y-26461627D02*
X15331794Y-26433055D01*
X15331794Y-26433055D02*
X15341318Y-26414008D01*
X15341318Y-26414008D02*
X15360366Y-26385436D01*
X15360366Y-26385436D02*
X15369890Y-26375912D01*
X15550842Y-26604484D02*
X15436556Y-26604484D01*
X15493699Y-26604484D02*
X15493699Y-26404484D01*
X15493699Y-26404484D02*
X15474651Y-26433055D01*
X15474651Y-26433055D02*
X15455604Y-26452103D01*
X15455604Y-26452103D02*
X15436556Y-26461627D01*
X15627032Y-26423531D02*
X15636556Y-26414008D01*
X15636556Y-26414008D02*
X15655604Y-26404484D01*
X15655604Y-26404484D02*
X15703223Y-26404484D01*
X15703223Y-26404484D02*
X15722270Y-26414008D01*
X15722270Y-26414008D02*
X15731794Y-26423531D01*
X15731794Y-26423531D02*
X15741318Y-26442579D01*
X15741318Y-26442579D02*
X15741318Y-26461627D01*
X15741318Y-26461627D02*
X15731794Y-26490198D01*
X15731794Y-26490198D02*
X15617509Y-26604484D01*
X15617509Y-26604484D02*
X15741318Y-26604484D01*
X15931794Y-26604484D02*
X15817509Y-26604484D01*
X15874651Y-26604484D02*
X15874651Y-26404484D01*
X15874651Y-26404484D02*
X15855604Y-26433055D01*
X15855604Y-26433055D02*
X15836556Y-26452103D01*
X15836556Y-26452103D02*
X15817509Y-26461627D01*
X16169890Y-26604484D02*
X16169890Y-26404484D01*
X16255604Y-26604484D02*
X16255604Y-26499722D01*
X16255604Y-26499722D02*
X16246080Y-26480674D01*
X16246080Y-26480674D02*
X16227032Y-26471150D01*
X16227032Y-26471150D02*
X16198461Y-26471150D01*
X16198461Y-26471150D02*
X16179413Y-26480674D01*
X16179413Y-26480674D02*
X16169890Y-26490198D01*
X16379413Y-26604484D02*
X16360366Y-26594960D01*
X16360366Y-26594960D02*
X16350842Y-26585436D01*
X16350842Y-26585436D02*
X16341318Y-26566388D01*
X16341318Y-26566388D02*
X16341318Y-26509246D01*
X16341318Y-26509246D02*
X16350842Y-26490198D01*
X16350842Y-26490198D02*
X16360366Y-26480674D01*
X16360366Y-26480674D02*
X16379413Y-26471150D01*
X16379413Y-26471150D02*
X16407985Y-26471150D01*
X16407985Y-26471150D02*
X16427032Y-26480674D01*
X16427032Y-26480674D02*
X16436556Y-26490198D01*
X16436556Y-26490198D02*
X16446080Y-26509246D01*
X16446080Y-26509246D02*
X16446080Y-26566388D01*
X16446080Y-26566388D02*
X16436556Y-26585436D01*
X16436556Y-26585436D02*
X16427032Y-26594960D01*
X16427032Y-26594960D02*
X16407985Y-26604484D01*
X16407985Y-26604484D02*
X16379413Y-26604484D01*
X16560366Y-26604484D02*
X16541318Y-26594960D01*
X16541318Y-26594960D02*
X16531794Y-26575912D01*
X16531794Y-26575912D02*
X16531794Y-26404484D01*
X16712747Y-26594960D02*
X16693699Y-26604484D01*
X16693699Y-26604484D02*
X16655604Y-26604484D01*
X16655604Y-26604484D02*
X16636556Y-26594960D01*
X16636556Y-26594960D02*
X16627032Y-26575912D01*
X16627032Y-26575912D02*
X16627032Y-26499722D01*
X16627032Y-26499722D02*
X16636556Y-26480674D01*
X16636556Y-26480674D02*
X16655604Y-26471150D01*
X16655604Y-26471150D02*
X16693699Y-26471150D01*
X16693699Y-26471150D02*
X16712747Y-26480674D01*
X16712747Y-26480674D02*
X16722271Y-26499722D01*
X16722271Y-26499722D02*
X16722271Y-26518769D01*
X16722271Y-26518769D02*
X16627032Y-26537817D01*
X16798461Y-26594960D02*
X16817509Y-26604484D01*
X16817509Y-26604484D02*
X16855604Y-26604484D01*
X16855604Y-26604484D02*
X16874652Y-26594960D01*
X16874652Y-26594960D02*
X16884175Y-26575912D01*
X16884175Y-26575912D02*
X16884175Y-26566388D01*
X16884175Y-26566388D02*
X16874652Y-26547341D01*
X16874652Y-26547341D02*
X16855604Y-26537817D01*
X16855604Y-26537817D02*
X16827033Y-26537817D01*
X16827033Y-26537817D02*
X16807985Y-26528293D01*
X16807985Y-26528293D02*
X16798461Y-26509246D01*
X16798461Y-26509246D02*
X16798461Y-26499722D01*
X16798461Y-26499722D02*
X16807985Y-26480674D01*
X16807985Y-26480674D02*
X16827033Y-26471150D01*
X16827033Y-26471150D02*
X16855604Y-26471150D01*
X16855604Y-26471150D02*
X16874652Y-26480674D01*
X16950842Y-26680674D02*
X16960366Y-26671150D01*
X16960366Y-26671150D02*
X16979414Y-26642579D01*
X16979414Y-26642579D02*
X16988937Y-26623531D01*
X16988937Y-26623531D02*
X16998461Y-26594960D01*
X16998461Y-26594960D02*
X17007985Y-26547341D01*
X17007985Y-26547341D02*
X17007985Y-26509246D01*
X17007985Y-26509246D02*
X16998461Y-26461627D01*
X16998461Y-26461627D02*
X16988937Y-26433055D01*
X16988937Y-26433055D02*
X16979414Y-26414008D01*
X16979414Y-26414008D02*
X16960366Y-26385436D01*
X16960366Y-26385436D02*
X16950842Y-26375912D01*
D11*
X11794827Y-26777000D02*
G75*
G03*
X11714827Y-26777000I-40000J0D01*
G01*
X11714827Y-26777000D02*
G75*
G03*
X11794827Y-26777000I40000J0D01*
G01*
D10*
X12093699Y-26668484D02*
X12112746Y-26668484D01*
X12112746Y-26668484D02*
X12131794Y-26678008D01*
X12131794Y-26678008D02*
X12141318Y-26687531D01*
X12141318Y-26687531D02*
X12150842Y-26706579D01*
X12150842Y-26706579D02*
X12160365Y-26744674D01*
X12160365Y-26744674D02*
X12160365Y-26792293D01*
X12160365Y-26792293D02*
X12150842Y-26830388D01*
X12150842Y-26830388D02*
X12141318Y-26849436D01*
X12141318Y-26849436D02*
X12131794Y-26858960D01*
X12131794Y-26858960D02*
X12112746Y-26868484D01*
X12112746Y-26868484D02*
X12093699Y-26868484D01*
X12093699Y-26868484D02*
X12074651Y-26858960D01*
X12074651Y-26858960D02*
X12065127Y-26849436D01*
X12065127Y-26849436D02*
X12055603Y-26830388D01*
X12055603Y-26830388D02*
X12046080Y-26792293D01*
X12046080Y-26792293D02*
X12046080Y-26744674D01*
X12046080Y-26744674D02*
X12055603Y-26706579D01*
X12055603Y-26706579D02*
X12065127Y-26687531D01*
X12065127Y-26687531D02*
X12074651Y-26678008D01*
X12074651Y-26678008D02*
X12093699Y-26668484D01*
X12246080Y-26849436D02*
X12255603Y-26858960D01*
X12255603Y-26858960D02*
X12246080Y-26868484D01*
X12246080Y-26868484D02*
X12236556Y-26858960D01*
X12236556Y-26858960D02*
X12246080Y-26849436D01*
X12246080Y-26849436D02*
X12246080Y-26868484D01*
X12369889Y-26754198D02*
X12350842Y-26744674D01*
X12350842Y-26744674D02*
X12341318Y-26735150D01*
X12341318Y-26735150D02*
X12331794Y-26716103D01*
X12331794Y-26716103D02*
X12331794Y-26706579D01*
X12331794Y-26706579D02*
X12341318Y-26687531D01*
X12341318Y-26687531D02*
X12350842Y-26678008D01*
X12350842Y-26678008D02*
X12369889Y-26668484D01*
X12369889Y-26668484D02*
X12407984Y-26668484D01*
X12407984Y-26668484D02*
X12427032Y-26678008D01*
X12427032Y-26678008D02*
X12436556Y-26687531D01*
X12436556Y-26687531D02*
X12446080Y-26706579D01*
X12446080Y-26706579D02*
X12446080Y-26716103D01*
X12446080Y-26716103D02*
X12436556Y-26735150D01*
X12436556Y-26735150D02*
X12427032Y-26744674D01*
X12427032Y-26744674D02*
X12407984Y-26754198D01*
X12407984Y-26754198D02*
X12369889Y-26754198D01*
X12369889Y-26754198D02*
X12350842Y-26763722D01*
X12350842Y-26763722D02*
X12341318Y-26773246D01*
X12341318Y-26773246D02*
X12331794Y-26792293D01*
X12331794Y-26792293D02*
X12331794Y-26830388D01*
X12331794Y-26830388D02*
X12341318Y-26849436D01*
X12341318Y-26849436D02*
X12350842Y-26858960D01*
X12350842Y-26858960D02*
X12369889Y-26868484D01*
X12369889Y-26868484D02*
X12407984Y-26868484D01*
X12407984Y-26868484D02*
X12427032Y-26858960D01*
X12427032Y-26858960D02*
X12436556Y-26849436D01*
X12436556Y-26849436D02*
X12446080Y-26830388D01*
X12446080Y-26830388D02*
X12446080Y-26792293D01*
X12446080Y-26792293D02*
X12436556Y-26773246D01*
X12436556Y-26773246D02*
X12427032Y-26763722D01*
X12427032Y-26763722D02*
X12407984Y-26754198D01*
X12569889Y-26668484D02*
X12588937Y-26668484D01*
X12588937Y-26668484D02*
X12607984Y-26678008D01*
X12607984Y-26678008D02*
X12617508Y-26687531D01*
X12617508Y-26687531D02*
X12627032Y-26706579D01*
X12627032Y-26706579D02*
X12636556Y-26744674D01*
X12636556Y-26744674D02*
X12636556Y-26792293D01*
X12636556Y-26792293D02*
X12627032Y-26830388D01*
X12627032Y-26830388D02*
X12617508Y-26849436D01*
X12617508Y-26849436D02*
X12607984Y-26858960D01*
X12607984Y-26858960D02*
X12588937Y-26868484D01*
X12588937Y-26868484D02*
X12569889Y-26868484D01*
X12569889Y-26868484D02*
X12550842Y-26858960D01*
X12550842Y-26858960D02*
X12541318Y-26849436D01*
X12541318Y-26849436D02*
X12531794Y-26830388D01*
X12531794Y-26830388D02*
X12522270Y-26792293D01*
X12522270Y-26792293D02*
X12522270Y-26744674D01*
X12522270Y-26744674D02*
X12531794Y-26706579D01*
X12531794Y-26706579D02*
X12541318Y-26687531D01*
X12541318Y-26687531D02*
X12550842Y-26678008D01*
X12550842Y-26678008D02*
X12569889Y-26668484D01*
X12760365Y-26668484D02*
X12779413Y-26668484D01*
X12779413Y-26668484D02*
X12798461Y-26678008D01*
X12798461Y-26678008D02*
X12807984Y-26687531D01*
X12807984Y-26687531D02*
X12817508Y-26706579D01*
X12817508Y-26706579D02*
X12827032Y-26744674D01*
X12827032Y-26744674D02*
X12827032Y-26792293D01*
X12827032Y-26792293D02*
X12817508Y-26830388D01*
X12817508Y-26830388D02*
X12807984Y-26849436D01*
X12807984Y-26849436D02*
X12798461Y-26858960D01*
X12798461Y-26858960D02*
X12779413Y-26868484D01*
X12779413Y-26868484D02*
X12760365Y-26868484D01*
X12760365Y-26868484D02*
X12741318Y-26858960D01*
X12741318Y-26858960D02*
X12731794Y-26849436D01*
X12731794Y-26849436D02*
X12722270Y-26830388D01*
X12722270Y-26830388D02*
X12712746Y-26792293D01*
X12712746Y-26792293D02*
X12712746Y-26744674D01*
X12712746Y-26744674D02*
X12722270Y-26706579D01*
X12722270Y-26706579D02*
X12731794Y-26687531D01*
X12731794Y-26687531D02*
X12741318Y-26678008D01*
X12741318Y-26678008D02*
X12760365Y-26668484D01*
X12912746Y-26868484D02*
X12912746Y-26735150D01*
X12912746Y-26754198D02*
X12922270Y-26744674D01*
X12922270Y-26744674D02*
X12941318Y-26735150D01*
X12941318Y-26735150D02*
X12969889Y-26735150D01*
X12969889Y-26735150D02*
X12988937Y-26744674D01*
X12988937Y-26744674D02*
X12998461Y-26763722D01*
X12998461Y-26763722D02*
X12998461Y-26868484D01*
X12998461Y-26763722D02*
X13007984Y-26744674D01*
X13007984Y-26744674D02*
X13027032Y-26735150D01*
X13027032Y-26735150D02*
X13055603Y-26735150D01*
X13055603Y-26735150D02*
X13074651Y-26744674D01*
X13074651Y-26744674D02*
X13084175Y-26763722D01*
X13084175Y-26763722D02*
X13084175Y-26868484D01*
X13179413Y-26868484D02*
X13179413Y-26735150D01*
X13179413Y-26754198D02*
X13188937Y-26744674D01*
X13188937Y-26744674D02*
X13207984Y-26735150D01*
X13207984Y-26735150D02*
X13236556Y-26735150D01*
X13236556Y-26735150D02*
X13255604Y-26744674D01*
X13255604Y-26744674D02*
X13265127Y-26763722D01*
X13265127Y-26763722D02*
X13265127Y-26868484D01*
X13265127Y-26763722D02*
X13274651Y-26744674D01*
X13274651Y-26744674D02*
X13293699Y-26735150D01*
X13293699Y-26735150D02*
X13322270Y-26735150D01*
X13322270Y-26735150D02*
X13341318Y-26744674D01*
X13341318Y-26744674D02*
X13350842Y-26763722D01*
X13350842Y-26763722D02*
X13350842Y-26868484D01*
X13741318Y-26658960D02*
X13569889Y-26916103D01*
X13998461Y-26668484D02*
X14017508Y-26668484D01*
X14017508Y-26668484D02*
X14036556Y-26678008D01*
X14036556Y-26678008D02*
X14046080Y-26687531D01*
X14046080Y-26687531D02*
X14055604Y-26706579D01*
X14055604Y-26706579D02*
X14065127Y-26744674D01*
X14065127Y-26744674D02*
X14065127Y-26792293D01*
X14065127Y-26792293D02*
X14055604Y-26830388D01*
X14055604Y-26830388D02*
X14046080Y-26849436D01*
X14046080Y-26849436D02*
X14036556Y-26858960D01*
X14036556Y-26858960D02*
X14017508Y-26868484D01*
X14017508Y-26868484D02*
X13998461Y-26868484D01*
X13998461Y-26868484D02*
X13979413Y-26858960D01*
X13979413Y-26858960D02*
X13969889Y-26849436D01*
X13969889Y-26849436D02*
X13960366Y-26830388D01*
X13960366Y-26830388D02*
X13950842Y-26792293D01*
X13950842Y-26792293D02*
X13950842Y-26744674D01*
X13950842Y-26744674D02*
X13960366Y-26706579D01*
X13960366Y-26706579D02*
X13969889Y-26687531D01*
X13969889Y-26687531D02*
X13979413Y-26678008D01*
X13979413Y-26678008D02*
X13998461Y-26668484D01*
X14150842Y-26849436D02*
X14160366Y-26858960D01*
X14160366Y-26858960D02*
X14150842Y-26868484D01*
X14150842Y-26868484D02*
X14141318Y-26858960D01*
X14141318Y-26858960D02*
X14150842Y-26849436D01*
X14150842Y-26849436D02*
X14150842Y-26868484D01*
X14284175Y-26668484D02*
X14303223Y-26668484D01*
X14303223Y-26668484D02*
X14322270Y-26678008D01*
X14322270Y-26678008D02*
X14331794Y-26687531D01*
X14331794Y-26687531D02*
X14341318Y-26706579D01*
X14341318Y-26706579D02*
X14350842Y-26744674D01*
X14350842Y-26744674D02*
X14350842Y-26792293D01*
X14350842Y-26792293D02*
X14341318Y-26830388D01*
X14341318Y-26830388D02*
X14331794Y-26849436D01*
X14331794Y-26849436D02*
X14322270Y-26858960D01*
X14322270Y-26858960D02*
X14303223Y-26868484D01*
X14303223Y-26868484D02*
X14284175Y-26868484D01*
X14284175Y-26868484D02*
X14265127Y-26858960D01*
X14265127Y-26858960D02*
X14255604Y-26849436D01*
X14255604Y-26849436D02*
X14246080Y-26830388D01*
X14246080Y-26830388D02*
X14236556Y-26792293D01*
X14236556Y-26792293D02*
X14236556Y-26744674D01*
X14236556Y-26744674D02*
X14246080Y-26706579D01*
X14246080Y-26706579D02*
X14255604Y-26687531D01*
X14255604Y-26687531D02*
X14265127Y-26678008D01*
X14265127Y-26678008D02*
X14284175Y-26668484D01*
X14417508Y-26668484D02*
X14541318Y-26668484D01*
X14541318Y-26668484D02*
X14474651Y-26744674D01*
X14474651Y-26744674D02*
X14503223Y-26744674D01*
X14503223Y-26744674D02*
X14522270Y-26754198D01*
X14522270Y-26754198D02*
X14531794Y-26763722D01*
X14531794Y-26763722D02*
X14541318Y-26782769D01*
X14541318Y-26782769D02*
X14541318Y-26830388D01*
X14541318Y-26830388D02*
X14531794Y-26849436D01*
X14531794Y-26849436D02*
X14522270Y-26858960D01*
X14522270Y-26858960D02*
X14503223Y-26868484D01*
X14503223Y-26868484D02*
X14446080Y-26868484D01*
X14446080Y-26868484D02*
X14427032Y-26858960D01*
X14427032Y-26858960D02*
X14417508Y-26849436D01*
X14731794Y-26868484D02*
X14617508Y-26868484D01*
X14674651Y-26868484D02*
X14674651Y-26668484D01*
X14674651Y-26668484D02*
X14655604Y-26697055D01*
X14655604Y-26697055D02*
X14636556Y-26716103D01*
X14636556Y-26716103D02*
X14617508Y-26725627D01*
X14912747Y-26668484D02*
X14817508Y-26668484D01*
X14817508Y-26668484D02*
X14807985Y-26763722D01*
X14807985Y-26763722D02*
X14817508Y-26754198D01*
X14817508Y-26754198D02*
X14836556Y-26744674D01*
X14836556Y-26744674D02*
X14884175Y-26744674D01*
X14884175Y-26744674D02*
X14903223Y-26754198D01*
X14903223Y-26754198D02*
X14912747Y-26763722D01*
X14912747Y-26763722D02*
X14922270Y-26782769D01*
X14922270Y-26782769D02*
X14922270Y-26830388D01*
X14922270Y-26830388D02*
X14912747Y-26849436D01*
X14912747Y-26849436D02*
X14903223Y-26858960D01*
X14903223Y-26858960D02*
X14884175Y-26868484D01*
X14884175Y-26868484D02*
X14836556Y-26868484D01*
X14836556Y-26868484D02*
X14817508Y-26858960D01*
X14817508Y-26858960D02*
X14807985Y-26849436D01*
X14998461Y-26668484D02*
X14998461Y-26706579D01*
X15074651Y-26668484D02*
X15074651Y-26706579D01*
X15369890Y-26944674D02*
X15360366Y-26935150D01*
X15360366Y-26935150D02*
X15341318Y-26906579D01*
X15341318Y-26906579D02*
X15331794Y-26887531D01*
X15331794Y-26887531D02*
X15322270Y-26858960D01*
X15322270Y-26858960D02*
X15312747Y-26811341D01*
X15312747Y-26811341D02*
X15312747Y-26773246D01*
X15312747Y-26773246D02*
X15322270Y-26725627D01*
X15322270Y-26725627D02*
X15331794Y-26697055D01*
X15331794Y-26697055D02*
X15341318Y-26678008D01*
X15341318Y-26678008D02*
X15360366Y-26649436D01*
X15360366Y-26649436D02*
X15369890Y-26639912D01*
X15436556Y-26687531D02*
X15446080Y-26678008D01*
X15446080Y-26678008D02*
X15465128Y-26668484D01*
X15465128Y-26668484D02*
X15512747Y-26668484D01*
X15512747Y-26668484D02*
X15531794Y-26678008D01*
X15531794Y-26678008D02*
X15541318Y-26687531D01*
X15541318Y-26687531D02*
X15550842Y-26706579D01*
X15550842Y-26706579D02*
X15550842Y-26725627D01*
X15550842Y-26725627D02*
X15541318Y-26754198D01*
X15541318Y-26754198D02*
X15427032Y-26868484D01*
X15427032Y-26868484D02*
X15550842Y-26868484D01*
X15665128Y-26754198D02*
X15646080Y-26744674D01*
X15646080Y-26744674D02*
X15636556Y-26735150D01*
X15636556Y-26735150D02*
X15627032Y-26716103D01*
X15627032Y-26716103D02*
X15627032Y-26706579D01*
X15627032Y-26706579D02*
X15636556Y-26687531D01*
X15636556Y-26687531D02*
X15646080Y-26678008D01*
X15646080Y-26678008D02*
X15665128Y-26668484D01*
X15665128Y-26668484D02*
X15703223Y-26668484D01*
X15703223Y-26668484D02*
X15722270Y-26678008D01*
X15722270Y-26678008D02*
X15731794Y-26687531D01*
X15731794Y-26687531D02*
X15741318Y-26706579D01*
X15741318Y-26706579D02*
X15741318Y-26716103D01*
X15741318Y-26716103D02*
X15731794Y-26735150D01*
X15731794Y-26735150D02*
X15722270Y-26744674D01*
X15722270Y-26744674D02*
X15703223Y-26754198D01*
X15703223Y-26754198D02*
X15665128Y-26754198D01*
X15665128Y-26754198D02*
X15646080Y-26763722D01*
X15646080Y-26763722D02*
X15636556Y-26773246D01*
X15636556Y-26773246D02*
X15627032Y-26792293D01*
X15627032Y-26792293D02*
X15627032Y-26830388D01*
X15627032Y-26830388D02*
X15636556Y-26849436D01*
X15636556Y-26849436D02*
X15646080Y-26858960D01*
X15646080Y-26858960D02*
X15665128Y-26868484D01*
X15665128Y-26868484D02*
X15703223Y-26868484D01*
X15703223Y-26868484D02*
X15722270Y-26858960D01*
X15722270Y-26858960D02*
X15731794Y-26849436D01*
X15731794Y-26849436D02*
X15741318Y-26830388D01*
X15741318Y-26830388D02*
X15741318Y-26792293D01*
X15741318Y-26792293D02*
X15731794Y-26773246D01*
X15731794Y-26773246D02*
X15722270Y-26763722D01*
X15722270Y-26763722D02*
X15703223Y-26754198D01*
X15979413Y-26868484D02*
X15979413Y-26668484D01*
X16065128Y-26868484D02*
X16065128Y-26763722D01*
X16065128Y-26763722D02*
X16055604Y-26744674D01*
X16055604Y-26744674D02*
X16036556Y-26735150D01*
X16036556Y-26735150D02*
X16007985Y-26735150D01*
X16007985Y-26735150D02*
X15988937Y-26744674D01*
X15988937Y-26744674D02*
X15979413Y-26754198D01*
X16188937Y-26868484D02*
X16169890Y-26858960D01*
X16169890Y-26858960D02*
X16160366Y-26849436D01*
X16160366Y-26849436D02*
X16150842Y-26830388D01*
X16150842Y-26830388D02*
X16150842Y-26773246D01*
X16150842Y-26773246D02*
X16160366Y-26754198D01*
X16160366Y-26754198D02*
X16169890Y-26744674D01*
X16169890Y-26744674D02*
X16188937Y-26735150D01*
X16188937Y-26735150D02*
X16217509Y-26735150D01*
X16217509Y-26735150D02*
X16236556Y-26744674D01*
X16236556Y-26744674D02*
X16246080Y-26754198D01*
X16246080Y-26754198D02*
X16255604Y-26773246D01*
X16255604Y-26773246D02*
X16255604Y-26830388D01*
X16255604Y-26830388D02*
X16246080Y-26849436D01*
X16246080Y-26849436D02*
X16236556Y-26858960D01*
X16236556Y-26858960D02*
X16217509Y-26868484D01*
X16217509Y-26868484D02*
X16188937Y-26868484D01*
X16369890Y-26868484D02*
X16350842Y-26858960D01*
X16350842Y-26858960D02*
X16341318Y-26839912D01*
X16341318Y-26839912D02*
X16341318Y-26668484D01*
X16522271Y-26858960D02*
X16503223Y-26868484D01*
X16503223Y-26868484D02*
X16465128Y-26868484D01*
X16465128Y-26868484D02*
X16446080Y-26858960D01*
X16446080Y-26858960D02*
X16436556Y-26839912D01*
X16436556Y-26839912D02*
X16436556Y-26763722D01*
X16436556Y-26763722D02*
X16446080Y-26744674D01*
X16446080Y-26744674D02*
X16465128Y-26735150D01*
X16465128Y-26735150D02*
X16503223Y-26735150D01*
X16503223Y-26735150D02*
X16522271Y-26744674D01*
X16522271Y-26744674D02*
X16531794Y-26763722D01*
X16531794Y-26763722D02*
X16531794Y-26782769D01*
X16531794Y-26782769D02*
X16436556Y-26801817D01*
X16607985Y-26858960D02*
X16627032Y-26868484D01*
X16627032Y-26868484D02*
X16665128Y-26868484D01*
X16665128Y-26868484D02*
X16684175Y-26858960D01*
X16684175Y-26858960D02*
X16693699Y-26839912D01*
X16693699Y-26839912D02*
X16693699Y-26830388D01*
X16693699Y-26830388D02*
X16684175Y-26811341D01*
X16684175Y-26811341D02*
X16665128Y-26801817D01*
X16665128Y-26801817D02*
X16636556Y-26801817D01*
X16636556Y-26801817D02*
X16617509Y-26792293D01*
X16617509Y-26792293D02*
X16607985Y-26773246D01*
X16607985Y-26773246D02*
X16607985Y-26763722D01*
X16607985Y-26763722D02*
X16617509Y-26744674D01*
X16617509Y-26744674D02*
X16636556Y-26735150D01*
X16636556Y-26735150D02*
X16665128Y-26735150D01*
X16665128Y-26735150D02*
X16684175Y-26744674D01*
X16760366Y-26944674D02*
X16769890Y-26935150D01*
X16769890Y-26935150D02*
X16788937Y-26906579D01*
X16788937Y-26906579D02*
X16798461Y-26887531D01*
X16798461Y-26887531D02*
X16807985Y-26858960D01*
X16807985Y-26858960D02*
X16817509Y-26811341D01*
X16817509Y-26811341D02*
X16817509Y-26773246D01*
X16817509Y-26773246D02*
X16807985Y-26725627D01*
X16807985Y-26725627D02*
X16798461Y-26697055D01*
X16798461Y-26697055D02*
X16788937Y-26678008D01*
X16788937Y-26678008D02*
X16769890Y-26649436D01*
X16769890Y-26649436D02*
X16760366Y-26639912D01*
D11*
X11750377Y-26996550D02*
X11750377Y-27085450D01*
X11705927Y-27041000D02*
X11794827Y-27041000D01*
D10*
X12093699Y-26932484D02*
X12112746Y-26932484D01*
X12112746Y-26932484D02*
X12131794Y-26942008D01*
X12131794Y-26942008D02*
X12141318Y-26951531D01*
X12141318Y-26951531D02*
X12150842Y-26970579D01*
X12150842Y-26970579D02*
X12160365Y-27008674D01*
X12160365Y-27008674D02*
X12160365Y-27056293D01*
X12160365Y-27056293D02*
X12150842Y-27094388D01*
X12150842Y-27094388D02*
X12141318Y-27113436D01*
X12141318Y-27113436D02*
X12131794Y-27122960D01*
X12131794Y-27122960D02*
X12112746Y-27132484D01*
X12112746Y-27132484D02*
X12093699Y-27132484D01*
X12093699Y-27132484D02*
X12074651Y-27122960D01*
X12074651Y-27122960D02*
X12065127Y-27113436D01*
X12065127Y-27113436D02*
X12055603Y-27094388D01*
X12055603Y-27094388D02*
X12046080Y-27056293D01*
X12046080Y-27056293D02*
X12046080Y-27008674D01*
X12046080Y-27008674D02*
X12055603Y-26970579D01*
X12055603Y-26970579D02*
X12065127Y-26951531D01*
X12065127Y-26951531D02*
X12074651Y-26942008D01*
X12074651Y-26942008D02*
X12093699Y-26932484D01*
X12246080Y-27113436D02*
X12255603Y-27122960D01*
X12255603Y-27122960D02*
X12246080Y-27132484D01*
X12246080Y-27132484D02*
X12236556Y-27122960D01*
X12236556Y-27122960D02*
X12246080Y-27113436D01*
X12246080Y-27113436D02*
X12246080Y-27132484D01*
X12369889Y-27018198D02*
X12350842Y-27008674D01*
X12350842Y-27008674D02*
X12341318Y-26999150D01*
X12341318Y-26999150D02*
X12331794Y-26980103D01*
X12331794Y-26980103D02*
X12331794Y-26970579D01*
X12331794Y-26970579D02*
X12341318Y-26951531D01*
X12341318Y-26951531D02*
X12350842Y-26942008D01*
X12350842Y-26942008D02*
X12369889Y-26932484D01*
X12369889Y-26932484D02*
X12407984Y-26932484D01*
X12407984Y-26932484D02*
X12427032Y-26942008D01*
X12427032Y-26942008D02*
X12436556Y-26951531D01*
X12436556Y-26951531D02*
X12446080Y-26970579D01*
X12446080Y-26970579D02*
X12446080Y-26980103D01*
X12446080Y-26980103D02*
X12436556Y-26999150D01*
X12436556Y-26999150D02*
X12427032Y-27008674D01*
X12427032Y-27008674D02*
X12407984Y-27018198D01*
X12407984Y-27018198D02*
X12369889Y-27018198D01*
X12369889Y-27018198D02*
X12350842Y-27027722D01*
X12350842Y-27027722D02*
X12341318Y-27037246D01*
X12341318Y-27037246D02*
X12331794Y-27056293D01*
X12331794Y-27056293D02*
X12331794Y-27094388D01*
X12331794Y-27094388D02*
X12341318Y-27113436D01*
X12341318Y-27113436D02*
X12350842Y-27122960D01*
X12350842Y-27122960D02*
X12369889Y-27132484D01*
X12369889Y-27132484D02*
X12407984Y-27132484D01*
X12407984Y-27132484D02*
X12427032Y-27122960D01*
X12427032Y-27122960D02*
X12436556Y-27113436D01*
X12436556Y-27113436D02*
X12446080Y-27094388D01*
X12446080Y-27094388D02*
X12446080Y-27056293D01*
X12446080Y-27056293D02*
X12436556Y-27037246D01*
X12436556Y-27037246D02*
X12427032Y-27027722D01*
X12427032Y-27027722D02*
X12407984Y-27018198D01*
X12560365Y-27018198D02*
X12541318Y-27008674D01*
X12541318Y-27008674D02*
X12531794Y-26999150D01*
X12531794Y-26999150D02*
X12522270Y-26980103D01*
X12522270Y-26980103D02*
X12522270Y-26970579D01*
X12522270Y-26970579D02*
X12531794Y-26951531D01*
X12531794Y-26951531D02*
X12541318Y-26942008D01*
X12541318Y-26942008D02*
X12560365Y-26932484D01*
X12560365Y-26932484D02*
X12598461Y-26932484D01*
X12598461Y-26932484D02*
X12617508Y-26942008D01*
X12617508Y-26942008D02*
X12627032Y-26951531D01*
X12627032Y-26951531D02*
X12636556Y-26970579D01*
X12636556Y-26970579D02*
X12636556Y-26980103D01*
X12636556Y-26980103D02*
X12627032Y-26999150D01*
X12627032Y-26999150D02*
X12617508Y-27008674D01*
X12617508Y-27008674D02*
X12598461Y-27018198D01*
X12598461Y-27018198D02*
X12560365Y-27018198D01*
X12560365Y-27018198D02*
X12541318Y-27027722D01*
X12541318Y-27027722D02*
X12531794Y-27037246D01*
X12531794Y-27037246D02*
X12522270Y-27056293D01*
X12522270Y-27056293D02*
X12522270Y-27094388D01*
X12522270Y-27094388D02*
X12531794Y-27113436D01*
X12531794Y-27113436D02*
X12541318Y-27122960D01*
X12541318Y-27122960D02*
X12560365Y-27132484D01*
X12560365Y-27132484D02*
X12598461Y-27132484D01*
X12598461Y-27132484D02*
X12617508Y-27122960D01*
X12617508Y-27122960D02*
X12627032Y-27113436D01*
X12627032Y-27113436D02*
X12636556Y-27094388D01*
X12636556Y-27094388D02*
X12636556Y-27056293D01*
X12636556Y-27056293D02*
X12627032Y-27037246D01*
X12627032Y-27037246D02*
X12617508Y-27027722D01*
X12617508Y-27027722D02*
X12598461Y-27018198D01*
X12731794Y-27132484D02*
X12769889Y-27132484D01*
X12769889Y-27132484D02*
X12788937Y-27122960D01*
X12788937Y-27122960D02*
X12798461Y-27113436D01*
X12798461Y-27113436D02*
X12817508Y-27084865D01*
X12817508Y-27084865D02*
X12827032Y-27046769D01*
X12827032Y-27046769D02*
X12827032Y-26970579D01*
X12827032Y-26970579D02*
X12817508Y-26951531D01*
X12817508Y-26951531D02*
X12807984Y-26942008D01*
X12807984Y-26942008D02*
X12788937Y-26932484D01*
X12788937Y-26932484D02*
X12750842Y-26932484D01*
X12750842Y-26932484D02*
X12731794Y-26942008D01*
X12731794Y-26942008D02*
X12722270Y-26951531D01*
X12722270Y-26951531D02*
X12712746Y-26970579D01*
X12712746Y-26970579D02*
X12712746Y-27018198D01*
X12712746Y-27018198D02*
X12722270Y-27037246D01*
X12722270Y-27037246D02*
X12731794Y-27046769D01*
X12731794Y-27046769D02*
X12750842Y-27056293D01*
X12750842Y-27056293D02*
X12788937Y-27056293D01*
X12788937Y-27056293D02*
X12807984Y-27046769D01*
X12807984Y-27046769D02*
X12817508Y-27037246D01*
X12817508Y-27037246D02*
X12827032Y-27018198D01*
X12912746Y-27132484D02*
X12912746Y-26999150D01*
X12912746Y-27018198D02*
X12922270Y-27008674D01*
X12922270Y-27008674D02*
X12941318Y-26999150D01*
X12941318Y-26999150D02*
X12969889Y-26999150D01*
X12969889Y-26999150D02*
X12988937Y-27008674D01*
X12988937Y-27008674D02*
X12998461Y-27027722D01*
X12998461Y-27027722D02*
X12998461Y-27132484D01*
X12998461Y-27027722D02*
X13007984Y-27008674D01*
X13007984Y-27008674D02*
X13027032Y-26999150D01*
X13027032Y-26999150D02*
X13055603Y-26999150D01*
X13055603Y-26999150D02*
X13074651Y-27008674D01*
X13074651Y-27008674D02*
X13084175Y-27027722D01*
X13084175Y-27027722D02*
X13084175Y-27132484D01*
X13179413Y-27132484D02*
X13179413Y-26999150D01*
X13179413Y-27018198D02*
X13188937Y-27008674D01*
X13188937Y-27008674D02*
X13207984Y-26999150D01*
X13207984Y-26999150D02*
X13236556Y-26999150D01*
X13236556Y-26999150D02*
X13255604Y-27008674D01*
X13255604Y-27008674D02*
X13265127Y-27027722D01*
X13265127Y-27027722D02*
X13265127Y-27132484D01*
X13265127Y-27027722D02*
X13274651Y-27008674D01*
X13274651Y-27008674D02*
X13293699Y-26999150D01*
X13293699Y-26999150D02*
X13322270Y-26999150D01*
X13322270Y-26999150D02*
X13341318Y-27008674D01*
X13341318Y-27008674D02*
X13350842Y-27027722D01*
X13350842Y-27027722D02*
X13350842Y-27132484D01*
X13741318Y-26922960D02*
X13569889Y-27180103D01*
X13998461Y-26932484D02*
X14017508Y-26932484D01*
X14017508Y-26932484D02*
X14036556Y-26942008D01*
X14036556Y-26942008D02*
X14046080Y-26951531D01*
X14046080Y-26951531D02*
X14055604Y-26970579D01*
X14055604Y-26970579D02*
X14065127Y-27008674D01*
X14065127Y-27008674D02*
X14065127Y-27056293D01*
X14065127Y-27056293D02*
X14055604Y-27094388D01*
X14055604Y-27094388D02*
X14046080Y-27113436D01*
X14046080Y-27113436D02*
X14036556Y-27122960D01*
X14036556Y-27122960D02*
X14017508Y-27132484D01*
X14017508Y-27132484D02*
X13998461Y-27132484D01*
X13998461Y-27132484D02*
X13979413Y-27122960D01*
X13979413Y-27122960D02*
X13969889Y-27113436D01*
X13969889Y-27113436D02*
X13960366Y-27094388D01*
X13960366Y-27094388D02*
X13950842Y-27056293D01*
X13950842Y-27056293D02*
X13950842Y-27008674D01*
X13950842Y-27008674D02*
X13960366Y-26970579D01*
X13960366Y-26970579D02*
X13969889Y-26951531D01*
X13969889Y-26951531D02*
X13979413Y-26942008D01*
X13979413Y-26942008D02*
X13998461Y-26932484D01*
X14150842Y-27113436D02*
X14160366Y-27122960D01*
X14160366Y-27122960D02*
X14150842Y-27132484D01*
X14150842Y-27132484D02*
X14141318Y-27122960D01*
X14141318Y-27122960D02*
X14150842Y-27113436D01*
X14150842Y-27113436D02*
X14150842Y-27132484D01*
X14284175Y-26932484D02*
X14303223Y-26932484D01*
X14303223Y-26932484D02*
X14322270Y-26942008D01*
X14322270Y-26942008D02*
X14331794Y-26951531D01*
X14331794Y-26951531D02*
X14341318Y-26970579D01*
X14341318Y-26970579D02*
X14350842Y-27008674D01*
X14350842Y-27008674D02*
X14350842Y-27056293D01*
X14350842Y-27056293D02*
X14341318Y-27094388D01*
X14341318Y-27094388D02*
X14331794Y-27113436D01*
X14331794Y-27113436D02*
X14322270Y-27122960D01*
X14322270Y-27122960D02*
X14303223Y-27132484D01*
X14303223Y-27132484D02*
X14284175Y-27132484D01*
X14284175Y-27132484D02*
X14265127Y-27122960D01*
X14265127Y-27122960D02*
X14255604Y-27113436D01*
X14255604Y-27113436D02*
X14246080Y-27094388D01*
X14246080Y-27094388D02*
X14236556Y-27056293D01*
X14236556Y-27056293D02*
X14236556Y-27008674D01*
X14236556Y-27008674D02*
X14246080Y-26970579D01*
X14246080Y-26970579D02*
X14255604Y-26951531D01*
X14255604Y-26951531D02*
X14265127Y-26942008D01*
X14265127Y-26942008D02*
X14284175Y-26932484D01*
X14417508Y-26932484D02*
X14541318Y-26932484D01*
X14541318Y-26932484D02*
X14474651Y-27008674D01*
X14474651Y-27008674D02*
X14503223Y-27008674D01*
X14503223Y-27008674D02*
X14522270Y-27018198D01*
X14522270Y-27018198D02*
X14531794Y-27027722D01*
X14531794Y-27027722D02*
X14541318Y-27046769D01*
X14541318Y-27046769D02*
X14541318Y-27094388D01*
X14541318Y-27094388D02*
X14531794Y-27113436D01*
X14531794Y-27113436D02*
X14522270Y-27122960D01*
X14522270Y-27122960D02*
X14503223Y-27132484D01*
X14503223Y-27132484D02*
X14446080Y-27132484D01*
X14446080Y-27132484D02*
X14427032Y-27122960D01*
X14427032Y-27122960D02*
X14417508Y-27113436D01*
X14722270Y-26932484D02*
X14627032Y-26932484D01*
X14627032Y-26932484D02*
X14617508Y-27027722D01*
X14617508Y-27027722D02*
X14627032Y-27018198D01*
X14627032Y-27018198D02*
X14646080Y-27008674D01*
X14646080Y-27008674D02*
X14693699Y-27008674D01*
X14693699Y-27008674D02*
X14712747Y-27018198D01*
X14712747Y-27018198D02*
X14722270Y-27027722D01*
X14722270Y-27027722D02*
X14731794Y-27046769D01*
X14731794Y-27046769D02*
X14731794Y-27094388D01*
X14731794Y-27094388D02*
X14722270Y-27113436D01*
X14722270Y-27113436D02*
X14712747Y-27122960D01*
X14712747Y-27122960D02*
X14693699Y-27132484D01*
X14693699Y-27132484D02*
X14646080Y-27132484D01*
X14646080Y-27132484D02*
X14627032Y-27122960D01*
X14627032Y-27122960D02*
X14617508Y-27113436D01*
X14855604Y-26932484D02*
X14874651Y-26932484D01*
X14874651Y-26932484D02*
X14893699Y-26942008D01*
X14893699Y-26942008D02*
X14903223Y-26951531D01*
X14903223Y-26951531D02*
X14912747Y-26970579D01*
X14912747Y-26970579D02*
X14922270Y-27008674D01*
X14922270Y-27008674D02*
X14922270Y-27056293D01*
X14922270Y-27056293D02*
X14912747Y-27094388D01*
X14912747Y-27094388D02*
X14903223Y-27113436D01*
X14903223Y-27113436D02*
X14893699Y-27122960D01*
X14893699Y-27122960D02*
X14874651Y-27132484D01*
X14874651Y-27132484D02*
X14855604Y-27132484D01*
X14855604Y-27132484D02*
X14836556Y-27122960D01*
X14836556Y-27122960D02*
X14827032Y-27113436D01*
X14827032Y-27113436D02*
X14817508Y-27094388D01*
X14817508Y-27094388D02*
X14807985Y-27056293D01*
X14807985Y-27056293D02*
X14807985Y-27008674D01*
X14807985Y-27008674D02*
X14817508Y-26970579D01*
X14817508Y-26970579D02*
X14827032Y-26951531D01*
X14827032Y-26951531D02*
X14836556Y-26942008D01*
X14836556Y-26942008D02*
X14855604Y-26932484D01*
X14998461Y-26932484D02*
X14998461Y-26970579D01*
X15074651Y-26932484D02*
X15074651Y-26970579D01*
X15369890Y-27208674D02*
X15360366Y-27199150D01*
X15360366Y-27199150D02*
X15341318Y-27170579D01*
X15341318Y-27170579D02*
X15331794Y-27151531D01*
X15331794Y-27151531D02*
X15322270Y-27122960D01*
X15322270Y-27122960D02*
X15312747Y-27075341D01*
X15312747Y-27075341D02*
X15312747Y-27037246D01*
X15312747Y-27037246D02*
X15322270Y-26989627D01*
X15322270Y-26989627D02*
X15331794Y-26961055D01*
X15331794Y-26961055D02*
X15341318Y-26942008D01*
X15341318Y-26942008D02*
X15360366Y-26913436D01*
X15360366Y-26913436D02*
X15369890Y-26903912D01*
X15550842Y-27132484D02*
X15436556Y-27132484D01*
X15493699Y-27132484D02*
X15493699Y-26932484D01*
X15493699Y-26932484D02*
X15474651Y-26961055D01*
X15474651Y-26961055D02*
X15455604Y-26980103D01*
X15455604Y-26980103D02*
X15436556Y-26989627D01*
X15674651Y-26932484D02*
X15693699Y-26932484D01*
X15693699Y-26932484D02*
X15712747Y-26942008D01*
X15712747Y-26942008D02*
X15722270Y-26951531D01*
X15722270Y-26951531D02*
X15731794Y-26970579D01*
X15731794Y-26970579D02*
X15741318Y-27008674D01*
X15741318Y-27008674D02*
X15741318Y-27056293D01*
X15741318Y-27056293D02*
X15731794Y-27094388D01*
X15731794Y-27094388D02*
X15722270Y-27113436D01*
X15722270Y-27113436D02*
X15712747Y-27122960D01*
X15712747Y-27122960D02*
X15693699Y-27132484D01*
X15693699Y-27132484D02*
X15674651Y-27132484D01*
X15674651Y-27132484D02*
X15655604Y-27122960D01*
X15655604Y-27122960D02*
X15646080Y-27113436D01*
X15646080Y-27113436D02*
X15636556Y-27094388D01*
X15636556Y-27094388D02*
X15627032Y-27056293D01*
X15627032Y-27056293D02*
X15627032Y-27008674D01*
X15627032Y-27008674D02*
X15636556Y-26970579D01*
X15636556Y-26970579D02*
X15646080Y-26951531D01*
X15646080Y-26951531D02*
X15655604Y-26942008D01*
X15655604Y-26942008D02*
X15674651Y-26932484D01*
X15979413Y-27132484D02*
X15979413Y-26932484D01*
X16065128Y-27132484D02*
X16065128Y-27027722D01*
X16065128Y-27027722D02*
X16055604Y-27008674D01*
X16055604Y-27008674D02*
X16036556Y-26999150D01*
X16036556Y-26999150D02*
X16007985Y-26999150D01*
X16007985Y-26999150D02*
X15988937Y-27008674D01*
X15988937Y-27008674D02*
X15979413Y-27018198D01*
X16188937Y-27132484D02*
X16169890Y-27122960D01*
X16169890Y-27122960D02*
X16160366Y-27113436D01*
X16160366Y-27113436D02*
X16150842Y-27094388D01*
X16150842Y-27094388D02*
X16150842Y-27037246D01*
X16150842Y-27037246D02*
X16160366Y-27018198D01*
X16160366Y-27018198D02*
X16169890Y-27008674D01*
X16169890Y-27008674D02*
X16188937Y-26999150D01*
X16188937Y-26999150D02*
X16217509Y-26999150D01*
X16217509Y-26999150D02*
X16236556Y-27008674D01*
X16236556Y-27008674D02*
X16246080Y-27018198D01*
X16246080Y-27018198D02*
X16255604Y-27037246D01*
X16255604Y-27037246D02*
X16255604Y-27094388D01*
X16255604Y-27094388D02*
X16246080Y-27113436D01*
X16246080Y-27113436D02*
X16236556Y-27122960D01*
X16236556Y-27122960D02*
X16217509Y-27132484D01*
X16217509Y-27132484D02*
X16188937Y-27132484D01*
X16369890Y-27132484D02*
X16350842Y-27122960D01*
X16350842Y-27122960D02*
X16341318Y-27103912D01*
X16341318Y-27103912D02*
X16341318Y-26932484D01*
X16522271Y-27122960D02*
X16503223Y-27132484D01*
X16503223Y-27132484D02*
X16465128Y-27132484D01*
X16465128Y-27132484D02*
X16446080Y-27122960D01*
X16446080Y-27122960D02*
X16436556Y-27103912D01*
X16436556Y-27103912D02*
X16436556Y-27027722D01*
X16436556Y-27027722D02*
X16446080Y-27008674D01*
X16446080Y-27008674D02*
X16465128Y-26999150D01*
X16465128Y-26999150D02*
X16503223Y-26999150D01*
X16503223Y-26999150D02*
X16522271Y-27008674D01*
X16522271Y-27008674D02*
X16531794Y-27027722D01*
X16531794Y-27027722D02*
X16531794Y-27046769D01*
X16531794Y-27046769D02*
X16436556Y-27065817D01*
X16607985Y-27122960D02*
X16627032Y-27132484D01*
X16627032Y-27132484D02*
X16665128Y-27132484D01*
X16665128Y-27132484D02*
X16684175Y-27122960D01*
X16684175Y-27122960D02*
X16693699Y-27103912D01*
X16693699Y-27103912D02*
X16693699Y-27094388D01*
X16693699Y-27094388D02*
X16684175Y-27075341D01*
X16684175Y-27075341D02*
X16665128Y-27065817D01*
X16665128Y-27065817D02*
X16636556Y-27065817D01*
X16636556Y-27065817D02*
X16617509Y-27056293D01*
X16617509Y-27056293D02*
X16607985Y-27037246D01*
X16607985Y-27037246D02*
X16607985Y-27027722D01*
X16607985Y-27027722D02*
X16617509Y-27008674D01*
X16617509Y-27008674D02*
X16636556Y-26999150D01*
X16636556Y-26999150D02*
X16665128Y-26999150D01*
X16665128Y-26999150D02*
X16684175Y-27008674D01*
X16760366Y-27208674D02*
X16769890Y-27199150D01*
X16769890Y-27199150D02*
X16788937Y-27170579D01*
X16788937Y-27170579D02*
X16798461Y-27151531D01*
X16798461Y-27151531D02*
X16807985Y-27122960D01*
X16807985Y-27122960D02*
X16817509Y-27075341D01*
X16817509Y-27075341D02*
X16817509Y-27037246D01*
X16817509Y-27037246D02*
X16807985Y-26989627D01*
X16807985Y-26989627D02*
X16798461Y-26961055D01*
X16798461Y-26961055D02*
X16788937Y-26942008D01*
X16788937Y-26942008D02*
X16769890Y-26913436D01*
X16769890Y-26913436D02*
X16760366Y-26903912D01*
D11*
X11780915Y-27338588D02*
X11780915Y-27271412D01*
X11713739Y-27271412D01*
X11713739Y-27338588D01*
X11780915Y-27338588D01*
D10*
X12093699Y-27196484D02*
X12112746Y-27196484D01*
X12112746Y-27196484D02*
X12131794Y-27206008D01*
X12131794Y-27206008D02*
X12141318Y-27215531D01*
X12141318Y-27215531D02*
X12150842Y-27234579D01*
X12150842Y-27234579D02*
X12160365Y-27272674D01*
X12160365Y-27272674D02*
X12160365Y-27320293D01*
X12160365Y-27320293D02*
X12150842Y-27358388D01*
X12150842Y-27358388D02*
X12141318Y-27377436D01*
X12141318Y-27377436D02*
X12131794Y-27386960D01*
X12131794Y-27386960D02*
X12112746Y-27396484D01*
X12112746Y-27396484D02*
X12093699Y-27396484D01*
X12093699Y-27396484D02*
X12074651Y-27386960D01*
X12074651Y-27386960D02*
X12065127Y-27377436D01*
X12065127Y-27377436D02*
X12055603Y-27358388D01*
X12055603Y-27358388D02*
X12046080Y-27320293D01*
X12046080Y-27320293D02*
X12046080Y-27272674D01*
X12046080Y-27272674D02*
X12055603Y-27234579D01*
X12055603Y-27234579D02*
X12065127Y-27215531D01*
X12065127Y-27215531D02*
X12074651Y-27206008D01*
X12074651Y-27206008D02*
X12093699Y-27196484D01*
X12246080Y-27377436D02*
X12255603Y-27386960D01*
X12255603Y-27386960D02*
X12246080Y-27396484D01*
X12246080Y-27396484D02*
X12236556Y-27386960D01*
X12236556Y-27386960D02*
X12246080Y-27377436D01*
X12246080Y-27377436D02*
X12246080Y-27396484D01*
X12350842Y-27396484D02*
X12388937Y-27396484D01*
X12388937Y-27396484D02*
X12407984Y-27386960D01*
X12407984Y-27386960D02*
X12417508Y-27377436D01*
X12417508Y-27377436D02*
X12436556Y-27348865D01*
X12436556Y-27348865D02*
X12446080Y-27310769D01*
X12446080Y-27310769D02*
X12446080Y-27234579D01*
X12446080Y-27234579D02*
X12436556Y-27215531D01*
X12436556Y-27215531D02*
X12427032Y-27206008D01*
X12427032Y-27206008D02*
X12407984Y-27196484D01*
X12407984Y-27196484D02*
X12369889Y-27196484D01*
X12369889Y-27196484D02*
X12350842Y-27206008D01*
X12350842Y-27206008D02*
X12341318Y-27215531D01*
X12341318Y-27215531D02*
X12331794Y-27234579D01*
X12331794Y-27234579D02*
X12331794Y-27282198D01*
X12331794Y-27282198D02*
X12341318Y-27301246D01*
X12341318Y-27301246D02*
X12350842Y-27310769D01*
X12350842Y-27310769D02*
X12369889Y-27320293D01*
X12369889Y-27320293D02*
X12407984Y-27320293D01*
X12407984Y-27320293D02*
X12427032Y-27310769D01*
X12427032Y-27310769D02*
X12436556Y-27301246D01*
X12436556Y-27301246D02*
X12446080Y-27282198D01*
X12627032Y-27196484D02*
X12531794Y-27196484D01*
X12531794Y-27196484D02*
X12522270Y-27291722D01*
X12522270Y-27291722D02*
X12531794Y-27282198D01*
X12531794Y-27282198D02*
X12550842Y-27272674D01*
X12550842Y-27272674D02*
X12598461Y-27272674D01*
X12598461Y-27272674D02*
X12617508Y-27282198D01*
X12617508Y-27282198D02*
X12627032Y-27291722D01*
X12627032Y-27291722D02*
X12636556Y-27310769D01*
X12636556Y-27310769D02*
X12636556Y-27358388D01*
X12636556Y-27358388D02*
X12627032Y-27377436D01*
X12627032Y-27377436D02*
X12617508Y-27386960D01*
X12617508Y-27386960D02*
X12598461Y-27396484D01*
X12598461Y-27396484D02*
X12550842Y-27396484D01*
X12550842Y-27396484D02*
X12531794Y-27386960D01*
X12531794Y-27386960D02*
X12522270Y-27377436D01*
X12760365Y-27196484D02*
X12779413Y-27196484D01*
X12779413Y-27196484D02*
X12798461Y-27206008D01*
X12798461Y-27206008D02*
X12807984Y-27215531D01*
X12807984Y-27215531D02*
X12817508Y-27234579D01*
X12817508Y-27234579D02*
X12827032Y-27272674D01*
X12827032Y-27272674D02*
X12827032Y-27320293D01*
X12827032Y-27320293D02*
X12817508Y-27358388D01*
X12817508Y-27358388D02*
X12807984Y-27377436D01*
X12807984Y-27377436D02*
X12798461Y-27386960D01*
X12798461Y-27386960D02*
X12779413Y-27396484D01*
X12779413Y-27396484D02*
X12760365Y-27396484D01*
X12760365Y-27396484D02*
X12741318Y-27386960D01*
X12741318Y-27386960D02*
X12731794Y-27377436D01*
X12731794Y-27377436D02*
X12722270Y-27358388D01*
X12722270Y-27358388D02*
X12712746Y-27320293D01*
X12712746Y-27320293D02*
X12712746Y-27272674D01*
X12712746Y-27272674D02*
X12722270Y-27234579D01*
X12722270Y-27234579D02*
X12731794Y-27215531D01*
X12731794Y-27215531D02*
X12741318Y-27206008D01*
X12741318Y-27206008D02*
X12760365Y-27196484D01*
X12912746Y-27396484D02*
X12912746Y-27263150D01*
X12912746Y-27282198D02*
X12922270Y-27272674D01*
X12922270Y-27272674D02*
X12941318Y-27263150D01*
X12941318Y-27263150D02*
X12969889Y-27263150D01*
X12969889Y-27263150D02*
X12988937Y-27272674D01*
X12988937Y-27272674D02*
X12998461Y-27291722D01*
X12998461Y-27291722D02*
X12998461Y-27396484D01*
X12998461Y-27291722D02*
X13007984Y-27272674D01*
X13007984Y-27272674D02*
X13027032Y-27263150D01*
X13027032Y-27263150D02*
X13055603Y-27263150D01*
X13055603Y-27263150D02*
X13074651Y-27272674D01*
X13074651Y-27272674D02*
X13084175Y-27291722D01*
X13084175Y-27291722D02*
X13084175Y-27396484D01*
X13179413Y-27396484D02*
X13179413Y-27263150D01*
X13179413Y-27282198D02*
X13188937Y-27272674D01*
X13188937Y-27272674D02*
X13207984Y-27263150D01*
X13207984Y-27263150D02*
X13236556Y-27263150D01*
X13236556Y-27263150D02*
X13255604Y-27272674D01*
X13255604Y-27272674D02*
X13265127Y-27291722D01*
X13265127Y-27291722D02*
X13265127Y-27396484D01*
X13265127Y-27291722D02*
X13274651Y-27272674D01*
X13274651Y-27272674D02*
X13293699Y-27263150D01*
X13293699Y-27263150D02*
X13322270Y-27263150D01*
X13322270Y-27263150D02*
X13341318Y-27272674D01*
X13341318Y-27272674D02*
X13350842Y-27291722D01*
X13350842Y-27291722D02*
X13350842Y-27396484D01*
X13741318Y-27186960D02*
X13569889Y-27444103D01*
X13998461Y-27196484D02*
X14017508Y-27196484D01*
X14017508Y-27196484D02*
X14036556Y-27206008D01*
X14036556Y-27206008D02*
X14046080Y-27215531D01*
X14046080Y-27215531D02*
X14055604Y-27234579D01*
X14055604Y-27234579D02*
X14065127Y-27272674D01*
X14065127Y-27272674D02*
X14065127Y-27320293D01*
X14065127Y-27320293D02*
X14055604Y-27358388D01*
X14055604Y-27358388D02*
X14046080Y-27377436D01*
X14046080Y-27377436D02*
X14036556Y-27386960D01*
X14036556Y-27386960D02*
X14017508Y-27396484D01*
X14017508Y-27396484D02*
X13998461Y-27396484D01*
X13998461Y-27396484D02*
X13979413Y-27386960D01*
X13979413Y-27386960D02*
X13969889Y-27377436D01*
X13969889Y-27377436D02*
X13960366Y-27358388D01*
X13960366Y-27358388D02*
X13950842Y-27320293D01*
X13950842Y-27320293D02*
X13950842Y-27272674D01*
X13950842Y-27272674D02*
X13960366Y-27234579D01*
X13960366Y-27234579D02*
X13969889Y-27215531D01*
X13969889Y-27215531D02*
X13979413Y-27206008D01*
X13979413Y-27206008D02*
X13998461Y-27196484D01*
X14150842Y-27377436D02*
X14160366Y-27386960D01*
X14160366Y-27386960D02*
X14150842Y-27396484D01*
X14150842Y-27396484D02*
X14141318Y-27386960D01*
X14141318Y-27386960D02*
X14150842Y-27377436D01*
X14150842Y-27377436D02*
X14150842Y-27396484D01*
X14284175Y-27196484D02*
X14303223Y-27196484D01*
X14303223Y-27196484D02*
X14322270Y-27206008D01*
X14322270Y-27206008D02*
X14331794Y-27215531D01*
X14331794Y-27215531D02*
X14341318Y-27234579D01*
X14341318Y-27234579D02*
X14350842Y-27272674D01*
X14350842Y-27272674D02*
X14350842Y-27320293D01*
X14350842Y-27320293D02*
X14341318Y-27358388D01*
X14341318Y-27358388D02*
X14331794Y-27377436D01*
X14331794Y-27377436D02*
X14322270Y-27386960D01*
X14322270Y-27386960D02*
X14303223Y-27396484D01*
X14303223Y-27396484D02*
X14284175Y-27396484D01*
X14284175Y-27396484D02*
X14265127Y-27386960D01*
X14265127Y-27386960D02*
X14255604Y-27377436D01*
X14255604Y-27377436D02*
X14246080Y-27358388D01*
X14246080Y-27358388D02*
X14236556Y-27320293D01*
X14236556Y-27320293D02*
X14236556Y-27272674D01*
X14236556Y-27272674D02*
X14246080Y-27234579D01*
X14246080Y-27234579D02*
X14255604Y-27215531D01*
X14255604Y-27215531D02*
X14265127Y-27206008D01*
X14265127Y-27206008D02*
X14284175Y-27196484D01*
X14417508Y-27196484D02*
X14541318Y-27196484D01*
X14541318Y-27196484D02*
X14474651Y-27272674D01*
X14474651Y-27272674D02*
X14503223Y-27272674D01*
X14503223Y-27272674D02*
X14522270Y-27282198D01*
X14522270Y-27282198D02*
X14531794Y-27291722D01*
X14531794Y-27291722D02*
X14541318Y-27310769D01*
X14541318Y-27310769D02*
X14541318Y-27358388D01*
X14541318Y-27358388D02*
X14531794Y-27377436D01*
X14531794Y-27377436D02*
X14522270Y-27386960D01*
X14522270Y-27386960D02*
X14503223Y-27396484D01*
X14503223Y-27396484D02*
X14446080Y-27396484D01*
X14446080Y-27396484D02*
X14427032Y-27386960D01*
X14427032Y-27386960D02*
X14417508Y-27377436D01*
X14607985Y-27196484D02*
X14741318Y-27196484D01*
X14741318Y-27196484D02*
X14655604Y-27396484D01*
X14903223Y-27263150D02*
X14903223Y-27396484D01*
X14855604Y-27186960D02*
X14807985Y-27329817D01*
X14807985Y-27329817D02*
X14931794Y-27329817D01*
X14998461Y-27196484D02*
X14998461Y-27234579D01*
X15074651Y-27196484D02*
X15074651Y-27234579D01*
X15369890Y-27472674D02*
X15360366Y-27463150D01*
X15360366Y-27463150D02*
X15341318Y-27434579D01*
X15341318Y-27434579D02*
X15331794Y-27415531D01*
X15331794Y-27415531D02*
X15322270Y-27386960D01*
X15322270Y-27386960D02*
X15312747Y-27339341D01*
X15312747Y-27339341D02*
X15312747Y-27301246D01*
X15312747Y-27301246D02*
X15322270Y-27253627D01*
X15322270Y-27253627D02*
X15331794Y-27225055D01*
X15331794Y-27225055D02*
X15341318Y-27206008D01*
X15341318Y-27206008D02*
X15360366Y-27177436D01*
X15360366Y-27177436D02*
X15369890Y-27167912D01*
X15531794Y-27196484D02*
X15493699Y-27196484D01*
X15493699Y-27196484D02*
X15474651Y-27206008D01*
X15474651Y-27206008D02*
X15465128Y-27215531D01*
X15465128Y-27215531D02*
X15446080Y-27244103D01*
X15446080Y-27244103D02*
X15436556Y-27282198D01*
X15436556Y-27282198D02*
X15436556Y-27358388D01*
X15436556Y-27358388D02*
X15446080Y-27377436D01*
X15446080Y-27377436D02*
X15455604Y-27386960D01*
X15455604Y-27386960D02*
X15474651Y-27396484D01*
X15474651Y-27396484D02*
X15512747Y-27396484D01*
X15512747Y-27396484D02*
X15531794Y-27386960D01*
X15531794Y-27386960D02*
X15541318Y-27377436D01*
X15541318Y-27377436D02*
X15550842Y-27358388D01*
X15550842Y-27358388D02*
X15550842Y-27310769D01*
X15550842Y-27310769D02*
X15541318Y-27291722D01*
X15541318Y-27291722D02*
X15531794Y-27282198D01*
X15531794Y-27282198D02*
X15512747Y-27272674D01*
X15512747Y-27272674D02*
X15474651Y-27272674D01*
X15474651Y-27272674D02*
X15455604Y-27282198D01*
X15455604Y-27282198D02*
X15446080Y-27291722D01*
X15446080Y-27291722D02*
X15436556Y-27310769D01*
X15788937Y-27396484D02*
X15788937Y-27196484D01*
X15874651Y-27396484D02*
X15874651Y-27291722D01*
X15874651Y-27291722D02*
X15865128Y-27272674D01*
X15865128Y-27272674D02*
X15846080Y-27263150D01*
X15846080Y-27263150D02*
X15817509Y-27263150D01*
X15817509Y-27263150D02*
X15798461Y-27272674D01*
X15798461Y-27272674D02*
X15788937Y-27282198D01*
X15998461Y-27396484D02*
X15979413Y-27386960D01*
X15979413Y-27386960D02*
X15969890Y-27377436D01*
X15969890Y-27377436D02*
X15960366Y-27358388D01*
X15960366Y-27358388D02*
X15960366Y-27301246D01*
X15960366Y-27301246D02*
X15969890Y-27282198D01*
X15969890Y-27282198D02*
X15979413Y-27272674D01*
X15979413Y-27272674D02*
X15998461Y-27263150D01*
X15998461Y-27263150D02*
X16027032Y-27263150D01*
X16027032Y-27263150D02*
X16046080Y-27272674D01*
X16046080Y-27272674D02*
X16055604Y-27282198D01*
X16055604Y-27282198D02*
X16065128Y-27301246D01*
X16065128Y-27301246D02*
X16065128Y-27358388D01*
X16065128Y-27358388D02*
X16055604Y-27377436D01*
X16055604Y-27377436D02*
X16046080Y-27386960D01*
X16046080Y-27386960D02*
X16027032Y-27396484D01*
X16027032Y-27396484D02*
X15998461Y-27396484D01*
X16179413Y-27396484D02*
X16160366Y-27386960D01*
X16160366Y-27386960D02*
X16150842Y-27367912D01*
X16150842Y-27367912D02*
X16150842Y-27196484D01*
X16331794Y-27386960D02*
X16312747Y-27396484D01*
X16312747Y-27396484D02*
X16274651Y-27396484D01*
X16274651Y-27396484D02*
X16255604Y-27386960D01*
X16255604Y-27386960D02*
X16246080Y-27367912D01*
X16246080Y-27367912D02*
X16246080Y-27291722D01*
X16246080Y-27291722D02*
X16255604Y-27272674D01*
X16255604Y-27272674D02*
X16274651Y-27263150D01*
X16274651Y-27263150D02*
X16312747Y-27263150D01*
X16312747Y-27263150D02*
X16331794Y-27272674D01*
X16331794Y-27272674D02*
X16341318Y-27291722D01*
X16341318Y-27291722D02*
X16341318Y-27310769D01*
X16341318Y-27310769D02*
X16246080Y-27329817D01*
X16417509Y-27386960D02*
X16436556Y-27396484D01*
X16436556Y-27396484D02*
X16474651Y-27396484D01*
X16474651Y-27396484D02*
X16493699Y-27386960D01*
X16493699Y-27386960D02*
X16503223Y-27367912D01*
X16503223Y-27367912D02*
X16503223Y-27358388D01*
X16503223Y-27358388D02*
X16493699Y-27339341D01*
X16493699Y-27339341D02*
X16474651Y-27329817D01*
X16474651Y-27329817D02*
X16446080Y-27329817D01*
X16446080Y-27329817D02*
X16427032Y-27320293D01*
X16427032Y-27320293D02*
X16417509Y-27301246D01*
X16417509Y-27301246D02*
X16417509Y-27291722D01*
X16417509Y-27291722D02*
X16427032Y-27272674D01*
X16427032Y-27272674D02*
X16446080Y-27263150D01*
X16446080Y-27263150D02*
X16474651Y-27263150D01*
X16474651Y-27263150D02*
X16493699Y-27272674D01*
X16569890Y-27472674D02*
X16579413Y-27463150D01*
X16579413Y-27463150D02*
X16598461Y-27434579D01*
X16598461Y-27434579D02*
X16607985Y-27415531D01*
X16607985Y-27415531D02*
X16617509Y-27386960D01*
X16617509Y-27386960D02*
X16627032Y-27339341D01*
X16627032Y-27339341D02*
X16627032Y-27301246D01*
X16627032Y-27301246D02*
X16617509Y-27253627D01*
X16617509Y-27253627D02*
X16607985Y-27225055D01*
X16607985Y-27225055D02*
X16598461Y-27206008D01*
X16598461Y-27206008D02*
X16579413Y-27177436D01*
X16579413Y-27177436D02*
X16569890Y-27167912D01*
D11*
X11744827Y-27619000D02*
X11794827Y-27569000D01*
X11744827Y-27519000D01*
X11694827Y-27569000D01*
X11744827Y-27619000D01*
D10*
X12160365Y-27660484D02*
X12046080Y-27660484D01*
X12103222Y-27660484D02*
X12103222Y-27460484D01*
X12103222Y-27460484D02*
X12084175Y-27489055D01*
X12084175Y-27489055D02*
X12065127Y-27508103D01*
X12065127Y-27508103D02*
X12046080Y-27517627D01*
X12246080Y-27641436D02*
X12255603Y-27650960D01*
X12255603Y-27650960D02*
X12246080Y-27660484D01*
X12246080Y-27660484D02*
X12236556Y-27650960D01*
X12236556Y-27650960D02*
X12246080Y-27641436D01*
X12246080Y-27641436D02*
X12246080Y-27660484D01*
X12379413Y-27460484D02*
X12398461Y-27460484D01*
X12398461Y-27460484D02*
X12417508Y-27470008D01*
X12417508Y-27470008D02*
X12427032Y-27479531D01*
X12427032Y-27479531D02*
X12436556Y-27498579D01*
X12436556Y-27498579D02*
X12446080Y-27536674D01*
X12446080Y-27536674D02*
X12446080Y-27584293D01*
X12446080Y-27584293D02*
X12436556Y-27622388D01*
X12436556Y-27622388D02*
X12427032Y-27641436D01*
X12427032Y-27641436D02*
X12417508Y-27650960D01*
X12417508Y-27650960D02*
X12398461Y-27660484D01*
X12398461Y-27660484D02*
X12379413Y-27660484D01*
X12379413Y-27660484D02*
X12360365Y-27650960D01*
X12360365Y-27650960D02*
X12350842Y-27641436D01*
X12350842Y-27641436D02*
X12341318Y-27622388D01*
X12341318Y-27622388D02*
X12331794Y-27584293D01*
X12331794Y-27584293D02*
X12331794Y-27536674D01*
X12331794Y-27536674D02*
X12341318Y-27498579D01*
X12341318Y-27498579D02*
X12350842Y-27479531D01*
X12350842Y-27479531D02*
X12360365Y-27470008D01*
X12360365Y-27470008D02*
X12379413Y-27460484D01*
X12569889Y-27460484D02*
X12588937Y-27460484D01*
X12588937Y-27460484D02*
X12607984Y-27470008D01*
X12607984Y-27470008D02*
X12617508Y-27479531D01*
X12617508Y-27479531D02*
X12627032Y-27498579D01*
X12627032Y-27498579D02*
X12636556Y-27536674D01*
X12636556Y-27536674D02*
X12636556Y-27584293D01*
X12636556Y-27584293D02*
X12627032Y-27622388D01*
X12627032Y-27622388D02*
X12617508Y-27641436D01*
X12617508Y-27641436D02*
X12607984Y-27650960D01*
X12607984Y-27650960D02*
X12588937Y-27660484D01*
X12588937Y-27660484D02*
X12569889Y-27660484D01*
X12569889Y-27660484D02*
X12550842Y-27650960D01*
X12550842Y-27650960D02*
X12541318Y-27641436D01*
X12541318Y-27641436D02*
X12531794Y-27622388D01*
X12531794Y-27622388D02*
X12522270Y-27584293D01*
X12522270Y-27584293D02*
X12522270Y-27536674D01*
X12522270Y-27536674D02*
X12531794Y-27498579D01*
X12531794Y-27498579D02*
X12541318Y-27479531D01*
X12541318Y-27479531D02*
X12550842Y-27470008D01*
X12550842Y-27470008D02*
X12569889Y-27460484D01*
X12760365Y-27460484D02*
X12779413Y-27460484D01*
X12779413Y-27460484D02*
X12798461Y-27470008D01*
X12798461Y-27470008D02*
X12807984Y-27479531D01*
X12807984Y-27479531D02*
X12817508Y-27498579D01*
X12817508Y-27498579D02*
X12827032Y-27536674D01*
X12827032Y-27536674D02*
X12827032Y-27584293D01*
X12827032Y-27584293D02*
X12817508Y-27622388D01*
X12817508Y-27622388D02*
X12807984Y-27641436D01*
X12807984Y-27641436D02*
X12798461Y-27650960D01*
X12798461Y-27650960D02*
X12779413Y-27660484D01*
X12779413Y-27660484D02*
X12760365Y-27660484D01*
X12760365Y-27660484D02*
X12741318Y-27650960D01*
X12741318Y-27650960D02*
X12731794Y-27641436D01*
X12731794Y-27641436D02*
X12722270Y-27622388D01*
X12722270Y-27622388D02*
X12712746Y-27584293D01*
X12712746Y-27584293D02*
X12712746Y-27536674D01*
X12712746Y-27536674D02*
X12722270Y-27498579D01*
X12722270Y-27498579D02*
X12731794Y-27479531D01*
X12731794Y-27479531D02*
X12741318Y-27470008D01*
X12741318Y-27470008D02*
X12760365Y-27460484D01*
X12912746Y-27660484D02*
X12912746Y-27527150D01*
X12912746Y-27546198D02*
X12922270Y-27536674D01*
X12922270Y-27536674D02*
X12941318Y-27527150D01*
X12941318Y-27527150D02*
X12969889Y-27527150D01*
X12969889Y-27527150D02*
X12988937Y-27536674D01*
X12988937Y-27536674D02*
X12998461Y-27555722D01*
X12998461Y-27555722D02*
X12998461Y-27660484D01*
X12998461Y-27555722D02*
X13007984Y-27536674D01*
X13007984Y-27536674D02*
X13027032Y-27527150D01*
X13027032Y-27527150D02*
X13055603Y-27527150D01*
X13055603Y-27527150D02*
X13074651Y-27536674D01*
X13074651Y-27536674D02*
X13084175Y-27555722D01*
X13084175Y-27555722D02*
X13084175Y-27660484D01*
X13179413Y-27660484D02*
X13179413Y-27527150D01*
X13179413Y-27546198D02*
X13188937Y-27536674D01*
X13188937Y-27536674D02*
X13207984Y-27527150D01*
X13207984Y-27527150D02*
X13236556Y-27527150D01*
X13236556Y-27527150D02*
X13255604Y-27536674D01*
X13255604Y-27536674D02*
X13265127Y-27555722D01*
X13265127Y-27555722D02*
X13265127Y-27660484D01*
X13265127Y-27555722D02*
X13274651Y-27536674D01*
X13274651Y-27536674D02*
X13293699Y-27527150D01*
X13293699Y-27527150D02*
X13322270Y-27527150D01*
X13322270Y-27527150D02*
X13341318Y-27536674D01*
X13341318Y-27536674D02*
X13350842Y-27555722D01*
X13350842Y-27555722D02*
X13350842Y-27660484D01*
X13741318Y-27450960D02*
X13569889Y-27708103D01*
X13998461Y-27460484D02*
X14017508Y-27460484D01*
X14017508Y-27460484D02*
X14036556Y-27470008D01*
X14036556Y-27470008D02*
X14046080Y-27479531D01*
X14046080Y-27479531D02*
X14055604Y-27498579D01*
X14055604Y-27498579D02*
X14065127Y-27536674D01*
X14065127Y-27536674D02*
X14065127Y-27584293D01*
X14065127Y-27584293D02*
X14055604Y-27622388D01*
X14055604Y-27622388D02*
X14046080Y-27641436D01*
X14046080Y-27641436D02*
X14036556Y-27650960D01*
X14036556Y-27650960D02*
X14017508Y-27660484D01*
X14017508Y-27660484D02*
X13998461Y-27660484D01*
X13998461Y-27660484D02*
X13979413Y-27650960D01*
X13979413Y-27650960D02*
X13969889Y-27641436D01*
X13969889Y-27641436D02*
X13960366Y-27622388D01*
X13960366Y-27622388D02*
X13950842Y-27584293D01*
X13950842Y-27584293D02*
X13950842Y-27536674D01*
X13950842Y-27536674D02*
X13960366Y-27498579D01*
X13960366Y-27498579D02*
X13969889Y-27479531D01*
X13969889Y-27479531D02*
X13979413Y-27470008D01*
X13979413Y-27470008D02*
X13998461Y-27460484D01*
X14150842Y-27641436D02*
X14160366Y-27650960D01*
X14160366Y-27650960D02*
X14150842Y-27660484D01*
X14150842Y-27660484D02*
X14141318Y-27650960D01*
X14141318Y-27650960D02*
X14150842Y-27641436D01*
X14150842Y-27641436D02*
X14150842Y-27660484D01*
X14284175Y-27460484D02*
X14303223Y-27460484D01*
X14303223Y-27460484D02*
X14322270Y-27470008D01*
X14322270Y-27470008D02*
X14331794Y-27479531D01*
X14331794Y-27479531D02*
X14341318Y-27498579D01*
X14341318Y-27498579D02*
X14350842Y-27536674D01*
X14350842Y-27536674D02*
X14350842Y-27584293D01*
X14350842Y-27584293D02*
X14341318Y-27622388D01*
X14341318Y-27622388D02*
X14331794Y-27641436D01*
X14331794Y-27641436D02*
X14322270Y-27650960D01*
X14322270Y-27650960D02*
X14303223Y-27660484D01*
X14303223Y-27660484D02*
X14284175Y-27660484D01*
X14284175Y-27660484D02*
X14265127Y-27650960D01*
X14265127Y-27650960D02*
X14255604Y-27641436D01*
X14255604Y-27641436D02*
X14246080Y-27622388D01*
X14246080Y-27622388D02*
X14236556Y-27584293D01*
X14236556Y-27584293D02*
X14236556Y-27536674D01*
X14236556Y-27536674D02*
X14246080Y-27498579D01*
X14246080Y-27498579D02*
X14255604Y-27479531D01*
X14255604Y-27479531D02*
X14265127Y-27470008D01*
X14265127Y-27470008D02*
X14284175Y-27460484D01*
X14417508Y-27460484D02*
X14541318Y-27460484D01*
X14541318Y-27460484D02*
X14474651Y-27536674D01*
X14474651Y-27536674D02*
X14503223Y-27536674D01*
X14503223Y-27536674D02*
X14522270Y-27546198D01*
X14522270Y-27546198D02*
X14531794Y-27555722D01*
X14531794Y-27555722D02*
X14541318Y-27574769D01*
X14541318Y-27574769D02*
X14541318Y-27622388D01*
X14541318Y-27622388D02*
X14531794Y-27641436D01*
X14531794Y-27641436D02*
X14522270Y-27650960D01*
X14522270Y-27650960D02*
X14503223Y-27660484D01*
X14503223Y-27660484D02*
X14446080Y-27660484D01*
X14446080Y-27660484D02*
X14427032Y-27650960D01*
X14427032Y-27650960D02*
X14417508Y-27641436D01*
X14636556Y-27660484D02*
X14674651Y-27660484D01*
X14674651Y-27660484D02*
X14693699Y-27650960D01*
X14693699Y-27650960D02*
X14703223Y-27641436D01*
X14703223Y-27641436D02*
X14722270Y-27612865D01*
X14722270Y-27612865D02*
X14731794Y-27574769D01*
X14731794Y-27574769D02*
X14731794Y-27498579D01*
X14731794Y-27498579D02*
X14722270Y-27479531D01*
X14722270Y-27479531D02*
X14712747Y-27470008D01*
X14712747Y-27470008D02*
X14693699Y-27460484D01*
X14693699Y-27460484D02*
X14655604Y-27460484D01*
X14655604Y-27460484D02*
X14636556Y-27470008D01*
X14636556Y-27470008D02*
X14627032Y-27479531D01*
X14627032Y-27479531D02*
X14617508Y-27498579D01*
X14617508Y-27498579D02*
X14617508Y-27546198D01*
X14617508Y-27546198D02*
X14627032Y-27565246D01*
X14627032Y-27565246D02*
X14636556Y-27574769D01*
X14636556Y-27574769D02*
X14655604Y-27584293D01*
X14655604Y-27584293D02*
X14693699Y-27584293D01*
X14693699Y-27584293D02*
X14712747Y-27574769D01*
X14712747Y-27574769D02*
X14722270Y-27565246D01*
X14722270Y-27565246D02*
X14731794Y-27546198D01*
X14903223Y-27527150D02*
X14903223Y-27660484D01*
X14855604Y-27450960D02*
X14807985Y-27593817D01*
X14807985Y-27593817D02*
X14931794Y-27593817D01*
X14998461Y-27460484D02*
X14998461Y-27498579D01*
X15074651Y-27460484D02*
X15074651Y-27498579D01*
X15369890Y-27736674D02*
X15360366Y-27727150D01*
X15360366Y-27727150D02*
X15341318Y-27698579D01*
X15341318Y-27698579D02*
X15331794Y-27679531D01*
X15331794Y-27679531D02*
X15322270Y-27650960D01*
X15322270Y-27650960D02*
X15312747Y-27603341D01*
X15312747Y-27603341D02*
X15312747Y-27565246D01*
X15312747Y-27565246D02*
X15322270Y-27517627D01*
X15322270Y-27517627D02*
X15331794Y-27489055D01*
X15331794Y-27489055D02*
X15341318Y-27470008D01*
X15341318Y-27470008D02*
X15360366Y-27441436D01*
X15360366Y-27441436D02*
X15369890Y-27431912D01*
X15484175Y-27460484D02*
X15503223Y-27460484D01*
X15503223Y-27460484D02*
X15522270Y-27470008D01*
X15522270Y-27470008D02*
X15531794Y-27479531D01*
X15531794Y-27479531D02*
X15541318Y-27498579D01*
X15541318Y-27498579D02*
X15550842Y-27536674D01*
X15550842Y-27536674D02*
X15550842Y-27584293D01*
X15550842Y-27584293D02*
X15541318Y-27622388D01*
X15541318Y-27622388D02*
X15531794Y-27641436D01*
X15531794Y-27641436D02*
X15522270Y-27650960D01*
X15522270Y-27650960D02*
X15503223Y-27660484D01*
X15503223Y-27660484D02*
X15484175Y-27660484D01*
X15484175Y-27660484D02*
X15465128Y-27650960D01*
X15465128Y-27650960D02*
X15455604Y-27641436D01*
X15455604Y-27641436D02*
X15446080Y-27622388D01*
X15446080Y-27622388D02*
X15436556Y-27584293D01*
X15436556Y-27584293D02*
X15436556Y-27536674D01*
X15436556Y-27536674D02*
X15446080Y-27498579D01*
X15446080Y-27498579D02*
X15455604Y-27479531D01*
X15455604Y-27479531D02*
X15465128Y-27470008D01*
X15465128Y-27470008D02*
X15484175Y-27460484D01*
X15788937Y-27660484D02*
X15788937Y-27460484D01*
X15874651Y-27660484D02*
X15874651Y-27555722D01*
X15874651Y-27555722D02*
X15865128Y-27536674D01*
X15865128Y-27536674D02*
X15846080Y-27527150D01*
X15846080Y-27527150D02*
X15817509Y-27527150D01*
X15817509Y-27527150D02*
X15798461Y-27536674D01*
X15798461Y-27536674D02*
X15788937Y-27546198D01*
X15998461Y-27660484D02*
X15979413Y-27650960D01*
X15979413Y-27650960D02*
X15969890Y-27641436D01*
X15969890Y-27641436D02*
X15960366Y-27622388D01*
X15960366Y-27622388D02*
X15960366Y-27565246D01*
X15960366Y-27565246D02*
X15969890Y-27546198D01*
X15969890Y-27546198D02*
X15979413Y-27536674D01*
X15979413Y-27536674D02*
X15998461Y-27527150D01*
X15998461Y-27527150D02*
X16027032Y-27527150D01*
X16027032Y-27527150D02*
X16046080Y-27536674D01*
X16046080Y-27536674D02*
X16055604Y-27546198D01*
X16055604Y-27546198D02*
X16065128Y-27565246D01*
X16065128Y-27565246D02*
X16065128Y-27622388D01*
X16065128Y-27622388D02*
X16055604Y-27641436D01*
X16055604Y-27641436D02*
X16046080Y-27650960D01*
X16046080Y-27650960D02*
X16027032Y-27660484D01*
X16027032Y-27660484D02*
X15998461Y-27660484D01*
X16179413Y-27660484D02*
X16160366Y-27650960D01*
X16160366Y-27650960D02*
X16150842Y-27631912D01*
X16150842Y-27631912D02*
X16150842Y-27460484D01*
X16331794Y-27650960D02*
X16312747Y-27660484D01*
X16312747Y-27660484D02*
X16274651Y-27660484D01*
X16274651Y-27660484D02*
X16255604Y-27650960D01*
X16255604Y-27650960D02*
X16246080Y-27631912D01*
X16246080Y-27631912D02*
X16246080Y-27555722D01*
X16246080Y-27555722D02*
X16255604Y-27536674D01*
X16255604Y-27536674D02*
X16274651Y-27527150D01*
X16274651Y-27527150D02*
X16312747Y-27527150D01*
X16312747Y-27527150D02*
X16331794Y-27536674D01*
X16331794Y-27536674D02*
X16341318Y-27555722D01*
X16341318Y-27555722D02*
X16341318Y-27574769D01*
X16341318Y-27574769D02*
X16246080Y-27593817D01*
X16417509Y-27650960D02*
X16436556Y-27660484D01*
X16436556Y-27660484D02*
X16474651Y-27660484D01*
X16474651Y-27660484D02*
X16493699Y-27650960D01*
X16493699Y-27650960D02*
X16503223Y-27631912D01*
X16503223Y-27631912D02*
X16503223Y-27622388D01*
X16503223Y-27622388D02*
X16493699Y-27603341D01*
X16493699Y-27603341D02*
X16474651Y-27593817D01*
X16474651Y-27593817D02*
X16446080Y-27593817D01*
X16446080Y-27593817D02*
X16427032Y-27584293D01*
X16427032Y-27584293D02*
X16417509Y-27565246D01*
X16417509Y-27565246D02*
X16417509Y-27555722D01*
X16417509Y-27555722D02*
X16427032Y-27536674D01*
X16427032Y-27536674D02*
X16446080Y-27527150D01*
X16446080Y-27527150D02*
X16474651Y-27527150D01*
X16474651Y-27527150D02*
X16493699Y-27536674D01*
X16741318Y-27584293D02*
X16893699Y-27584293D01*
X16817509Y-27660484D02*
X16817509Y-27508103D01*
X17227033Y-27460484D02*
X17188937Y-27460484D01*
X17188937Y-27460484D02*
X17169890Y-27470008D01*
X17169890Y-27470008D02*
X17160366Y-27479531D01*
X17160366Y-27479531D02*
X17141318Y-27508103D01*
X17141318Y-27508103D02*
X17131795Y-27546198D01*
X17131795Y-27546198D02*
X17131795Y-27622388D01*
X17131795Y-27622388D02*
X17141318Y-27641436D01*
X17141318Y-27641436D02*
X17150842Y-27650960D01*
X17150842Y-27650960D02*
X17169890Y-27660484D01*
X17169890Y-27660484D02*
X17207985Y-27660484D01*
X17207985Y-27660484D02*
X17227033Y-27650960D01*
X17227033Y-27650960D02*
X17236556Y-27641436D01*
X17236556Y-27641436D02*
X17246080Y-27622388D01*
X17246080Y-27622388D02*
X17246080Y-27574769D01*
X17246080Y-27574769D02*
X17236556Y-27555722D01*
X17236556Y-27555722D02*
X17227033Y-27546198D01*
X17227033Y-27546198D02*
X17207985Y-27536674D01*
X17207985Y-27536674D02*
X17169890Y-27536674D01*
X17169890Y-27536674D02*
X17150842Y-27546198D01*
X17150842Y-27546198D02*
X17141318Y-27555722D01*
X17141318Y-27555722D02*
X17131795Y-27574769D01*
X17474652Y-27650960D02*
X17493699Y-27660484D01*
X17493699Y-27660484D02*
X17531795Y-27660484D01*
X17531795Y-27660484D02*
X17550842Y-27650960D01*
X17550842Y-27650960D02*
X17560366Y-27631912D01*
X17560366Y-27631912D02*
X17560366Y-27622388D01*
X17560366Y-27622388D02*
X17550842Y-27603341D01*
X17550842Y-27603341D02*
X17531795Y-27593817D01*
X17531795Y-27593817D02*
X17503223Y-27593817D01*
X17503223Y-27593817D02*
X17484176Y-27584293D01*
X17484176Y-27584293D02*
X17474652Y-27565246D01*
X17474652Y-27565246D02*
X17474652Y-27555722D01*
X17474652Y-27555722D02*
X17484176Y-27536674D01*
X17484176Y-27536674D02*
X17503223Y-27527150D01*
X17503223Y-27527150D02*
X17531795Y-27527150D01*
X17531795Y-27527150D02*
X17550842Y-27536674D01*
X17674652Y-27660484D02*
X17655604Y-27650960D01*
X17655604Y-27650960D02*
X17646080Y-27631912D01*
X17646080Y-27631912D02*
X17646080Y-27460484D01*
X17779414Y-27660484D02*
X17760366Y-27650960D01*
X17760366Y-27650960D02*
X17750842Y-27641436D01*
X17750842Y-27641436D02*
X17741318Y-27622388D01*
X17741318Y-27622388D02*
X17741318Y-27565246D01*
X17741318Y-27565246D02*
X17750842Y-27546198D01*
X17750842Y-27546198D02*
X17760366Y-27536674D01*
X17760366Y-27536674D02*
X17779414Y-27527150D01*
X17779414Y-27527150D02*
X17807985Y-27527150D01*
X17807985Y-27527150D02*
X17827033Y-27536674D01*
X17827033Y-27536674D02*
X17836557Y-27546198D01*
X17836557Y-27546198D02*
X17846080Y-27565246D01*
X17846080Y-27565246D02*
X17846080Y-27622388D01*
X17846080Y-27622388D02*
X17836557Y-27641436D01*
X17836557Y-27641436D02*
X17827033Y-27650960D01*
X17827033Y-27650960D02*
X17807985Y-27660484D01*
X17807985Y-27660484D02*
X17779414Y-27660484D01*
X17903223Y-27527150D02*
X17979414Y-27527150D01*
X17931795Y-27460484D02*
X17931795Y-27631912D01*
X17931795Y-27631912D02*
X17941318Y-27650960D01*
X17941318Y-27650960D02*
X17960366Y-27660484D01*
X17960366Y-27660484D02*
X17979414Y-27660484D01*
X18036557Y-27650960D02*
X18055604Y-27660484D01*
X18055604Y-27660484D02*
X18093699Y-27660484D01*
X18093699Y-27660484D02*
X18112747Y-27650960D01*
X18112747Y-27650960D02*
X18122271Y-27631912D01*
X18122271Y-27631912D02*
X18122271Y-27622388D01*
X18122271Y-27622388D02*
X18112747Y-27603341D01*
X18112747Y-27603341D02*
X18093699Y-27593817D01*
X18093699Y-27593817D02*
X18065128Y-27593817D01*
X18065128Y-27593817D02*
X18046080Y-27584293D01*
X18046080Y-27584293D02*
X18036557Y-27565246D01*
X18036557Y-27565246D02*
X18036557Y-27555722D01*
X18036557Y-27555722D02*
X18046080Y-27536674D01*
X18046080Y-27536674D02*
X18065128Y-27527150D01*
X18065128Y-27527150D02*
X18093699Y-27527150D01*
X18093699Y-27527150D02*
X18112747Y-27536674D01*
X18188938Y-27736674D02*
X18198461Y-27727150D01*
X18198461Y-27727150D02*
X18217509Y-27698579D01*
X18217509Y-27698579D02*
X18227033Y-27679531D01*
X18227033Y-27679531D02*
X18236557Y-27650960D01*
X18236557Y-27650960D02*
X18246080Y-27603341D01*
X18246080Y-27603341D02*
X18246080Y-27565246D01*
X18246080Y-27565246D02*
X18236557Y-27517627D01*
X18236557Y-27517627D02*
X18227033Y-27489055D01*
X18227033Y-27489055D02*
X18217509Y-27470008D01*
X18217509Y-27470008D02*
X18198461Y-27441436D01*
X18198461Y-27441436D02*
X18188938Y-27431912D01*
D12*
X11654827Y-27763000D02*
X11794827Y-27903000D01*
X11794827Y-27763000D02*
X11654827Y-27903000D01*
X11794827Y-27833000D02*
G75*
G03*
X11654827Y-27833000I-70000J0D01*
G01*
X11654827Y-27833000D02*
G75*
G03*
X11794827Y-27833000I70000J0D01*
G01*
D10*
X12160365Y-27924484D02*
X12046080Y-27924484D01*
X12103222Y-27924484D02*
X12103222Y-27724484D01*
X12103222Y-27724484D02*
X12084175Y-27753055D01*
X12084175Y-27753055D02*
X12065127Y-27772103D01*
X12065127Y-27772103D02*
X12046080Y-27781627D01*
X12246080Y-27905436D02*
X12255603Y-27914960D01*
X12255603Y-27914960D02*
X12246080Y-27924484D01*
X12246080Y-27924484D02*
X12236556Y-27914960D01*
X12236556Y-27914960D02*
X12246080Y-27905436D01*
X12246080Y-27905436D02*
X12246080Y-27924484D01*
X12427032Y-27791150D02*
X12427032Y-27924484D01*
X12379413Y-27714960D02*
X12331794Y-27857817D01*
X12331794Y-27857817D02*
X12455603Y-27857817D01*
X12569889Y-27724484D02*
X12588937Y-27724484D01*
X12588937Y-27724484D02*
X12607984Y-27734008D01*
X12607984Y-27734008D02*
X12617508Y-27743531D01*
X12617508Y-27743531D02*
X12627032Y-27762579D01*
X12627032Y-27762579D02*
X12636556Y-27800674D01*
X12636556Y-27800674D02*
X12636556Y-27848293D01*
X12636556Y-27848293D02*
X12627032Y-27886388D01*
X12627032Y-27886388D02*
X12617508Y-27905436D01*
X12617508Y-27905436D02*
X12607984Y-27914960D01*
X12607984Y-27914960D02*
X12588937Y-27924484D01*
X12588937Y-27924484D02*
X12569889Y-27924484D01*
X12569889Y-27924484D02*
X12550842Y-27914960D01*
X12550842Y-27914960D02*
X12541318Y-27905436D01*
X12541318Y-27905436D02*
X12531794Y-27886388D01*
X12531794Y-27886388D02*
X12522270Y-27848293D01*
X12522270Y-27848293D02*
X12522270Y-27800674D01*
X12522270Y-27800674D02*
X12531794Y-27762579D01*
X12531794Y-27762579D02*
X12541318Y-27743531D01*
X12541318Y-27743531D02*
X12550842Y-27734008D01*
X12550842Y-27734008D02*
X12569889Y-27724484D01*
X12760365Y-27724484D02*
X12779413Y-27724484D01*
X12779413Y-27724484D02*
X12798461Y-27734008D01*
X12798461Y-27734008D02*
X12807984Y-27743531D01*
X12807984Y-27743531D02*
X12817508Y-27762579D01*
X12817508Y-27762579D02*
X12827032Y-27800674D01*
X12827032Y-27800674D02*
X12827032Y-27848293D01*
X12827032Y-27848293D02*
X12817508Y-27886388D01*
X12817508Y-27886388D02*
X12807984Y-27905436D01*
X12807984Y-27905436D02*
X12798461Y-27914960D01*
X12798461Y-27914960D02*
X12779413Y-27924484D01*
X12779413Y-27924484D02*
X12760365Y-27924484D01*
X12760365Y-27924484D02*
X12741318Y-27914960D01*
X12741318Y-27914960D02*
X12731794Y-27905436D01*
X12731794Y-27905436D02*
X12722270Y-27886388D01*
X12722270Y-27886388D02*
X12712746Y-27848293D01*
X12712746Y-27848293D02*
X12712746Y-27800674D01*
X12712746Y-27800674D02*
X12722270Y-27762579D01*
X12722270Y-27762579D02*
X12731794Y-27743531D01*
X12731794Y-27743531D02*
X12741318Y-27734008D01*
X12741318Y-27734008D02*
X12760365Y-27724484D01*
X12912746Y-27924484D02*
X12912746Y-27791150D01*
X12912746Y-27810198D02*
X12922270Y-27800674D01*
X12922270Y-27800674D02*
X12941318Y-27791150D01*
X12941318Y-27791150D02*
X12969889Y-27791150D01*
X12969889Y-27791150D02*
X12988937Y-27800674D01*
X12988937Y-27800674D02*
X12998461Y-27819722D01*
X12998461Y-27819722D02*
X12998461Y-27924484D01*
X12998461Y-27819722D02*
X13007984Y-27800674D01*
X13007984Y-27800674D02*
X13027032Y-27791150D01*
X13027032Y-27791150D02*
X13055603Y-27791150D01*
X13055603Y-27791150D02*
X13074651Y-27800674D01*
X13074651Y-27800674D02*
X13084175Y-27819722D01*
X13084175Y-27819722D02*
X13084175Y-27924484D01*
X13179413Y-27924484D02*
X13179413Y-27791150D01*
X13179413Y-27810198D02*
X13188937Y-27800674D01*
X13188937Y-27800674D02*
X13207984Y-27791150D01*
X13207984Y-27791150D02*
X13236556Y-27791150D01*
X13236556Y-27791150D02*
X13255604Y-27800674D01*
X13255604Y-27800674D02*
X13265127Y-27819722D01*
X13265127Y-27819722D02*
X13265127Y-27924484D01*
X13265127Y-27819722D02*
X13274651Y-27800674D01*
X13274651Y-27800674D02*
X13293699Y-27791150D01*
X13293699Y-27791150D02*
X13322270Y-27791150D01*
X13322270Y-27791150D02*
X13341318Y-27800674D01*
X13341318Y-27800674D02*
X13350842Y-27819722D01*
X13350842Y-27819722D02*
X13350842Y-27924484D01*
X13741318Y-27714960D02*
X13569889Y-27972103D01*
X13998461Y-27724484D02*
X14017508Y-27724484D01*
X14017508Y-27724484D02*
X14036556Y-27734008D01*
X14036556Y-27734008D02*
X14046080Y-27743531D01*
X14046080Y-27743531D02*
X14055604Y-27762579D01*
X14055604Y-27762579D02*
X14065127Y-27800674D01*
X14065127Y-27800674D02*
X14065127Y-27848293D01*
X14065127Y-27848293D02*
X14055604Y-27886388D01*
X14055604Y-27886388D02*
X14046080Y-27905436D01*
X14046080Y-27905436D02*
X14036556Y-27914960D01*
X14036556Y-27914960D02*
X14017508Y-27924484D01*
X14017508Y-27924484D02*
X13998461Y-27924484D01*
X13998461Y-27924484D02*
X13979413Y-27914960D01*
X13979413Y-27914960D02*
X13969889Y-27905436D01*
X13969889Y-27905436D02*
X13960366Y-27886388D01*
X13960366Y-27886388D02*
X13950842Y-27848293D01*
X13950842Y-27848293D02*
X13950842Y-27800674D01*
X13950842Y-27800674D02*
X13960366Y-27762579D01*
X13960366Y-27762579D02*
X13969889Y-27743531D01*
X13969889Y-27743531D02*
X13979413Y-27734008D01*
X13979413Y-27734008D02*
X13998461Y-27724484D01*
X14150842Y-27905436D02*
X14160366Y-27914960D01*
X14160366Y-27914960D02*
X14150842Y-27924484D01*
X14150842Y-27924484D02*
X14141318Y-27914960D01*
X14141318Y-27914960D02*
X14150842Y-27905436D01*
X14150842Y-27905436D02*
X14150842Y-27924484D01*
X14284175Y-27724484D02*
X14303223Y-27724484D01*
X14303223Y-27724484D02*
X14322270Y-27734008D01*
X14322270Y-27734008D02*
X14331794Y-27743531D01*
X14331794Y-27743531D02*
X14341318Y-27762579D01*
X14341318Y-27762579D02*
X14350842Y-27800674D01*
X14350842Y-27800674D02*
X14350842Y-27848293D01*
X14350842Y-27848293D02*
X14341318Y-27886388D01*
X14341318Y-27886388D02*
X14331794Y-27905436D01*
X14331794Y-27905436D02*
X14322270Y-27914960D01*
X14322270Y-27914960D02*
X14303223Y-27924484D01*
X14303223Y-27924484D02*
X14284175Y-27924484D01*
X14284175Y-27924484D02*
X14265127Y-27914960D01*
X14265127Y-27914960D02*
X14255604Y-27905436D01*
X14255604Y-27905436D02*
X14246080Y-27886388D01*
X14246080Y-27886388D02*
X14236556Y-27848293D01*
X14236556Y-27848293D02*
X14236556Y-27800674D01*
X14236556Y-27800674D02*
X14246080Y-27762579D01*
X14246080Y-27762579D02*
X14255604Y-27743531D01*
X14255604Y-27743531D02*
X14265127Y-27734008D01*
X14265127Y-27734008D02*
X14284175Y-27724484D01*
X14531794Y-27724484D02*
X14436556Y-27724484D01*
X14436556Y-27724484D02*
X14427032Y-27819722D01*
X14427032Y-27819722D02*
X14436556Y-27810198D01*
X14436556Y-27810198D02*
X14455604Y-27800674D01*
X14455604Y-27800674D02*
X14503223Y-27800674D01*
X14503223Y-27800674D02*
X14522270Y-27810198D01*
X14522270Y-27810198D02*
X14531794Y-27819722D01*
X14531794Y-27819722D02*
X14541318Y-27838769D01*
X14541318Y-27838769D02*
X14541318Y-27886388D01*
X14541318Y-27886388D02*
X14531794Y-27905436D01*
X14531794Y-27905436D02*
X14522270Y-27914960D01*
X14522270Y-27914960D02*
X14503223Y-27924484D01*
X14503223Y-27924484D02*
X14455604Y-27924484D01*
X14455604Y-27924484D02*
X14436556Y-27914960D01*
X14436556Y-27914960D02*
X14427032Y-27905436D01*
X14722270Y-27724484D02*
X14627032Y-27724484D01*
X14627032Y-27724484D02*
X14617508Y-27819722D01*
X14617508Y-27819722D02*
X14627032Y-27810198D01*
X14627032Y-27810198D02*
X14646080Y-27800674D01*
X14646080Y-27800674D02*
X14693699Y-27800674D01*
X14693699Y-27800674D02*
X14712747Y-27810198D01*
X14712747Y-27810198D02*
X14722270Y-27819722D01*
X14722270Y-27819722D02*
X14731794Y-27838769D01*
X14731794Y-27838769D02*
X14731794Y-27886388D01*
X14731794Y-27886388D02*
X14722270Y-27905436D01*
X14722270Y-27905436D02*
X14712747Y-27914960D01*
X14712747Y-27914960D02*
X14693699Y-27924484D01*
X14693699Y-27924484D02*
X14646080Y-27924484D01*
X14646080Y-27924484D02*
X14627032Y-27914960D01*
X14627032Y-27914960D02*
X14617508Y-27905436D01*
X14922270Y-27924484D02*
X14807985Y-27924484D01*
X14865127Y-27924484D02*
X14865127Y-27724484D01*
X14865127Y-27724484D02*
X14846080Y-27753055D01*
X14846080Y-27753055D02*
X14827032Y-27772103D01*
X14827032Y-27772103D02*
X14807985Y-27781627D01*
X14998461Y-27724484D02*
X14998461Y-27762579D01*
X15074651Y-27724484D02*
X15074651Y-27762579D01*
X15369890Y-28000674D02*
X15360366Y-27991150D01*
X15360366Y-27991150D02*
X15341318Y-27962579D01*
X15341318Y-27962579D02*
X15331794Y-27943531D01*
X15331794Y-27943531D02*
X15322270Y-27914960D01*
X15322270Y-27914960D02*
X15312747Y-27867341D01*
X15312747Y-27867341D02*
X15312747Y-27829246D01*
X15312747Y-27829246D02*
X15322270Y-27781627D01*
X15322270Y-27781627D02*
X15331794Y-27753055D01*
X15331794Y-27753055D02*
X15341318Y-27734008D01*
X15341318Y-27734008D02*
X15360366Y-27705436D01*
X15360366Y-27705436D02*
X15369890Y-27695912D01*
X15531794Y-27791150D02*
X15531794Y-27924484D01*
X15484175Y-27714960D02*
X15436556Y-27857817D01*
X15436556Y-27857817D02*
X15560366Y-27857817D01*
X15788937Y-27924484D02*
X15788937Y-27724484D01*
X15874651Y-27924484D02*
X15874651Y-27819722D01*
X15874651Y-27819722D02*
X15865128Y-27800674D01*
X15865128Y-27800674D02*
X15846080Y-27791150D01*
X15846080Y-27791150D02*
X15817509Y-27791150D01*
X15817509Y-27791150D02*
X15798461Y-27800674D01*
X15798461Y-27800674D02*
X15788937Y-27810198D01*
X15998461Y-27924484D02*
X15979413Y-27914960D01*
X15979413Y-27914960D02*
X15969890Y-27905436D01*
X15969890Y-27905436D02*
X15960366Y-27886388D01*
X15960366Y-27886388D02*
X15960366Y-27829246D01*
X15960366Y-27829246D02*
X15969890Y-27810198D01*
X15969890Y-27810198D02*
X15979413Y-27800674D01*
X15979413Y-27800674D02*
X15998461Y-27791150D01*
X15998461Y-27791150D02*
X16027032Y-27791150D01*
X16027032Y-27791150D02*
X16046080Y-27800674D01*
X16046080Y-27800674D02*
X16055604Y-27810198D01*
X16055604Y-27810198D02*
X16065128Y-27829246D01*
X16065128Y-27829246D02*
X16065128Y-27886388D01*
X16065128Y-27886388D02*
X16055604Y-27905436D01*
X16055604Y-27905436D02*
X16046080Y-27914960D01*
X16046080Y-27914960D02*
X16027032Y-27924484D01*
X16027032Y-27924484D02*
X15998461Y-27924484D01*
X16179413Y-27924484D02*
X16160366Y-27914960D01*
X16160366Y-27914960D02*
X16150842Y-27895912D01*
X16150842Y-27895912D02*
X16150842Y-27724484D01*
X16331794Y-27914960D02*
X16312747Y-27924484D01*
X16312747Y-27924484D02*
X16274651Y-27924484D01*
X16274651Y-27924484D02*
X16255604Y-27914960D01*
X16255604Y-27914960D02*
X16246080Y-27895912D01*
X16246080Y-27895912D02*
X16246080Y-27819722D01*
X16246080Y-27819722D02*
X16255604Y-27800674D01*
X16255604Y-27800674D02*
X16274651Y-27791150D01*
X16274651Y-27791150D02*
X16312747Y-27791150D01*
X16312747Y-27791150D02*
X16331794Y-27800674D01*
X16331794Y-27800674D02*
X16341318Y-27819722D01*
X16341318Y-27819722D02*
X16341318Y-27838769D01*
X16341318Y-27838769D02*
X16246080Y-27857817D01*
X16417509Y-27914960D02*
X16436556Y-27924484D01*
X16436556Y-27924484D02*
X16474651Y-27924484D01*
X16474651Y-27924484D02*
X16493699Y-27914960D01*
X16493699Y-27914960D02*
X16503223Y-27895912D01*
X16503223Y-27895912D02*
X16503223Y-27886388D01*
X16503223Y-27886388D02*
X16493699Y-27867341D01*
X16493699Y-27867341D02*
X16474651Y-27857817D01*
X16474651Y-27857817D02*
X16446080Y-27857817D01*
X16446080Y-27857817D02*
X16427032Y-27848293D01*
X16427032Y-27848293D02*
X16417509Y-27829246D01*
X16417509Y-27829246D02*
X16417509Y-27819722D01*
X16417509Y-27819722D02*
X16427032Y-27800674D01*
X16427032Y-27800674D02*
X16446080Y-27791150D01*
X16446080Y-27791150D02*
X16474651Y-27791150D01*
X16474651Y-27791150D02*
X16493699Y-27800674D01*
X16569890Y-28000674D02*
X16579413Y-27991150D01*
X16579413Y-27991150D02*
X16598461Y-27962579D01*
X16598461Y-27962579D02*
X16607985Y-27943531D01*
X16607985Y-27943531D02*
X16617509Y-27914960D01*
X16617509Y-27914960D02*
X16627032Y-27867341D01*
X16627032Y-27867341D02*
X16627032Y-27829246D01*
X16627032Y-27829246D02*
X16617509Y-27781627D01*
X16617509Y-27781627D02*
X16607985Y-27753055D01*
X16607985Y-27753055D02*
X16598461Y-27734008D01*
X16598461Y-27734008D02*
X16579413Y-27705436D01*
X16579413Y-27705436D02*
X16569890Y-27695912D01*
M02*
