<?xml version="1.0" standalone="no"?>
 <!DOCTYPE svg PUBLIC "-//W3C//DTD SVG 1.1//EN" 
 "http://www.w3.org/Graphics/SVG/1.1/DTD/svg11.dtd"> 
<svg
  xmlns:svg="http://www.w3.org/2000/svg"
  xmlns="http://www.w3.org/2000/svg"
  xmlns:xlink="http://www.w3.org/1999/xlink"
  version="1.1"
  width="301.4726mm" height="234.1372mm" viewBox="0.0000 0.0000 301.4726 234.1372">
<title>SVG Image created as bandoneon_facu-brd.svg date 2024/01/31 22:02:48 </title>
  <desc>Image generated by PCBNEW </desc>
<g style="fill:#000000; fill-opacity:1.0000;stroke:#000000; stroke-opacity:1.0000;
stroke-linecap:round; stroke-linejoin:round;"
 transform="translate(0 0) scale(1 1)">
</g>
<g style="fill:#000000; fill-opacity:0.0; 
stroke:#000000; stroke-width:0.0000; stroke-opacity:1; 
stroke-linecap:round; stroke-linejoin:round;">
</g>
<g style="fill:#C2C2C2; fill-opacity:0.0; 
stroke:#C2C2C2; stroke-width:0.0000; stroke-opacity:1; 
stroke-linecap:round; stroke-linejoin:round;">
</g>
<g style="fill:#C2C2C2; fill-opacity:0.0; 
stroke:#C2C2C2; stroke-width:0.1500; stroke-opacity:1; 
stroke-linecap:round; stroke-linejoin:round;">
<path style="fill:#C2C2C2; fill-opacity:0.0; 
stroke:#C2C2C2; stroke-width:0.1500; stroke-opacity:1; 
stroke-linecap:round; stroke-linejoin:round;fill:none"
d="M 0.0750,0.4550
123.3550,0.4550
123.3550,233.7350
0.0750,233.7350
Z" /> 
<path style="fill:#C2C2C2; fill-opacity:0.0; 
stroke:#C2C2C2; stroke-width:0.1500; stroke-opacity:1; 
stroke-linecap:round; stroke-linejoin:round;fill:none"
d="M 192.8550,0.0750
301.4050,0.0750
301.4050,234.0750
192.8550,234.0750
Z" /> 
</g>
<g style="fill:#C2C2C2; fill-opacity:0.0; 
stroke:#C2C2C2; stroke-width:0.1000; stroke-opacity:1; 
stroke-linecap:round; stroke-linejoin:round;">
<circle cx="326.0195" cy="61.4195" r="0.7500" /> 
<circle cx="336.1795" cy="61.4195" r="0.7500" /> 
<circle cx="61.3586" cy="177.7014" r="0.7500" /> 
<circle cx="68.5428" cy="170.5172" r="0.7500" /> 
<circle cx="102.7955" cy="154.9810" r="0.7500" /> 
<circle cx="109.9797" cy="147.7968" r="0.7500" /> 
<circle cx="326.0195" cy="77.8195" r="0.7500" /> 
<circle cx="336.1795" cy="77.8195" r="0.7500" /> 
<circle cx="249.3055" cy="164.9210" r="0.7500" /> 
<circle cx="256.4897" cy="157.7368" r="0.7500" /> 
<circle cx="45.5155" cy="113.1610" r="0.7500" /> 
<circle cx="52.6997" cy="105.9768" r="0.7500" /> 
<circle cx="342.1195" cy="45.0195" r="0.7500" /> 
<circle cx="352.2795" cy="45.0195" r="0.7500" /> 
<circle cx="84.4086" cy="109.2514" r="0.7500" /> 
<circle cx="91.5928" cy="102.0672" r="0.7500" /> 
<circle cx="43.8386" cy="92.8714" r="0.7500" /> 
<circle cx="51.0228" cy="85.6872" r="0.7500" /> 
<circle cx="258.0890" cy="135.6545" r="0.7500" /> 
<circle cx="265.2732" cy="128.4703" r="0.7500" /> 
<circle cx="342.1195" cy="94.2195" r="0.7500" /> 
<circle cx="352.2795" cy="94.2195" r="0.7500" /> 
<circle cx="342.1195" cy="77.8195" r="0.7500" /> 
<circle cx="352.2795" cy="77.8195" r="0.7500" /> 
<circle cx="223.0686" cy="164.8914" r="0.7500" /> 
<circle cx="230.2528" cy="157.7072" r="0.7500" /> 
<circle cx="241.2786" cy="63.4014" r="0.7500" /> 
<circle cx="248.4628" cy="56.2172" r="0.7500" /> 
<circle cx="245.0162" cy="144.0723" r="0.7500" /> 
<circle cx="252.2004" cy="136.8881" r="0.7500" /> 
<circle cx="73.0112" cy="119.2840" r="0.7500" /> 
<circle cx="80.1954" cy="112.0998" r="0.7500" /> 
<circle cx="52.5886" cy="164.4814" r="0.7500" /> 
<circle cx="59.7728" cy="157.2972" r="0.7500" /> 
<circle cx="342.1195" cy="61.4195" r="0.7500" /> 
<circle cx="352.2795" cy="61.4195" r="0.7500" /> 
<circle cx="81.2155" cy="150.3310" r="0.7500" /> 
<circle cx="88.3997" cy="143.1468" r="0.7500" /> 
<circle cx="248.6786" cy="77.8814" r="0.7500" /> 
<circle cx="255.8628" cy="70.6972" r="0.7500" /> 
<circle cx="95.6890" cy="91.7555" r="0.7500" /> 
<circle cx="102.8732" cy="98.9397" r="0.7500" /> 
<circle cx="73.4955" cy="98.3610" r="0.7500" /> 
<circle cx="80.6797" cy="91.1768" r="0.7500" /> 
<circle cx="54.5390" cy="67.8145" r="0.7500" /> 
<circle cx="61.7232" cy="60.6303" r="0.7500" /> 
<circle cx="214.4886" cy="79.3814" r="0.7500" /> 
<circle cx="221.6728" cy="72.1972" r="0.7500" /> 
<circle cx="58.2655" cy="85.9210" r="0.7500" /> 
<circle cx="65.4497" cy="78.7368" r="0.7500" /> 
<circle cx="234.6855" cy="85.3310" r="0.7500" /> 
<circle cx="241.8697" cy="78.1468" r="0.7500" /> 
<circle cx="82.1390" cy="59.5855" r="0.7500" /> 
<circle cx="89.3232" cy="66.7697" r="0.7500" /> 
<circle cx="209.8655" cy="128.6610" r="0.7500" /> 
<circle cx="217.0497" cy="121.4768" r="0.7500" /> 
<circle cx="227.2886" cy="70.7914" r="0.7500" /> 
<circle cx="234.4728" cy="63.6072" r="0.7500" /> 
<circle cx="44.6086" cy="133.6714" r="0.7500" /> 
<circle cx="51.7928" cy="126.4872" r="0.7500" /> 
<circle cx="230.9055" cy="151.3410" r="0.7500" /> 
<circle cx="238.0897" cy="144.1568" r="0.7500" /> 
<circle cx="221.7555" cy="93.9410" r="0.7500" /> 
<circle cx="228.9397" cy="86.7568" r="0.7500" /> 
<circle cx="262.3655" cy="156.5810" r="0.7500" /> 
<circle cx="269.5497" cy="149.3968" r="0.7500" /> 
<circle cx="271.5504" cy="197.6071" r="0.7500" /> 
<circle cx="278.7346" cy="190.4229" r="0.7500" /> 
<circle cx="72.0548" cy="204.7980" r="0.7500" /> 
<circle cx="82.2148" cy="204.7980" r="0.7500" /> 
<circle cx="105.5084" cy="131.8016" r="0.7500" /> 
<circle cx="112.6926" cy="124.6174" r="0.7500" /> 
<circle cx="88.1548" cy="204.7980" r="0.7500" /> 
<circle cx="98.3148" cy="204.7980" r="0.7500" /> 
<circle cx="94.1590" cy="141.8245" r="0.7500" /> 
<circle cx="101.3432" cy="134.6403" r="0.7500" /> 
<circle cx="84.9590" cy="88.0945" r="0.7500" /> 
<circle cx="92.1432" cy="80.9103" r="0.7500" /> 
<circle cx="83.8184" cy="130.3216" r="0.7500" /> 
<circle cx="91.0026" cy="123.1374" r="0.7500" /> 
<circle cx="71.6155" cy="77.9010" r="0.7500" /> 
<circle cx="78.7997" cy="70.7168" r="0.7500" /> 
<circle cx="220.2974" cy="117.7026" r="0.7500" /> 
<circle cx="227.4816" cy="110.5184" r="0.7500" /> 
<circle cx="236.3586" cy="173.4014" r="0.7500" /> 
<circle cx="243.5428" cy="166.2172" r="0.7500" /> 
<circle cx="67.1955" cy="157.7110" r="0.7500" /> 
<circle cx="74.3797" cy="150.5268" r="0.7500" /> 
<circle cx="48.6060" cy="46.1059" r="0.7500" /> 
<circle cx="57.8877" cy="41.9735" r="0.7500" /> 
<circle cx="230.9786" cy="107.0214" r="0.7500" /> 
<circle cx="238.1628" cy="99.8372" r="0.7500" /> 
<circle cx="268.7222" cy="47.9917" r="0.7500" /> 
<circle cx="275.9064" cy="40.8075" r="0.7500" /> 
<circle cx="56.3786" cy="145.6614" r="0.7500" /> 
<circle cx="63.5628" cy="138.4772" r="0.7500" /> 
<circle cx="94.3886" cy="68.7586" r="0.7500" /> 
<circle cx="101.5728" cy="75.9428" r="0.7500" /> 
<circle cx="105.1390" cy="79.3655" r="0.7500" /> 
<circle cx="112.3232" cy="86.5497" r="0.7500" /> 
<circle cx="40.0786" cy="74.7714" r="0.7500" /> 
<circle cx="47.2628" cy="67.5872" r="0.7500" /> 
<circle cx="219.9855" cy="140.4210" r="0.7500" /> 
<circle cx="227.1697" cy="133.2368" r="0.7500" /> 
<circle cx="266.9518" cy="180.0873" r="0.7500" /> 
<circle cx="274.1360" cy="172.9031" r="0.7500" /> 
<circle cx="228.0229" cy="186.4971" r="0.7500" /> 
<circle cx="235.2071" cy="179.3129" r="0.7500" /> 
<circle cx="47.4586" cy="185.3014" r="0.7500" /> 
<circle cx="54.6428" cy="178.1172" r="0.7500" /> 
<circle cx="211.1555" cy="104.9510" r="0.7500" /> 
<circle cx="218.3397" cy="97.7668" r="0.7500" /> 
<circle cx="75.8555" cy="170.8310" r="0.7500" /> 
<circle cx="83.0397" cy="163.6468" r="0.7500" /> 
<circle cx="254.7857" cy="55.4351" r="0.7500" /> 
<circle cx="261.9699" cy="48.2509" r="0.7500" /> 
<circle cx="67.7086" cy="59.6214" r="0.7500" /> 
<circle cx="74.8928" cy="52.4372" r="0.7500" /> 
<circle cx="257.5084" cy="113.3416" r="0.7500" /> 
<circle cx="264.6926" cy="106.1574" r="0.7500" /> 
<circle cx="245.0401" cy="99.6306" r="0.7500" /> 
<circle cx="252.2243" cy="92.4464" r="0.7500" /> 
<circle cx="32.9584" cy="192.2516" r="0.7500" /> 
<circle cx="40.1426" cy="185.0674" r="0.7500" /> 
<circle cx="326.0195" cy="45.0195" r="0.7500" /> 
<circle cx="336.1795" cy="45.0195" r="0.7500" /> 
<circle cx="95.3355" cy="120.1810" r="0.7500" /> 
<circle cx="102.5197" cy="112.9968" r="0.7500" /> 
<circle cx="212.1490" cy="154.0145" r="0.7500" /> 
<circle cx="219.3332" cy="146.8303" r="0.7500" /> 
<circle cx="243.5055" cy="120.7810" r="0.7500" /> 
<circle cx="250.6897" cy="113.5968" r="0.7500" /> 
<circle cx="89.8855" cy="163.4610" r="0.7500" /> 
<circle cx="97.0697" cy="156.2768" r="0.7500" /> 
<circle cx="34.8650" cy="52.3839" r="0.7500" /> 
<circle cx="44.1467" cy="48.2514" r="0.7500" /> 
<circle cx="220.3755" cy="55.8810" r="0.7500" /> 
<circle cx="227.5597" cy="48.6968" r="0.7500" /> 
<circle cx="234.3729" cy="48.4671" r="0.7500" /> 
<circle cx="241.5571" cy="41.2829" r="0.7500" /> 
<circle cx="262.1055" cy="69.9410" r="0.7500" /> 
<circle cx="269.2897" cy="62.7568" r="0.7500" /> 
<circle cx="59.8986" cy="106.1514" r="0.7500" /> 
<circle cx="67.0828" cy="98.9672" r="0.7500" /> 
<circle cx="38.8186" cy="172.0681" r="0.7500" /> 
<circle cx="46.0028" cy="164.8839" r="0.7500" /> 
<circle cx="70.9129" cy="138.8371" r="0.7500" /> 
<circle cx="78.0971" cy="131.6529" r="0.7500" /> 
<circle cx="253.6229" cy="188.1671" r="0.7500" /> 
<circle cx="260.8071" cy="180.9829" r="0.7500" /> 
<circle cx="106.4090" cy="102.4455" r="0.7500" /> 
<circle cx="113.5932" cy="109.6297" r="0.7500" /> 
<circle cx="57.9655" cy="125.6310" r="0.7500" /> 
<circle cx="65.1497" cy="118.4468" r="0.7500" /> 
<circle cx="41.9486" cy="153.3214" r="0.7500" /> 
<circle cx="49.1328" cy="146.1372" r="0.7500" /> 
<circle cx="230.7729" cy="129.4371" r="0.7500" /> 
<circle cx="237.9571" cy="122.2529" r="0.7500" /> 
<circle cx="258.9755" cy="92.1910" r="0.7500" /> 
<circle cx="266.1597" cy="85.0068" r="0.7500" /> 
<g >
</g>
<g >
</g>
<g >
</g>
<g >
</g>
<g >
</g>
<g >
</g>
<g >
</g>
<g >
</g>
<g >
</g>
<g >
</g>
<g >
</g>
<g >
</g>
<g >
</g>
<g >
</g>
<g >
</g>
<g >
</g>
<g >
</g>
<g >
</g>
<g >
</g>
<g >
</g>
<g >
</g>
<g >
</g>
<g >
</g>
<g >
</g>
<g >
</g>
<g >
</g>
<g >
</g>
<g >
</g>
<g >
</g>
<g >
</g>
<g >
</g>
<g >
</g>
<g >
</g>
<g >
</g>
<g >
</g>
<g >
</g>
<g >
</g>
<g >
</g>
<g >
</g>
<g >
</g>
<g >
</g>
<g >
</g>
<g >
</g>
<g >
</g>
<g >
</g>
<g >
</g>
<g >
</g>
<g >
</g>
<g >
</g>
<g >
</g>
<g >
</g>
<g >
</g>
<g >
</g>
<g >
</g>
<g >
</g>
<g >
</g>
<g >
</g>
<g >
</g>
<g >
</g>
<g >
</g>
<g >
</g>
<g >
</g>
<g >
</g>
<g >
</g>
<g >
</g>
<g >
</g>
<g >
</g>
<g >
</g>
<g >
</g>
<g >
</g>
<g >
</g>
<g >
</g>
<g >
</g>
<g >
</g>
<g >
</g>
<g >
</g>
<g >
</g>
<g >
</g>
<g >
</g>
<g >
</g>
<g >
</g>
<g >
</g>
<g >
</g>
<g >
</g>
<g >
</g>
<g >
</g>
<g >
</g>
<g >
</g>
<g >
</g>
<g >
</g>
<g >
</g>
<g >
</g>
<g >
</g>
<g >
</g>
<g >
</g>
<g >
</g>
</g> 
</svg>
