0
SECTION
2
HEADER
9
$INSUNITS
70
4
9
$ACADVER
1
AC1014
9
$HANDSEED
5
FFFF
0
ENDSEC
0
SECTION
2
TABLES
0
TABLE
2
VPORT
5
8
100
AcDbSymbolTable
0
ENDTAB
0
TABLE
2
LTYPE
5
5
100
AcDbSymbolTable
0
LTYPE
5
14
100
AcDbSymbolTableRecord
100
AcDbLinetypeTableRecord
2
BYBLOCK
70
0
0
LTYPE
5
15
100
AcDbSymbolTableRecord
100
AcDbLinetypeTableRecord
2
BYLAYER
70
0
0
ENDTAB
0
TABLE
2
LAYER
5
2
100
AcDbSymbolTable
70
2
0
LAYER
5
50
100
AcDbSymbolTableRecord
100
AcDbLayerTableRecord
2
0
70
0
6
CONTINUOUS
0
ENDTAB
0
TABLE
2
STYLE
5
3
100
AcDbSymbolTable
70
1
0
STYLE
5
11
100
AcDbSymbolTableRecord
100
AcDbTextStyleTableRecord
2
STANDARD
70
0
0
ENDTAB
0
TABLE
2
VIEW
5
6
100
AcDbSymbolTable
70
0
0
ENDTAB
0
TABLE
2
UCS
5
7
100
AcDbSymbolTable
70
0
0
ENDTAB
0
TABLE
2
APPID
5
9
100
AcDbSymbolTable
70
2
0
APPID
5
12
100
AcDbSymbolTableRecord
100
AcDbRegAppTableRecord
2
ACAD
70
0
0
ENDTAB
0
TABLE
2
DIMSTYLE
5
A
100
AcDbSymbolTable
70
1
0
ENDTAB
0
TABLE
2
BLOCK_RECORD
5
1
100
AcDbSymbolTable
70
1
0
BLOCK_RECORD
5
1F
100
AcDbSymbolTableRecord
100
AcDbBlockTableRecord
2
*MODEL_SPACE
0
BLOCK_RECORD
5
1B
100
AcDbSymbolTableRecord
100
AcDbBlockTableRecord
2
*PAPER_SPACE
0
ENDTAB
0
ENDSEC
0
SECTION
2
BLOCKS
0
BLOCK
5
20
100
AcDbEntity
100
AcDbBlockBegin
2
*MODEL_SPACE
0
ENDBLK
5
21
100
AcDbEntity
100
AcDbBlockEnd
0
BLOCK
5
1C
100
AcDbEntity
100
AcDbBlockBegin
2
*PAPER_SPACE
0
ENDBLK
5
1D
100
AcDbEntity
100
AcDbBlockEnd
0
ENDSEC
0
SECTION
2
ENTITIES
0
LWPOLYLINE
5
100
100
AcDbEntity
8
0
100
AcDbPolyline
90
36
70
1
43
0.0
10
-71.271124165137806
20
-88.716263999999995
10
-71.271124165137806
20
-86.71626400000001
10
-145.89189700000463
20
-86.71626400000001
42
-0.19891236737965881
10
-155.08428515542192
20
-82.908652155428371
10
-200.60412115505778
20
-37.388816155933412
42
-0.19891236737965845
10
-204.41173299956378
20
-28.196428000674551
10
-204.41173299997502
20
23.002574688816033
42
-0.35411857260089807
10
-194.11458497730209
20
35.718493499191638
10
-193.90115069970764
20
35.763860355738203
10
-79.26747647478841
20
60.129999999976
10
58.30747647538972
20
60.129999999976079
10
172.94115070270107
20
35.763860354419322
10
173.15458498169374
20
35.718493497847973
42
-0.35411857254678009
10
183.45173300827872
20
23.00257468014081
10
183.45173300000002
20
-28.196427999532133
42
-0.19891236738002294
10
179.64412115541745
20
-37.388816154957581
10
134.124285155477
20
-82.908652155244511
42
-0.19891236738338153
10
124.93189699996253
20
-86.716263999933489
10
31.305078287366204
20
-86.71626400000001
42
0.1555953226846144
10
32.930141332109237
20
-88.716263999999995
10
124.93189699996253
20
-88.716263999999995
42
0.19891236738308773
10
135.53849871785837
20
-84.322865717609332
10
181.0583347177058
20
-38.803029717229407
42
0.1989123673797715
10
185.45173300000002
20
-28.196427999532148
10
185.45173300827872
20
23.002574680140807
42
0.35411857253015266
10
173.57040836408456
20
37.674788699155052
10
173.35697408433981
20
37.720155555886244
10
58.517684946033626
20
62.129999999976079
10
-79.477684945314593
20
62.129999999976
10
-194.31697408448758
20
37.720155556537449
10
-194.53040836208206
20
37.674788699990891
42
0.3541185725312409
10
-206.41173299997502
20
23.002574688816033
10
-206.41173299997502
20
-28.196428000674551
42
0.19891236737965848
10
-202.01833471743086
20
-38.803029718306512
10
-156.49849871786546
20
-84.322865717871906
42
0.19891236737965842
10
-145.89189700000466
20
-88.716263999999995
0
LWPOLYLINE
5
101
100
AcDbEntity
8
0
100
AcDbPolyline
90
4
70
1
43
0.0
10
-36.728875834862251
20
-86.71626400000001
10
-36.728875834862251
20
-88.716263999999995
10
25.748018237518529
20
-88.716263999999981
42
0.15559532268461346
10
27.373081282261559
20
-86.71626400000001
0
LWPOLYLINE
5
102
100
AcDbEntity
8
0
100
AcDbPolyline
90
4
70
1
43
0.0
10
-46.271124165137749
20
-88.716263999999995
10
-46.271124165137749
20
-86.71626400000001
10
-61.728875834862301
20
-86.71626400000001
10
-61.728875834862301
20
-88.716263999999995
0
CIRCLE
5
103
100
AcDbEntity
8
0
100
AcDbCircle
10
-198.34082949371492
20
-31.066553743446399
30
0
40
1.7999999999999972
210
-1.2130000606356082e-97
220
3.4211388289180104e-49
230
1
0
CIRCLE
5
104
100
AcDbEntity
8
0
100
AcDbCircle
10
-197.24032771079669
20
27.722477621747487
30
0
40
1.7999999999999972
210
-1.2130000606356082e-97
220
3.4211388289180104e-49
230
1
0
CIRCLE
5
105
100
AcDbEntity
8
0
100
AcDbCircle
10
177.38082949384358
20
-31.066553742268397
30
0
40
1.7999999999999972
210
-1.1333538226293061e-98
220
3.4211388289180104e-49
230
1
0
CIRCLE
5
106
100
AcDbEntity
8
0
100
AcDbCircle
10
176.28032771420158
20
27.722477615586691
30
0
40
1.7999999999999972
210
-1.1333538226293061e-98
220
3.4211388289180104e-49
230
1
0
CIRCLE
5
107
100
AcDbEntity
8
0
100
AcDbCircle
10
148.00000000000031
20
-61.500000000000256
30
0
40
1.7999999999999972
210
-1.1333538226293061e-98
220
3.4211388289180104e-49
230
1
0
CIRCLE
5
108
100
AcDbEntity
8
0
100
AcDbCircle
10
108.0000000000001
20
-79.500000000000014
30
0
40
1.7999999999999972
210
-1.1333538226293061e-98
220
3.4211388289180104e-49
230
1
0
CIRCLE
5
109
100
AcDbEntity
8
0
100
AcDbCircle
10
61.000000000000071
20
-73.000000000000085
30
-2.2204460492503131e-15
40
1.7999999999999972
210
-1.1333538226293061e-98
220
3.4211388289180104e-49
230
1
0
CIRCLE
5
110
100
AcDbEntity
8
0
100
AcDbCircle
10
33.50000000000005
20
-62.500000000000085
30
0
40
1.8000000000000016
210
1.1333538226293061e-98
220
-3.4211388289180104e-49
230
1
0
LWPOLYLINE
5
111
100
AcDbEntity
8
0
100
AcDbPolyline
90
13
70
1
43
0.0
10
34.930141332108946
20
-72.475640255852213
10
31.140121587622932
20
-72.475640255852596
10
31.140121587622925
20
-74.475640255852596
10
32.930141332108967
20
-74.47564025585261
10
32.930141332108953
20
-78.475640255852596
10
31.089079784813926
20
-78.475640255852582
10
31.089079784813901
20
-80.475640255852568
10
33.003413198267921
20
-80.475640255852568
10
33.003413198267907
20
-84.475640255852568
10
31.012517080600439
20
-84.475640255852397
10
31.012517080600503
20
-85.168436089175103
42
0.093677673075168583
10
31.305078287366204
20
-86.716263999999995
10
34.930141332109208
20
-86.71626400000001
0
LWPOLYLINE
5
112
100
AcDbEntity
8
0
100
AcDbPolyline
90
13
70
1
43
0.0
10
27.373081282261555
20
-86.71626400000001
42
0.093677673075170817
10
27.665642489027281
20
-85.168436089175088
10
27.665642489027341
20
-84.475640255852383
10
25.67474637135988
20
-84.475640255852511
10
25.67474637135988
20
-80.475640255852539
10
27.589079784813904
20
-80.475640255852539
10
27.589079784813887
20
-78.475640255852568
10
25.74801823751887
20
-78.475640255852582
10
25.74801823751887
20
-74.475640255852582
10
27.538037982004916
20
-74.475640255852582
10
27.538037982004923
20
-72.475640255852582
10
23.748018237518913
20
-72.475640255852184
10
23.748018237518579
20
-86.71626400000001
0
CIRCLE
5
113
100
AcDbEntity
8
0
100
AcDbCircle
10
20.500000000000014
20
-28.500000000000021
30
0
40
1.8000000000000016
210
1.1333538226293061e-98
220
-3.4211388289180104e-49
230
1
0
CIRCLE
5
114
100
AcDbEntity
8
0
100
AcDbCircle
10
-20.000000000000089
20
-28.500000000000068
30
0
40
1.7999999999999992
210
2.4651903288156624e-32
220
0
230
1
0
CIRCLE
5
115
100
AcDbEntity
8
0
100
AcDbCircle
10
-54
20
-62.000000000000021
30
0
40
1.7999999999999972
210
-1.1333538226293061e-98
220
3.4211388289180104e-49
230
1
0
CIRCLE
5
116
100
AcDbEntity
8
0
100
AcDbCircle
10
-90.499999999999659
20
-66.499999999999986
30
0
40
1.7999999999999972
210
-1.1333538226293061e-98
220
3.4211388289180104e-49
230
1
0
CIRCLE
5
117
100
AcDbEntity
8
0
100
AcDbCircle
10
-111.00000000000009
20
5.0000000000000018
30
0
40
1.7999999999999972
210
-1.1333538226293061e-98
220
3.4211388289180104e-49
230
1
0
CIRCLE
5
118
100
AcDbEntity
8
0
100
AcDbCircle
10
-25.999999999999748
20
25.499999999999918
30
2.2204460492503131e-15
40
1.8000000000000016
210
1.1333538226293061e-98
220
-3.4211388289180104e-49
230
1
0
CIRCLE
5
119
100
AcDbEntity
8
0
100
AcDbCircle
10
48.500000000000028
20
25.500000000000096
30
2.2204460492503131e-15
40
1.7999999999999972
210
-1.1333538226293061e-98
220
3.4211388289180104e-49
230
1
0
CIRCLE
5
120
100
AcDbEntity
8
0
100
AcDbCircle
10
101.00000000000016
20
7.9999999999998828
30
0
40
1.7999999999999972
210
-1.1333538226293061e-98
220
3.4211388289180104e-49
230
1
0
CIRCLE
5
121
100
AcDbEntity
8
0
100
AcDbCircle
10
146.00000000000017
20
2.5000000000002132
30
0
40
1.7999999999999972
210
-1.1333538226293061e-98
220
3.4211388289180104e-49
230
1
0
CIRCLE
5
122
100
AcDbEntity
8
0
100
AcDbCircle
10
-69.000000000000028
20
55
30
0
40
1.7999999999999972
210
-1.1333538226293061e-98
220
3.4211388289180104e-49
230
1
0
CIRCLE
5
123
100
AcDbEntity
8
0
100
AcDbCircle
10
50.000000000000007
20
55
30
0
40
1.7999999999999972
210
-1.1333538226293061e-98
220
3.4211388289180104e-49
230
1
0
CIRCLE
5
124
100
AcDbEntity
8
0
100
AcDbCircle
10
-175.49999999999997
20
1.5000000000000036
30
0
40
1.7999999999999972
210
-1.1333538226293061e-98
220
3.4211388289180104e-49
230
1
0
CIRCLE
5
125
100
AcDbEntity
8
0
100
AcDbCircle
10
-177.00000000000028
20
-43.000000000000028
30
0
40
1.7999999999999972
210
-1.1333538226293061e-98
220
3.4211388289180104e-49
230
1
0
CIRCLE
5
126
100
AcDbEntity
8
0
100
AcDbCircle
10
-152.50000000000003
20
-65.5
30
0
40
1.7999999999999972
210
-1.1333538226293061e-98
220
3.4211388289180104e-49
230
1
0
CIRCLE
5
127
100
AcDbEntity
8
0
100
AcDbCircle
10
-117.00000000000009
20
-70.000000000000014
30
0
40
1.7999999999999972
210
-1.1333538226293061e-98
220
3.4211388289180104e-49
230
1
0
LINE
5
128
100
AcDbEntity
8
0
100
AcDbLine
10
27.373081282261555
20
-86.71626400000001
30
-2.2204460492503131e-15
11
31.305078287366204
21
-86.716263999999995
31
1.3556055465487612e-46
0
LINE
5
129
100
AcDbEntity
8
0
100
AcDbLine
10
-36.728875834862251
20
-86.71626400000001
30
0
11
-46.271124165137749
21
-86.71626400000001
31
0
0
LINE
5
130
100
AcDbEntity
8
0
100
AcDbLine
10
-61.728875834862301
20
-86.71626400000001
30
0
11
-71.271124165137806
21
-86.71626400000001
31
0
0
ARC
5
131
100
AcDbEntity
8
0
100
AcDbCircle
10
-191.41173299980963
20
23.002574688815997
30
0
40
11.500000000165389
210
0
220
0
230
1
100
AcDbArc
50
101.99999998570385
51
180
0
LINE
5
132
100
AcDbEntity
8
0
100
AcDbLine
10
-202.91173299956381
20
-28.1964280006625
30
0
11
-202.91173299997502
21
23.002574688816026
31
0
0
ARC
5
133
100
AcDbEntity
8
0
100
AcDbCircle
10
-191.41173299979894
20
-28.196428000674558
30
0
40
11.499999999764867
210
0
220
0
230
1
100
AcDbArc
50
180
51
225.00000000000023
0
LINE
5
134
100
AcDbEntity
8
0
100
AcDbLine
10
-154.02362498364374
20
-81.847991983646892
30
0
11
-199.54346098327792
21
-36.328155984153597
31
0
0
ARC
5
135
100
AcDbEntity
8
0
100
AcDbCircle
10
-145.89189700000466
20
-73.716264000011137
30
0
40
11.499999999988862
210
0
220
0
230
1
100
AcDbArc
50
224.99999999998826
51
270.00000000000017
0
LINE
5
136
100
AcDbEntity
8
0
100
AcDbLine
10
-71.271124165137806
20
-85.21626400000001
30
0
11
-145.89189700000463
21
-85.21626400000001
31
0
0
LINE
5
137
100
AcDbEntity
8
0
100
AcDbLine
10
-61.728875834862301
20
-85.21626400000001
30
0
11
-71.271124165137806
21
-85.21626400000001
31
0
0
LINE
5
138
100
AcDbEntity
8
0
100
AcDbLine
10
-46.271124165137749
20
-85.21626400000001
30
0
11
-61.728875834862301
21
-85.21626400000001
31
0
0
LINE
5
139
100
AcDbEntity
8
0
100
AcDbLine
10
-36.728875834862251
20
-85.21626400000001
30
0
11
-46.271124165137749
21
-85.21626400000001
31
0
0
LINE
5
140
100
AcDbEntity
8
0
100
AcDbLine
10
27.373081282261559
20
-85.21626400000001
30
-1.2358362281436715e-32
11
-36.728875834862251
21
-85.21626400000001
31
0
0
LINE
5
141
100
AcDbEntity
8
0
100
AcDbLine
10
27.373081282261559
20
-85.21626400000001
30
-1.2358362281436715e-32
11
31.305078287366193
21
-85.216263999999995
31
0
0
LINE
5
142
100
AcDbEntity
8
0
100
AcDbLine
10
124.93189699996148
20
-85.216263999933489
30
0
11
31.305078287366193
21
-85.216263999999995
31
0
0
ARC
5
143
100
AcDbEntity
8
0
100
AcDbCircle
10
124.93189699996262
20
-73.71626399999343
30
0
40
11.499999999940052
210
0
220
0
230
1
100
AcDbArc
50
269.99999999999432
51
315.00000000082048
0
LINE
5
144
100
AcDbEntity
8
0
100
AcDbLine
10
178.58346098363359
20
-36.328155983181794
30
0
11
133.06362498368196
21
-81.847991983479886
31
0
0
ARC
5
145
100
AcDbEntity
8
0
100
AcDbCircle
10
170.45173300001781
20
-28.19642799953213
30
0
40
11.499999999982213
210
0
220
0
230
1
100
AcDbArc
50
314.99999999988057
51
360
0
LINE
5
146
100
AcDbEntity
8
0
100
AcDbLine
10
181.95173300827875
20
23.002574680383354
30
-3.0514279520757016e-31
11
181.95173299999999
21
-28.196427999532133
31
0
0
ARC
5
147
100
AcDbEntity
8
0
100
AcDbCircle
10
170.45173300008651
20
23.002574680140768
30
1.4368783081455644e-45
40
11.500000008192259
210
2.6534156086104075e-32
220
5.5972803564120726e-43
230
1
100
AcDbArc
50
0
51
78.000000003275218
0
LINE
5
148
100
AcDbEntity
8
0
100
AcDbLine
10
-193.58928316348852
20
34.296638954635903
30
0
11
-79.109820121893804
21
58.629999999975993
31
0
0
LINE
5
149
100
AcDbEntity
8
0
100
AcDbLine
10
-79.109820121893804
20
58.629999999975993
30
0
11
58.149820122489984
21
58.629999999976079
31
0
0
LINE
5
150
100
AcDbEntity
8
0
100
AcDbLine
10
58.149820122489984
20
58.629999999976079
30
0
11
172.62928316647196
21
34.296638953319132
31
0
0
ENDSEC
0
SECTION
2
OBJECTS
0
DICTIONARY
5
C
100
AcDbDictionary
3
ACAD_GROUP
350
D
3
ACAD_MLINESTYLE
350
17
0
DICTIONARY
5
D
100
AcDbDictionary
0
DICTIONARY
5
1A
330
C
100
AcDbDictionary
0
DICTIONARY
5
17
100
AcDbDictionary
0
ENDSEC
0
EOF
