0
SECTION
2
HEADER
9
$INSUNITS
70
4
9
$ACADVER
1
AC1014
9
$HANDSEED
5
FFFF
0
ENDSEC
0
SECTION
2
TABLES
0
TABLE
2
VPORT
5
8
100
AcDbSymbolTable
0
ENDTAB
0
TABLE
2
LTYPE
5
5
100
AcDbSymbolTable
0
LTYPE
5
14
100
AcDbSymbolTableRecord
100
AcDbLinetypeTableRecord
2
BYBLOCK
70
0
0
LTYPE
5
15
100
AcDbSymbolTableRecord
100
AcDbLinetypeTableRecord
2
BYLAYER
70
0
0
ENDTAB
0
TABLE
2
LAYER
5
2
100
AcDbSymbolTable
70
2
0
LAYER
5
50
100
AcDbSymbolTableRecord
100
AcDbLayerTableRecord
2
0
70
0
6
CONTINUOUS
0
ENDTAB
0
TABLE
2
STYLE
5
3
100
AcDbSymbolTable
70
1
0
STYLE
5
11
100
AcDbSymbolTableRecord
100
AcDbTextStyleTableRecord
2
STANDARD
70
0
0
ENDTAB
0
TABLE
2
VIEW
5
6
100
AcDbSymbolTable
70
0
0
ENDTAB
0
TABLE
2
UCS
5
7
100
AcDbSymbolTable
70
0
0
ENDTAB
0
TABLE
2
APPID
5
9
100
AcDbSymbolTable
70
2
0
APPID
5
12
100
AcDbSymbolTableRecord
100
AcDbRegAppTableRecord
2
ACAD
70
0
0
ENDTAB
0
TABLE
2
DIMSTYLE
5
A
100
AcDbSymbolTable
70
1
0
ENDTAB
0
TABLE
2
BLOCK_RECORD
5
1
100
AcDbSymbolTable
70
1
0
BLOCK_RECORD
5
1F
100
AcDbSymbolTableRecord
100
AcDbBlockTableRecord
2
*MODEL_SPACE
0
BLOCK_RECORD
5
1B
100
AcDbSymbolTableRecord
100
AcDbBlockTableRecord
2
*PAPER_SPACE
0
ENDTAB
0
ENDSEC
0
SECTION
2
BLOCKS
0
BLOCK
5
20
100
AcDbEntity
100
AcDbBlockBegin
2
*MODEL_SPACE
0
ENDBLK
5
21
100
AcDbEntity
100
AcDbBlockEnd
0
BLOCK
5
1C
100
AcDbEntity
100
AcDbBlockBegin
2
*PAPER_SPACE
0
ENDBLK
5
1D
100
AcDbEntity
100
AcDbBlockEnd
0
ENDSEC
0
SECTION
2
ENTITIES
0
LWPOLYLINE
5
100
100
AcDbEntity
8
0
100
AcDbPolyline
90
4
70
1
43
0.0
10
-46.271124165137749
20
88.716263999999995
10
-46.271124165137749
20
86.71626400000001
10
-61.728875834862301
20
86.71626400000001
10
-61.728875834862301
20
88.716263999999995
0
LWPOLYLINE
5
101
100
AcDbEntity
8
0
100
AcDbPolyline
90
4
70
1
43
0.0
10
-36.728875834862251
20
86.71626400000001
10
-36.728875834862251
20
88.716263999999995
10
-8.8922189257124007
20
88.716264392077036
42
-0.13537067469006836
10
-7.1404644080527646
20
86.71626400000001
0
LWPOLYLINE
5
102
100
AcDbEntity
8
0
100
AcDbPolyline
90
13
70
1
43
0.0
10
-10.892218925618963
20
86.71626400000001
10
-7.1404644080527646
20
86.71626400000001
42
-0.1130329903492903
10
-6.6422190725235151
20
84.540441154171077
10
-6.6422195896123979
20
82.71626400003683
10
-8.8922189255613464
20
82.716264000022647
10
-8.892218925578117
20
78.716263999969556
10
-6.6422189256065138
20
78.716263999989479
10
-6.6422189256114459
20
76.71626400002404
10
-8.892218925589777
20
76.716264000018327
10
-8.8922189256130899
20
72.716264000030421
10
-6.6422186216031909
20
72.716264000018896
10
-6.6422186216072099
20
70.716264000016992
10
-10.89221892561843
20
70.716263999972341
0
LWPOLYLINE
5
103
100
AcDbEntity
8
0
100
AcDbPolyline
90
13
70
1
43
0.0
10
1.1077810743815675
20
70.716264000048255
10
-3.1422192296294571
20
70.716264000046607
10
-3.142219229629422
20
72.716264000046635
10
-0.89221892561858474
20
72.716264000046237
10
-0.89221892561843208
20
76.716263999988854
10
-3.1422189256025179
20
76.716263999989508
10
-3.1422189256065125
20
78.716263999989508
10
-0.89221892570656069
20
78.716264000046436
10
-0.89221892571394346
20
82.716264000046564
10
-3.1422182783560744
20
82.716264000047218
10
-3.1422182783560655
20
84.540441154150159
42
-0.11303299318884759
10
-2.6439729299833208
20
86.716263999999995
10
1.1077810743818672
20
86.71626400000001
0
LINE
5
104
100
AcDbEntity
8
0
100
AcDbLine
10
124.93189699996253
20
86.71626400000001
30
0
11
-2.6439729299833203
21
86.71626400000001
31
0
0
LWPOLYLINE
5
105
100
AcDbEntity
8
0
100
AcDbPolyline
90
36
70
1
43
0.0
10
-71.271124165137806
20
88.716263999999995
10
-71.271124165137806
20
86.71626400000001
10
-145.89189700000463
20
86.71626400000001
42
0.19891236737965773
10
-155.08428515542192
20
82.908652155428371
10
-200.60412115505778
20
37.388816155933412
42
0.19891236737965787
10
-204.41173299956378
20
28.196428000674551
10
-204.41173299997502
20
-23.002574688816033
42
0.35411857260089941
10
-194.11458497730209
20
-35.718493499191638
10
-193.90115069970764
20
-35.763860355738203
10
-79.26747647478841
20
-60.129999999976
10
58.30747647538972
20
-60.129999999976079
10
172.94115070270107
20
-35.763860354419322
10
173.15458498169374
20
-35.71849349784798
42
0.35411857254678075
10
183.45173300827872
20
-23.00257468014081
10
183.45173300000002
20
28.196427999532133
42
0.19891236738002246
10
179.64412115541745
20
37.388816154957581
10
134.124285155477
20
82.908652155244496
42
0.19891236738337928
10
124.93189699996253
20
86.716263999933489
10
-2.643972929983315
20
86.71626400000001
42
-0.13537065548559618
10
-0.89221874553129521
20
88.716264118596712
10
124.93189699996253
20
88.716263999933474
42
-0.19891236738308571
10
135.53849871785837
20
84.322865717609332
10
181.0583347177988
20
38.80302971732241
42
-0.19891236737977111
10
185.45173300000002
20
28.196427999532148
10
185.45173300827872
20
-23.002574680140803
42
-0.35411857253015316
10
173.57040836408456
20
-37.674788699155044
10
173.35697408433981
20
-37.720155555886244
10
58.517684946033626
20
-62.129999999976079
10
-79.477684945314593
20
-62.129999999976
10
-194.31697408448758
20
-37.720155556537449
10
-194.53040836208206
20
-37.674788699990877
42
-0.35411857253124207
10
-206.41173299997502
20
-23.002574688816033
10
-206.41173299956378
20
28.196428000674551
42
-0.19891236737965801
10
-202.01833471743086
20
38.803029718306512
10
-156.49849871779503
20
84.322865717801463
42
-0.19891236737965742
10
-145.89189700000466
20
88.716263999999995
0
LWPOLYLINE
5
106
100
AcDbEntity
8
0
100
AcDbPolyline
90
22
70
1
43
0.0
10
-6.6422195896123979
20
82.71626400003683
10
-6.6422190725235151
20
84.540441154171063
42
0.25226363983104599
10
-8.8922189257124007
20
88.716264392077036
10
-0.89221892561809235
20
88.716264392055052
42
0.25226362275420733
10
-3.1422182783560708
20
84.540441154150159
10
-3.1422182783560744
20
82.716264000047218
10
-0.89221892571394346
20
82.716264000046564
10
-0.89221892570656047
20
78.716264000046436
10
-3.1422189256065125
20
78.716263999989508
10
-3.1422189256025179
20
76.716263999989508
10
-0.89221892561843208
20
76.716263999988854
10
-0.89221892561858529
20
72.716264000046237
10
-3.142219229629422
20
72.716264000046635
10
-3.1422192296294571
20
70.716264000046607
10
-6.6422186216072099
20
70.716264000016992
10
-6.6422186216031909
20
72.716264000018896
10
-8.8922189256130899
20
72.716264000030421
10
-8.892218925589777
20
76.716264000018327
10
-6.6422189256114459
20
76.71626400002404
10
-6.6422189256065138
20
78.716263999989479
10
-8.892218925578117
20
78.716263999969556
10
-8.8922189255613464
20
82.716264000022647
0
CIRCLE
5
107
100
AcDbEntity
8
0
100
AcDbCircle
10
12.495344394164476
20
59.826048942152212
30
0
40
3.5000000000000009
210
0
220
-0
230
1
0
LWPOLYLINE
5
108
100
AcDbEntity
8
0
100
AcDbPolyline
90
4
70
1
43
0.0
10
19.695344394170927
20
59.176048942148995
42
0.99999999999999989
10
21.495344394164476
20
59.176048942148974
10
21.495344394164473
20
60.476048942155465
42
0.99999999999999989
10
19.695344394170945
20
60.476048942155451
0
CIRCLE
5
109
100
AcDbEntity
8
0
100
AcDbCircle
10
12.495344394164476
20
59.826048942152212
30
0
40
11.499999999999996
210
0
220
0
230
1
0
CIRCLE
5
110
100
AcDbEntity
8
0
100
AcDbCircle
10
-22.065063094593715
20
59.826048942152241
30
0
40
3.5000000000000009
210
0
220
-0
230
1
0
LWPOLYLINE
5
111
100
AcDbEntity
8
0
100
AcDbPolyline
90
4
70
1
43
0.0
10
-13.065063094593711
20
60.476048942155458
42
0.99999999999999989
10
-14.865063094587271
20
60.476048942155458
10
-14.865063094587272
20
59.176048942149023
42
0.99999999999999989
10
-13.065063094593709
20
59.176048942149023
0
CIRCLE
5
112
100
AcDbEntity
8
0
100
AcDbCircle
10
-22.065063094593715
20
59.826048942152241
30
0
40
11.5
210
0
220
0
230
1
0
CIRCLE
5
113
100
AcDbEntity
8
0
100
AcDbCircle
10
30.760000000000012
20
57.25200000000001
30
0
40
4.7999999999999998
210
0
220
0
230
1
0
CIRCLE
5
114
100
AcDbEntity
8
0
100
AcDbCircle
10
30.760000000000012
20
57.25200000000001
30
0
40
1.8000000000000016
210
0
220
-0
230
1
0
CIRCLE
5
115
100
AcDbEntity
8
0
100
AcDbCircle
10
30.760000000000012
20
57.25200000000001
30
0
40
3.7999999999999989
210
0
220
0
230
1
0
CIRCLE
5
116
100
AcDbEntity
8
0
100
AcDbCircle
10
-54
20
62.000000000000021
30
0
40
4.7999999999999954
210
0
220
0
230
1
0
CIRCLE
5
117
100
AcDbEntity
8
0
100
AcDbCircle
10
-54
20
62.000000000000021
30
0
40
1.7999999999999972
210
0
220
-0
230
1
0
CIRCLE
5
118
100
AcDbEntity
8
0
100
AcDbCircle
10
-54
20
62.000000000000021
30
0
40
3.7999999999999989
210
0
220
0
230
1
0
CIRCLE
5
119
100
AcDbEntity
8
0
100
AcDbCircle
10
60.732000000000014
20
73.507999999999996
30
0
40
4.7999999999999954
210
0
220
0
230
1
0
CIRCLE
5
120
100
AcDbEntity
8
0
100
AcDbCircle
10
60.732000000000014
20
73.507999999999996
30
0
40
1.7999999999999972
210
0
220
-0
230
1
0
CIRCLE
5
121
100
AcDbEntity
8
0
100
AcDbCircle
10
60.732000000000014
20
73.507999999999996
30
0
40
3.7999999999999989
210
0
220
0
230
1
0
CIRCLE
5
122
100
AcDbEntity
8
0
100
AcDbCircle
10
20.500000000000014
20
28.500000000000021
30
0
40
4.7999999999999998
210
0
220
0
230
1
0
CIRCLE
5
123
100
AcDbEntity
8
0
100
AcDbCircle
10
20.500000000000014
20
28.500000000000021
30
0
40
1.8000000000000016
210
0
220
-0
230
1
0
CIRCLE
5
124
100
AcDbEntity
8
0
100
AcDbCircle
10
-19.000000000000004
20
27.280000000000001
30
0
40
4.7999999999999998
210
0
220
0
230
1
0
CIRCLE
5
125
100
AcDbEntity
8
0
100
AcDbCircle
10
-19.000000000000004
20
27.280000000000001
30
0
40
1.7999999999999992
210
0
220
-0
230
1
0
CIRCLE
5
126
100
AcDbEntity
8
0
100
AcDbCircle
10
-19.000000000000004
20
27.280000000000001
30
0
40
3.7999999999999989
210
0
220
0
230
1
0
CIRCLE
5
127
100
AcDbEntity
8
0
100
AcDbCircle
10
-24.485000000000007
20
-3.2000000000000006
30
0
40
4.7999999999999998
210
0
220
0
230
1
0
CIRCLE
5
128
100
AcDbEntity
8
0
100
AcDbCircle
10
-24.485000000000007
20
-3.2000000000000006
30
0
40
1.8000000000000016
210
0
220
-0
230
1
0
CIRCLE
5
129
100
AcDbEntity
8
0
100
AcDbCircle
10
-24.485000000000007
20
-3.2000000000000006
30
0
40
3.7999999999999989
210
0
220
0
230
1
0
CIRCLE
5
130
100
AcDbEntity
8
0
100
AcDbCircle
10
20.500000000000014
20
28.500000000000021
30
0
40
1.8000000000000016
210
0
220
-0
230
1
0
CIRCLE
5
131
100
AcDbEntity
8
0
100
AcDbCircle
10
20.500000000000014
20
28.500000000000021
30
0
40
3.7999999999999989
210
0
220
0
230
1
0
CIRCLE
5
132
100
AcDbEntity
8
0
100
AcDbCircle
10
107.39608800000002
20
80.910159000000007
30
0
40
4.8000000000000043
210
0
220
0
230
1
0
CIRCLE
5
133
100
AcDbEntity
8
0
100
AcDbCircle
10
107.39608800000002
20
80.910159000000007
30
0
40
1.7999999999999972
210
0
220
-0
230
1
0
CIRCLE
5
134
100
AcDbEntity
8
0
100
AcDbCircle
10
107.39608800000002
20
80.910159000000007
30
0
40
3.8000000000000074
210
0
220
0
230
1
0
ARC
5
135
100
AcDbEntity
8
0
100
AcDbCircle
10
146.64501400000003
20
63.242885000000008
30
0
40
4.8000000000000123
210
0
220
-0
230
1
100
AcDbArc
50
-282.58955355498136
51
12.589553554310884
0
CIRCLE
5
136
100
AcDbEntity
8
0
100
AcDbCircle
10
146.64501400000003
20
63.242885000000008
30
0
40
1.7999999999999972
210
0
220
-0
230
1
0
CIRCLE
5
137
100
AcDbEntity
8
0
100
AcDbCircle
10
146.64501400000003
20
63.242885000000008
30
0
40
3.8000000000000074
210
0
220
0
230
1
0
ARC
5
138
100
AcDbEntity
8
0
100
AcDbCircle
10
177.38082949384358
20
31.066553742268379
30
0
40
4.8000000000000105
210
0
220
-0
230
1
100
AcDbArc
50
48.505756326231641
51
356.49424367379345
0
CIRCLE
5
139
100
AcDbEntity
8
0
100
AcDbCircle
10
177.38082949384358
20
31.066553742268397
30
0
40
1.7999999999999972
210
0
220
-0
230
1
0
CIRCLE
5
140
100
AcDbEntity
8
0
100
AcDbCircle
10
177.38082949384358
20
31.066553742268397
30
0
40
3.7999999999999901
210
0
220
0
230
1
0
CIRCLE
5
141
100
AcDbEntity
8
0
100
AcDbCircle
10
-22.065063094593715
20
59.826048942152241
30
0
40
11.5
210
0
220
-0
230
1
0
LWPOLYLINE
5
142
100
AcDbEntity
8
0
100
AcDbPolyline
90
37
70
1
43
0.0
10
-10.89221892561843
20
70.716263999972341
10
1.1077810743815664
20
70.716264000048255
10
1.1077810743818488
20
85.716263999999995
10
124.93189699996253
20
85.716263999933489
42
-0.19891236738337897
10
133.41717837428033
20
82.201545374068104
10
147.69124745864349
20
67.927476289537964
42
3.4408517329252586
10
151.32960528955027
20
64.289118458588646
10
178.93701437422675
20
36.68170937377517
42
-0.054153517701937964
10
180.5610445321781
20
34.66186072637295
42
4.330483393244795
10
182.17184706198913
20
30.773039412600575
42
-0.054153517701543682
10
182.45173300000002
20
28.196427999532141
10
182.45173300000005
20
0.86400000637468999
10
147.82800000000003
20
0.86400000077614436
42
1.0727320244467851
10
138.27516582377021
20
0.19275690449601687
10
92.027834176229845
20
-6.3387569044960141
42
1.1261734370629852
10
82.812788600429769
20
-8.7788045187485615
10
21.252211399570253
20
-33.181195481251436
42
0.82710148055125821
10
11.99
20
-34.950000000000003
10
-18.940714273438402
20
-34.950000000000003
42
0.40852945861726098
10
-26.939201784782991
20
-42.794444444444451
10
-26.918403094259219
20
-41.724999731829911
42
-1.0000000074505806
10
-62.911596900525396
20
-41.024999999999906
10
-62.911596900525396
20
-31.938270760314875
10
-68.450952728173689
20
-17.828032919327985
42
1.5616560160324726
10
-74.740772155669376
20
-11.789404268484633
10
-108.21422784433065
20
-0.19859573151537413
42
1.2100807989945239
10
-117.54498037829509
20
1.1525389060324545
10
-170.70501962170493
20
-1.2805389060324588
42
0.97738905107379259
10
-180.29999999999995
20
-1.500000000000016
10
-203.41173299997502
20
-1.5000000000000036
10
-203.41173299956378
20
28.196428000674551
42
-0.054153517678902981
10
-203.13184706179067
20
30.773039412638017
42
4.3304833908957585
10
-201.52104453119512
20
34.661860728306635
42
-0.054153517678904542
10
-199.89701437387123
20
36.681709374746852
10
-154.3771783742354
20
82.201545374241817
42
-0.19891236737965801
10
-145.89189700000463
20
85.71626400000001
10
-10.892218925618931
20
85.716263999999995
0
CIRCLE
5
143
100
AcDbEntity
8
0
100
AcDbCircle
10
-177.00000000000028
20
43.000000000000028
30
0
40
4.8000000000000043
210
0
220
0
230
1
0
CIRCLE
5
144
100
AcDbEntity
8
0
100
AcDbCircle
10
-152.50000000000003
20
65.5
30
0
40
4.8000000000000043
210
0
220
0
230
1
0
CIRCLE
5
145
100
AcDbEntity
8
0
100
AcDbCircle
10
-54
20
62.000000000000021
30
0
40
4.7999999999999954
210
0
220
0
230
1
0
CIRCLE
5
146
100
AcDbEntity
8
0
100
AcDbCircle
10
-24.485000000000007
20
-3.2000000000000006
30
0
40
4.7999999999999998
210
0
220
0
230
1
0
CIRCLE
5
147
100
AcDbEntity
8
0
100
AcDbCircle
10
20.500000000000014
20
28.500000000000021
30
0
40
4.7999999999999998
210
0
220
0
230
1
0
CIRCLE
5
148
100
AcDbEntity
8
0
100
AcDbCircle
10
60.732000000000014
20
73.507999999999996
30
0
40
4.7999999999999954
210
0
220
0
230
1
0
CIRCLE
5
149
100
AcDbEntity
8
0
100
AcDbCircle
10
-96.19176600000003
20
47.185446000000006
30
0
40
4.0000000000000036
210
0
220
-0
230
1
0
CIRCLE
5
150
100
AcDbEntity
8
0
100
AcDbCircle
10
-130.21279000000004
20
63.151395000000008
30
0
40
4.0000000000000036
210
0
220
-0
230
1
0
CIRCLE
5
151
100
AcDbEntity
8
0
100
AcDbCircle
10
-110.12279000000001
20
39.871395000000007
30
0
40
4.0000000000000036
210
0
220
-0
230
1
0
CIRCLE
5
152
100
AcDbEntity
8
0
100
AcDbCircle
10
-58.453670000000024
20
-3.5046519999999997
30
0
40
4.0000000000000036
210
0
220
-0
230
1
0
CIRCLE
5
153
100
AcDbEntity
8
0
100
AcDbCircle
10
-38.305323000000008
20
-14.304476999999993
30
0
40
3.9999999999999991
210
0
220
-0
230
1
0
CIRCLE
5
154
100
AcDbEntity
8
0
100
AcDbCircle
10
-67.752002000000005
20
26.771947000000004
30
0
40
4.0000000000000036
210
0
220
-0
230
1
0
CIRCLE
5
155
100
AcDbEntity
8
0
100
AcDbCircle
10
-87.772252000000009
20
34.39974500000001
30
0
40
4.0000000000000036
210
0
220
-0
230
1
0
CIRCLE
5
156
100
AcDbEntity
8
0
100
AcDbCircle
10
-73.558234000000027
20
41.114553999999984
30
0
40
4.0000000000000036
210
0
220
-0
230
1
0
CIRCLE
5
157
100
AcDbEntity
8
0
100
AcDbCircle
10
-78.969906000000037
20
3.9567929999999962
30
0
40
3.9999999999999947
210
0
220
-0
230
1
0
CIRCLE
5
158
100
AcDbEntity
8
0
100
AcDbCircle
10
-118.58185200000001
20
52.60457199999999
30
0
40
4.0000000000000036
210
0
220
-0
230
1
0
CIRCLE
5
159
100
AcDbEntity
8
0
100
AcDbCircle
10
-99.895614000000123
20
10.271454000000002
30
0
40
4.0000000000000036
210
0
220
-0
230
1
0
CIRCLE
5
160
100
AcDbEntity
8
0
100
AcDbCircle
10
-51.830473000000019
20
31.206012000000008
30
0
40
4.0000000000000036
210
0
220
-0
230
1
0
CIRCLE
5
161
100
AcDbEntity
8
0
100
AcDbCircle
10
-47.672414000000018
20
15.763523000000001
30
0
40
4.0000000000000036
210
0
220
-0
230
1
0
CIRCLE
5
162
100
AcDbEntity
8
0
100
AcDbCircle
10
-30.833234000000008
20
18.289554000000006
30
0
40
3.9999999999999991
210
0
220
-0
230
1
0
CIRCLE
5
163
100
AcDbEntity
8
0
100
AcDbCircle
10
-35.239554000000012
20
33.79176600000001
30
0
40
3.9999999999999991
210
0
220
-0
230
1
0
CIRCLE
5
164
100
AcDbEntity
8
0
100
AcDbCircle
10
-57.822790000000019
20
45.431395000000009
30
0
40
4.0000000000000036
210
0
220
-0
230
1
0
CIRCLE
5
165
100
AcDbEntity
8
0
100
AcDbCircle
10
-81.909585000000021
20
53.804877000000005
30
0
40
4.0000000000000036
210
0
220
-0
230
1
0
CIRCLE
5
166
100
AcDbEntity
8
0
100
AcDbCircle
10
-104.74437500000001
20
59.885369999999995
30
0
40
4.0000000000000036
210
0
220
-0
230
1
0
CIRCLE
5
167
100
AcDbEntity
8
0
100
AcDbCircle
10
96.128605000000022
20
71.522790000000001
30
0
40
4.0000000000000036
210
0
220
-0
230
1
0
CIRCLE
5
168
100
AcDbEntity
8
0
100
AcDbCircle
10
108.37860500000002
20
62.372789999999981
30
0
40
4.0000000000000036
210
0
220
-0
230
1
0
CIRCLE
5
169
100
AcDbEntity
8
0
100
AcDbCircle
10
99.300664000000012
20
49.766264000000014
30
0
40
4.0000000000000036
210
0
220
-0
230
1
0
CIRCLE
5
170
100
AcDbEntity
8
0
100
AcDbCircle
10
78.568269000000015
20
46.002272000000005
30
0
40
4.0000000000000036
210
0
220
-0
230
1
0
CIRCLE
5
171
100
AcDbEntity
8
0
100
AcDbCircle
10
70.113419000000007
20
33.041264000000005
30
0
40
4.0000000000000036
210
0
220
-0
230
1
0
CIRCLE
5
172
100
AcDbEntity
8
0
100
AcDbCircle
10
66.040773000000016
20
55.013775000000024
30
0
40
4.0000000000000036
210
0
220
-0
230
1
0
CIRCLE
5
173
100
AcDbEntity
8
0
100
AcDbCircle
10
57.713419000000023
20
41.966263999999995
30
0
40
4.0000000000000036
210
0
220
-0
230
1
0
CIRCLE
5
174
100
AcDbEntity
8
0
100
AcDbCircle
10
86.987179000000026
20
58.962797000000002
30
0
40
4.0000000000000036
210
0
220
-0
230
1
0
CIRCLE
5
175
100
AcDbEntity
8
0
100
AcDbCircle
10
50.514554000000011
20
26.991766000000005
30
0
40
4.0000000000000036
210
0
220
-0
230
1
0
CIRCLE
5
176
100
AcDbEntity
8
0
100
AcDbCircle
10
74.221015000000023
20
67.781967999999978
30
0
40
4.0000000000000036
210
0
220
-0
230
1
0
CIRCLE
5
177
100
AcDbEntity
8
0
100
AcDbCircle
10
71.080446000000009
20
2.9032340000000021
30
0
40
4.0000000000000036
210
0
220
-0
230
1
0
CIRCLE
5
178
100
AcDbEntity
8
0
100
AcDbCircle
10
51.866765999999998
20
61.860445999999996
30
0
40
4.0000000000000036
210
0
220
-0
230
1
0
CIRCLE
5
179
100
AcDbEntity
8
0
100
AcDbCircle
10
80.631927000000019
20
21.383347999999998
30
0
40
4.0000000000000036
210
0
220
-0
230
1
0
CIRCLE
5
180
100
AcDbEntity
8
0
100
AcDbCircle
10
61.183129000000008
20
15.579811000000001
30
0
40
4.0000000000000036
210
0
220
-0
230
1
0
CIRCLE
5
181
100
AcDbEntity
8
0
100
AcDbCircle
10
43.816766000000001
20
48.960446000000005
30
0
40
4.0000000000000036
210
0
220
-0
230
1
0
CIRCLE
5
182
100
AcDbEntity
8
0
100
AcDbCircle
10
90.53955400000001
20
8.8167660000000083
30
0
40
4.0000000000000036
210
0
220
-0
230
1
0
CIRCLE
5
183
100
AcDbEntity
8
0
100
AcDbCircle
10
37.342758000000018
20
35.092492000000007
30
0
40
3.9999999999999991
210
0
220
-0
230
1
0
CIRCLE
5
184
100
AcDbEntity
8
0
100
AcDbCircle
10
54.143419000000023
20
-4.6237359999999983
30
0
40
4.0000000000000036
210
0
220
-0
230
1
0
CIRCLE
5
185
100
AcDbEntity
8
0
100
AcDbCircle
10
33.363419000000015
20
19.316264
30
0
40
3.9999999999999991
210
0
220
-0
230
1
0
CIRCLE
5
186
100
AcDbEntity
8
0
100
AcDbCircle
10
-184.25676500000006
20
13.561126999999972
30
0
40
3.9999999999999858
210
0
220
-0
230
1
0
CIRCLE
5
187
100
AcDbEntity
8
0
100
AcDbCircle
10
25.564051000000013
20
-0.71519399999999622
30
0
40
3.9999999999999991
210
0
220
-0
230
1
0
CIRCLE
5
188
100
AcDbEntity
8
0
100
AcDbCircle
10
44.193419000000006
20
8.0562640000000023
30
0
40
4.0000000000000036
210
0
220
-0
230
1
0
CIRCLE
5
189
100
AcDbEntity
8
0
100
AcDbCircle
10
-166.38445500000003
20
14.514554000000043
30
0
40
3.9999999999999858
210
0
220
-0
230
1
0
CIRCLE
5
190
100
AcDbEntity
8
0
100
AcDbCircle
10
-171.70101200000005
20
29.134455999999993
30
0
40
3.9999999999999858
210
0
220
-0
230
1
0
CIRCLE
5
191
100
AcDbEntity
8
0
100
AcDbCircle
10
34.518587000000011
20
-12.939003999999997
30
0
40
3.9999999999999991
210
0
220
-0
230
1
0
CIRCLE
5
192
100
AcDbEntity
8
0
100
AcDbCircle
10
-83.30279000000003
20
19.221394999999987
30
0
40
4.0000000000000036
210
0
220
-0
230
1
0
CIRCLE
5
193
100
AcDbEntity
8
0
100
AcDbCircle
10
-165.01676600000025
20
54.591394999999999
30
0
40
3.9999999999999858
210
0
220
-0
230
1
0
CIRCLE
5
194
100
AcDbEntity
8
0
100
AcDbCircle
10
-104.26111600000006
20
25.515155000000025
30
0
40
4.0000000000000036
210
0
220
-0
230
1
0
CIRCLE
5
195
100
AcDbEntity
8
0
100
AcDbCircle
10
-154.34676600000006
20
43.410446
30
0
40
4.0000000000000036
210
0
220
-0
230
1
0
CIRCLE
5
196
100
AcDbEntity
8
0
100
AcDbCircle
10
-42.040223000000012
20
1.349554000000003
30
0
40
4.0000000000000036
210
0
220
-0
230
1
0
CIRCLE
5
197
100
AcDbEntity
8
0
100
AcDbCircle
10
-127.3332340000001
20
28.864554000000023
30
0
40
4.0000000000000036
210
0
220
-0
230
1
0
CIRCLE
5
198
100
AcDbEntity
8
0
100
AcDbCircle
10
-148.61769100000009
20
29.032946000000006
30
0
40
4.0000000000000036
210
0
220
-0
230
1
0
CIRCLE
5
199
100
AcDbEntity
8
0
100
AcDbCircle
10
-63.374538000000022
20
11.535792000000002
30
0
40
4.0000000000000036
210
0
220
-0
230
1
0
CIRCLE
5
200
100
AcDbEntity
8
0
100
AcDbCircle
10
-131.56279000000001
20
44.201394999999991
30
0
40
4.0000000000000036
210
0
220
-0
230
1
0
CIRCLE
5
201
100
AcDbEntity
8
0
100
AcDbCircle
10
-143.15279000000001
20
14.510530000000013
30
0
40
4.0000000000000036
210
0
220
-0
230
1
0
CIRCLE
5
202
100
AcDbEntity
8
0
100
AcDbCircle
10
-143.21047300000006
20
54.746011999999993
30
0
40
4.0000000000000036
210
0
220
-0
230
1
0
CIRCLE
5
203
100
AcDbEntity
8
0
100
AcDbCircle
10
-121.84167700000006
20
14.342712000000004
30
0
40
4.0000000000000036
210
0
220
-0
230
1
0
CIRCLE
5
204
100
AcDbEntity
8
0
100
AcDbCircle
10
110.30341900000003
20
38.85626400000001
30
0
40
4.0000000000000036
210
0
220
-0
230
1
0
CIRCLE
5
205
100
AcDbEntity
8
0
100
AcDbCircle
10
139.36044600000002
20
26.233233999999989
30
0
40
4.0000000000000036
210
0
220
-0
230
1
0
CIRCLE
5
206
100
AcDbEntity
8
0
100
AcDbCircle
10
149.76044600000003
20
14.280473000000001
30
0
40
4.0000000000000036
210
0
220
-0
230
1
0
CIRCLE
5
207
100
AcDbEntity
8
0
100
AcDbCircle
10
170.45173300000002
20
12.933147
30
0
40
3.9999999999999858
210
0
220
-0
230
1
0
CIRCLE
5
208
100
AcDbEntity
8
0
100
AcDbCircle
10
160.63873100000006
20
25.671402000000004
30
0
40
4.0000000000000036
210
0
220
-0
230
1
0
CIRCLE
5
209
100
AcDbEntity
8
0
100
AcDbCircle
10
150.31483700000007
20
37.687524999999994
30
0
40
4.0000000000000036
210
0
220
-0
230
1
0
CIRCLE
5
210
100
AcDbEntity
8
0
100
AcDbCircle
10
129.56341900000004
20
39.116263999999987
30
0
40
4.0000000000000036
210
0
220
-0
230
1
0
CIRCLE
5
211
100
AcDbEntity
8
0
100
AcDbCircle
10
130.53999999999999
20
13.419999999999984
30
0
40
4.0000000000000036
210
0
220
-0
230
1
0
CIRCLE
5
212
100
AcDbEntity
8
0
100
AcDbCircle
10
100.30044600000002
20
23.583234000000004
30
0
40
4.0000000000000036
210
0
220
-0
230
1
0
CIRCLE
5
213
100
AcDbEntity
8
0
100
AcDbCircle
10
119.41404200000002
20
51.419891
30
0
40
4.0000000000000036
210
0
220
-0
230
1
0
CIRCLE
5
214
100
AcDbEntity
8
0
100
AcDbCircle
10
120.19044600000002
20
26.053234
30
0
40
4.0000000000000036
210
0
220
-0
230
1
0
CIRCLE
5
215
100
AcDbEntity
8
0
100
AcDbCircle
10
111.16341900000006
20
12.276264000000021
30
0
40
4.0000000000000036
210
0
220
-0
230
1
0
CIRCLE
5
216
100
AcDbEntity
8
0
100
AcDbCircle
10
140.55398800000006
20
50.580472999999998
30
0
40
4.0000000000000036
210
0
220
-0
230
1
0
CIRCLE
5
217
100
AcDbEntity
8
0
100
AcDbCircle
10
90.789554000000038
20
36.86676600000002
30
0
40
4.0000000000000036
210
0
220
-0
230
1
0
CIRCLE
5
218
100
AcDbEntity
8
0
100
AcDbCircle
10
130.35000000000005
20
62.800000000000011
30
0
40
4.0000000000000036
210
0
220
-0
230
1
0
CIRCLE
5
219
100
AcDbEntity
8
0
100
AcDbCircle
10
119.36341900000008
20
73.71626400000001
30
0
40
4.0000000000000036
210
0
220
-0
230
1
0
CIRCLE
5
220
100
AcDbEntity
8
0
100
AcDbCircle
10
-44.915000000000013
20
-41.375
30
0
40
14.599999999999998
210
0
220
-0
230
1
0
CIRCLE
5
221
100
AcDbEntity
8
0
100
AcDbCircle
10
107.39608800000002
20
80.910159000000007
30
0
40
4.8000000000000043
210
0
220
0
230
1
0
CIRCLE
5
222
100
AcDbEntity
8
0
100
AcDbCircle
10
30.760000000000012
20
57.25200000000001
30
0
40
4.7999999999999998
210
0
220
0
230
1
0
CIRCLE
5
223
100
AcDbEntity
8
0
100
AcDbCircle
10
-19.000000000000004
20
27.280000000000001
30
0
40
4.7999999999999998
210
0
220
0
230
1
0
CIRCLE
5
224
100
AcDbEntity
8
0
100
AcDbCircle
10
-117.00000000000009
20
70.000000000000014
30
0
40
4.8000000000000043
210
0
220
0
230
1
0
CIRCLE
5
225
100
AcDbEntity
8
0
100
AcDbCircle
10
12.495344394164476
20
59.826048942152212
30
0
40
11.499999999999996
210
0
220
-0
230
1
0
CIRCLE
5
226
100
AcDbEntity
8
0
100
AcDbCircle
10
143.02800000000002
20
0.8640000000000001
30
0
40
1.7999999999999972
210
0
220
-0
230
1
0
CIRCLE
5
227
100
AcDbEntity
8
0
100
AcDbCircle
10
87.275000000000034
20
-7.0100000000000007
30
0
40
1.7999999999999972
210
0
220
-0
230
1
0
CIRCLE
5
228
100
AcDbEntity
8
0
100
AcDbCircle
10
16.790000000000006
20
-34.950000000000003
30
0
40
1.7999999999999992
210
0
220
-0
230
1
0
CIRCLE
5
229
100
AcDbEntity
8
0
100
AcDbCircle
10
-70.205000000000013
20
-13.360000000000001
30
0
40
1.7999999999999972
210
0
220
-0
230
1
0
CIRCLE
5
230
100
AcDbEntity
8
0
100
AcDbCircle
10
-112.75000000000004
20
1.3720000000000003
30
0
40
1.7999999999999972
210
0
220
-0
230
1
0
CIRCLE
5
231
100
AcDbEntity
8
0
100
AcDbCircle
10
-175.49999999999997
20
-1.5000000000000036
30
0
40
1.7999999999999972
210
0
220
-0
230
1
0
CIRCLE
5
232
100
AcDbEntity
8
0
100
AcDbCircle
10
68.884226635374958
20
-51.236628485413405
30
0
40
4.5999999999999996
210
0
220
-0
230
1
0
CIRCLE
5
233
100
AcDbEntity
8
0
100
AcDbCircle
10
-89.844226635440222
20
-51.236628485562925
30
0
40
4.6000000000000085
210
0
220
-0
230
1
0
LWPOLYLINE
5
234
100
AcDbEntity
8
0
100
AcDbPolyline
90
4
70
1
43
0.0
10
161.34092872818229
20
-26.881583049117982
10
160.3627811275264
20
-27.089494739768611
42
0.9999999925494194
10
162.27556868195956
20
-36.088452666656352
10
163.25371628272663
20
-35.880540975754705
42
0.9999999925494194
0
LWPOLYLINE
5
235
100
AcDbEntity
8
0
100
AcDbPolyline
90
4
70
1
43
0.0
10
-181.32278112695298
20
-27.089494740089947
10
-182.30092872775504
20
-26.881583049084576
42
0.99999999999999989
10
-184.21371635033668
20
-35.880540962236651
10
-183.23556861557512
20
-36.088452681362703
42
0.99999999999999989
0
CIRCLE
5
236
100
AcDbEntity
8
0
100
AcDbCircle
10
-112.75000000000004
20
1.3720000000000003
30
0
40
1.7999999999999972
210
0
220
-0
230
1
0
CIRCLE
5
237
100
AcDbEntity
8
0
100
AcDbCircle
10
143.02800000000002
20
0.8640000000000001
30
0
40
1.7999999999999972
210
0
220
-0
230
1
0
CIRCLE
5
238
100
AcDbEntity
8
0
100
AcDbCircle
10
16.790000000000006
20
-34.950000000000003
30
0
40
1.7999999999999992
210
0
220
-0
230
1
0
CIRCLE
5
239
100
AcDbEntity
8
0
100
AcDbCircle
10
-69.000000000000028
20
-55
30
0
40
1.7999999999999972
210
0
220
-0
230
1
0
CIRCLE
5
240
100
AcDbEntity
8
0
100
AcDbCircle
10
176.28032771420158
20
-27.722477615586691
30
0
40
1.7999999999999972
210
0
220
-0
230
1
0
CIRCLE
5
241
100
AcDbEntity
8
0
100
AcDbCircle
10
50.000000000000007
20
-55
30
0
40
1.7999999999999972
210
0
220
-0
230
1
0
CIRCLE
5
242
100
AcDbEntity
8
0
100
AcDbCircle
10
-197.24032771079669
20
-27.722477621747487
30
0
40
1.7999999999999972
210
0
220
-0
230
1
0
CIRCLE
5
243
100
AcDbEntity
8
0
100
AcDbCircle
10
87.275000000000034
20
-7.0100000000000007
30
0
40
1.7999999999999972
210
0
220
-0
230
1
0
CIRCLE
5
244
100
AcDbEntity
8
0
100
AcDbCircle
10
-70.205000000000013
20
-13.360000000000001
30
0
40
1.7999999999999972
210
0
220
-0
230
1
0
LWPOLYLINE
5
245
100
AcDbEntity
8
0
100
AcDbPolyline
90
27
70
1
43
0.0
10
-171.70397386718307
20
-1.3262599672756981
42
0.97738905107378549
10
-179.29999999999995
20
-1.4999999999999951
10
-204.41173299997502
20
-1.5000000000000036
10
-204.41173299997502
20
-23.002574688816026
42
0.35411857260089952
10
-194.11458497730209
20
-35.718493499191652
10
-193.90115069970764
20
-35.763860355738203
10
-79.26747647478841
20
-60.129999999976
10
58.307476475389741
20
-60.129999999976079
10
172.94115070270107
20
-35.763860354419322
10
173.15458498169374
20
-35.71849349784798
42
0.35411857254678092
10
183.45173300827869
20
-23.002574680140803
10
183.45173300441959
20
0.86400000653638731
10
146.82800000000003
20
0.86400000061444793
42
1.0727320244467859
10
139.26533961048474
20
0.33259921605934495
10
91.037660389515324
20
-6.4785992160593464
42
1.1261734370629866
10
83.742415975340236
20
-8.4103035773426171
10
20.32258402465979
20
-33.549696422657391
42
0.82710148055125854
10
12.990000000000002
20
-34.950000000000003
10
-18.940714273438399
20
-34.950000000000003
42
0.40852945861726059
10
-26.939201784782991
20
-42.794444444444451
10
-26.918403094259219
20
-41.724999731829911
42
-1.0000000074505806
10
-62.911596900525396
20
-41.024999999999906
10
-62.911596900525396
20
-31.938270760314875
10
-68.81637924313749
20
-16.897192727801322
42
1.5616560160324711
10
-73.795819623238287
20
-12.116611712550334
10
-109.15918037676177
20
0.12861171255032985
42
1.2100807989945248
10
-116.54602613281696
20
1.1982599672756933
0
CIRCLE
5
246
100
AcDbEntity
8
0
100
AcDbCircle
10
-175.49999999999997
20
-1.5000000000000124
30
0
40
1.7999999999999972
210
0
220
-0
230
1
0
ARC
5
247
100
AcDbEntity
8
0
100
AcDbCircle
10
-182.27917490478777
20
-31.588973703600637
30
0
40
1.6000000001474328
210
0
220
0
230
1
100
AcDbArc
50
-101.99999914676721
51
77.999999645815748
0
ARC
5
248
100
AcDbEntity
8
0
100
AcDbCircle
10
-183.25732250552215
20
-31.381062012786302
30
0
40
1.6000000003202139
210
0
220
-0
230
1
100
AcDbArc
50
78.000000000779167
51
258.00000000078018
0
LINE
5
249
100
AcDbEntity
8
0
100
AcDbLine
10
-182.92466380016845
20
-29.816025851294473
30
0
11
-181.94651619943392
21
-30.023937542285477
31
0
0
LINE
5
250
100
AcDbEntity
8
0
100
AcDbLine
10
-182.61183358682075
20
-33.154009869872795
30
0
11
-183.5899812341967
21
-32.946098169321132
31
0
0
CIRCLE
5
251
100
AcDbEntity
8
0
100
AcDbCircle
10
68.884226635374958
20
-51.236628485413405
30
0
40
1.6000000000000014
210
0
220
-0
230
1
0
LINE
5
252
100
AcDbEntity
8
0
100
AcDbLine
10
162.62998121057123
20
-32.946098173489972
30
0
11
161.65183360985549
21
-33.154009864380704
31
0
0
ARC
5
253
100
AcDbEntity
8
0
100
AcDbCircle
10
161.31917490474297
20
-31.588973703212481
30
0
40
1.5999999999535386
210
0
220
0
230
1
100
AcDbArc
50
102.00000084695499
51
282.00000084695597
0
ARC
5
254
100
AcDbEntity
8
0
100
AcDbCircle
10
162.29732250545447
20
-31.381062012436345
30
0
40
1.599999999842324
210
-0
220
0
230
1
100
AcDbArc
50
-78.000000005816432
51
101.99999999418461
0
LINE
5
255
100
AcDbEntity
8
0
100
AcDbLine
10
160.98651617630961
20
-30.023937547001253
30
0
11
161.96466380033769
21
-29.816025851382722
31
0
0
CIRCLE
5
256
100
AcDbEntity
8
0
100
AcDbCircle
10
-117.00000000000009
20
70.000000000000014
30
0
40
1.7999999999999972
210
0
220
-0
230
1
0
CIRCLE
5
257
100
AcDbEntity
8
0
100
AcDbCircle
10
-117.00000000000009
20
70.000000000000014
30
0
40
3.8000000000000074
210
0
220
0
230
1
0
CIRCLE
5
258
100
AcDbEntity
8
0
100
AcDbCircle
10
-152.50000000000003
20
65.5
30
0
40
1.7999999999999972
210
0
220
-0
230
1
0
CIRCLE
5
259
100
AcDbEntity
8
0
100
AcDbCircle
10
-152.50000000000003
20
65.5
30
0
40
3.8000000000000074
210
0
220
0
230
1
0
CIRCLE
5
260
100
AcDbEntity
8
0
100
AcDbCircle
10
-177.00000000000028
20
43.000000000000028
30
0
40
1.7999999999999972
210
0
220
-0
230
1
0
CIRCLE
5
261
100
AcDbEntity
8
0
100
AcDbCircle
10
-177.00000000000028
20
43.000000000000028
30
0
40
3.7999999999999901
210
0
220
0
230
1
0
CIRCLE
5
262
100
AcDbEntity
8
0
100
AcDbCircle
10
-198.34082949371492
20
31.066553743446399
30
0
40
1.7999999999999972
210
0
220
-0
230
1
0
CIRCLE
5
263
100
AcDbEntity
8
0
100
AcDbCircle
10
-198.34082949371492
20
31.066553743446399
30
0
40
3.7999999999999901
210
0
220
0
230
1
0
ENDSEC
0
SECTION
2
OBJECTS
0
DICTIONARY
5
C
100
AcDbDictionary
3
ACAD_GROUP
350
D
3
ACAD_MLINESTYLE
350
17
0
DICTIONARY
5
D
100
AcDbDictionary
0
DICTIONARY
5
1A
330
C
100
AcDbDictionary
0
DICTIONARY
5
17
100
AcDbDictionary
0
ENDSEC
0
EOF
