M48
; DRILL file {KiCad 7.0.10-148-g62bb553460} date Wed Mar 27 08:20:08 2024
; FORMAT={-:-/ absolute / metric / decimal}
; #@! TF.CreationDate,2024-03-27T08:20:08+01:00
; #@! TF.GenerationSoftware,Kicad,Pcbnew,7.0.10-148-g62bb553460
; #@! TF.FileFunction,NonPlated,1,2,NPTH
FMAT,2
METRIC
; #@! TA.AperFunction,NonPlated,NPTH,ComponentDrill
T1C0.762
; #@! TA.AperFunction,NonPlated,NPTH,ComponentDrill
T2C1.700
; #@! TA.AperFunction,NonPlated,NPTH,ComponentDrill
T3C2.200
; #@! TA.AperFunction,NonPlated,NPTH,ComponentDrill
T4C3.200
%
G90
G05
T1
X345.265Y-241.725
T2
X125.288Y-189.834
X133.809Y-184.3
X135.101Y-177.095
X143.622Y-171.562
X145.425Y-165.079
X145.979Y-188.486
X153.946Y-159.546
X154.5Y-182.953
X155.186Y-152.186
X156.379Y-176.534
X163.706Y-146.653
X164.9Y-171.0
X165.2Y-189.347
X165.39Y-139.967
X166.176Y-163.65
X173.72Y-183.813
X173.91Y-134.433
X174.697Y-158.117
X175.549Y-176.714
X176.326Y-151.347
X176.376Y-129.05
X184.07Y-171.18
X184.576Y-190.49
X184.846Y-145.813
X184.897Y-123.517
X185.436Y-163.91
X187.361Y-140.394
X193.097Y-184.957
X193.957Y-158.377
X195.439Y-179.184
X195.882Y-134.86
X196.439Y-153.0
X199.611Y-131.244
X203.96Y-173.65
X204.95Y-165.9
X204.96Y-147.467
X205.2Y-193.95
X208.132Y-125.71
X208.752Y-143.804
X213.471Y-160.366
X213.721Y-188.416
X215.108Y-181.383
X217.171Y-156.764
X217.273Y-138.27
X223.012Y-127.958
X223.629Y-175.85
X224.659Y-199.864
X225.626Y-169.725
X225.692Y-151.231
X228.546Y-136.478
X231.192Y-140.726
X233.18Y-194.33
X234.147Y-164.192
X234.556Y-187.187
X236.726Y-149.247
X238.026Y-160.8
X241.596Y-207.39
X243.077Y-181.653
X245.225Y-175.775
X245.366Y-133.879
X246.547Y-155.267
X250.117Y-201.857
X250.9Y-142.4
X251.546Y-194.71
X253.416Y-146.779
X253.746Y-170.241
X258.95Y-155.3
X259.89Y-160.647
X260.067Y-189.177
X262.376Y-183.45
X262.495Y-217.049
X265.424Y-169.168
X268.467Y-208.829
X270.897Y-177.917
X271.45Y-204.825
X277.422Y-196.605
X328.066Y-185.971
X330.979Y-163.441
X333.6Y-177.45
X335.539Y-218.565
X339.273Y-202.911
X339.5Y-168.975
X341.072Y-210.044
X344.807Y-194.39
X344.906Y-188.497
X349.064Y-173.054
X350.439Y-179.976
X354.597Y-164.534
X355.056Y-158.829
X355.687Y-207.765
X360.59Y-150.308
X360.608Y-192.725
X361.22Y-199.244
X364.985Y-177.489
X366.141Y-184.204
X370.519Y-168.968
X370.791Y-163.146
X376.203Y-200.304
X376.325Y-154.625
X379.143Y-150.456
X380.536Y-185.039
X381.737Y-191.783
X384.676Y-141.935
X385.006Y-169.861
X386.07Y-176.518
X390.539Y-161.34
X393.425Y-157.075
X397.129Y-193.989
X398.959Y-148.554
X401.494Y-178.745
X401.978Y-144.375
X402.662Y-185.468
X407.028Y-170.224
X407.356Y-164.389
X407.511Y-135.854
X412.89Y-155.868
X415.815Y-151.656
X419.075Y-189.918
X421.349Y-143.135
X424.566Y-175.396
X424.608Y-181.397
X427.446Y-141.109
X428.796Y-160.059
X430.1Y-166.875
X432.98Y-132.588
X434.33Y-151.538
X440.386Y-189.75
X440.444Y-149.514
X445.851Y-175.228
X445.92Y-181.229
X445.977Y-140.994
X451.384Y-166.707
X451.58Y-160.85
X457.114Y-152.329
X462.25Y-149.669
X463.618Y-189.746
X467.784Y-141.148
X468.934Y-175.126
X469.151Y-181.225
X474.468Y-166.605
X481.49Y-190.699
X487.024Y-182.178
T3
X337.5Y-124.78
X337.5Y-136.78
X345.5Y-124.78
X345.5Y-136.78
X362.5Y-124.78
X362.5Y-136.78
X370.5Y-124.78
X370.5Y-136.78
T4
X122.619Y-168.933
X123.72Y-227.722
X153.355Y-136.757
X156.972Y-199.136
X192.604Y-119.09
X212.725Y-207.01
X239.268Y-126.492
X250.0Y-255.0
X269.24Y-142.748
X279.5Y-171.5
X283.21Y-234.95
X319.0Y-172.72
X324.485Y-203.2
X354.0Y-138.0
X369.0Y-255.0
X370.205Y-213.36
X412.75Y-198.628
X417.0Y-130.0
X452.5Y-134.5
X475.5Y-201.5
X477.0Y-157.0
X497.24Y-227.722
X498.341Y-168.933
M30
