%TF.GenerationSoftware,KiCad,Pcbnew,7.0.10-148-g62bb553460*%
%TF.CreationDate,2024-03-27T08:18:12+01:00*%
%TF.ProjectId,bandoneon,62616e64-6f6e-4656-9f6e-2e6b69636164,rev?*%
%TF.SameCoordinates,Original*%
%TF.FileFunction,Paste,Top*%
%TF.FilePolarity,Positive*%
%FSLAX46Y46*%
G04 Gerber Fmt 4.6, Leading zero omitted, Abs format (unit mm)*
G04 Created by KiCad (PCBNEW 7.0.10-148-g62bb553460) date 2024-03-27 08:18:12*
%MOMM*%
%LPD*%
G01*
G04 APERTURE LIST*
G04 Aperture macros list*
%AMRoundRect*
0 Rectangle with rounded corners*
0 $1 Rounding radius*
0 $2 $3 $4 $5 $6 $7 $8 $9 X,Y pos of 4 corners*
0 Add a 4 corners polygon primitive as box body*
4,1,4,$2,$3,$4,$5,$6,$7,$8,$9,$2,$3,0*
0 Add four circle primitives for the rounded corners*
1,1,$1+$1,$2,$3*
1,1,$1+$1,$4,$5*
1,1,$1+$1,$6,$7*
1,1,$1+$1,$8,$9*
0 Add four rect primitives between the rounded corners*
20,1,$1+$1,$2,$3,$4,$5,0*
20,1,$1+$1,$4,$5,$6,$7,0*
20,1,$1+$1,$6,$7,$8,$9,0*
20,1,$1+$1,$8,$9,$2,$3,0*%
G04 Aperture macros list end*
%ADD10RoundRect,0.150000X-0.150000X0.825000X-0.150000X-0.825000X0.150000X-0.825000X0.150000X0.825000X0*%
%ADD11RoundRect,0.150000X-0.348123X-0.404928X0.511515X0.153327X0.348123X0.404928X-0.511515X-0.153327X0*%
%ADD12RoundRect,0.150000X-0.153327X-0.511515X0.404928X0.348123X0.153327X0.511515X-0.404928X-0.348123X0*%
%ADD13RoundRect,0.150000X-0.404928X0.348123X0.153327X-0.511515X0.404928X-0.348123X-0.153327X0.511515X0*%
%ADD14RoundRect,0.140000X-0.170000X0.140000X-0.170000X-0.140000X0.170000X-0.140000X0.170000X0.140000X0*%
%ADD15RoundRect,0.140000X0.170000X-0.140000X0.170000X0.140000X-0.170000X0.140000X-0.170000X-0.140000X0*%
%ADD16RoundRect,0.150000X-0.179887X-0.502789X0.422592X0.326453X0.179887X0.502789X-0.422592X-0.326453X0*%
%ADD17RoundRect,0.150000X-0.511515X0.153327X0.348123X-0.404928X0.511515X-0.153327X-0.348123X0.404928X0*%
%ADD18RoundRect,0.150000X0.150000X-0.512500X0.150000X0.512500X-0.150000X0.512500X-0.150000X-0.512500X0*%
%ADD19RoundRect,0.150000X-0.512500X-0.150000X0.512500X-0.150000X0.512500X0.150000X-0.512500X0.150000X0*%
%ADD20RoundRect,0.079500X-0.100500X0.079500X-0.100500X-0.079500X0.100500X-0.079500X0.100500X0.079500X0*%
G04 APERTURE END LIST*
D10*
%TO.C,U9*%
X355346000Y-213360000D03*
X354076000Y-213360000D03*
X352806000Y-213360000D03*
X351536000Y-213360000D03*
X350266000Y-213360000D03*
X348996000Y-213360000D03*
X347726000Y-213360000D03*
X346456000Y-213360000D03*
X346456000Y-218310000D03*
X347726000Y-218310000D03*
X348996000Y-218310000D03*
X350266000Y-218310000D03*
X351536000Y-218310000D03*
X352806000Y-218310000D03*
X354076000Y-218310000D03*
X355346000Y-218310000D03*
%TD*%
D11*
%TO.C,H37*%
X148213805Y-162135290D03*
X149248619Y-163728764D03*
X150639188Y-161692973D03*
%TD*%
%TO.C,H38*%
X137889905Y-174151390D03*
X138924719Y-175744864D03*
X140315288Y-173709073D03*
%TD*%
D12*
%TO.C,H43*%
X463600536Y-145845181D03*
X465194010Y-146879995D03*
X465636327Y-144454612D03*
%TD*%
D13*
%TO.C,H11*%
X256360410Y-149568205D03*
X254766936Y-150603019D03*
X256802727Y-151993588D03*
%TD*%
D11*
%TO.C,H31*%
X211541405Y-140859990D03*
X212576219Y-142453464D03*
X213966788Y-140417673D03*
%TD*%
%TO.C,H14*%
X217896705Y-178439490D03*
X218931519Y-180032964D03*
X220322088Y-177997173D03*
%TD*%
D12*
%TO.C,H69*%
X408706536Y-160565181D03*
X410300010Y-161599995D03*
X410742327Y-159174612D03*
%TD*%
D14*
%TO.C,C1*%
X398272000Y-214658000D03*
X398272000Y-215618000D03*
%TD*%
D11*
%TO.C,H5*%
X254335205Y-191766490D03*
X255370019Y-193359964D03*
X256760588Y-191324173D03*
%TD*%
D12*
%TO.C,H41*%
X470284736Y-171302081D03*
X471878210Y-172336895D03*
X472320527Y-169911512D03*
%TD*%
D15*
%TO.C,C2*%
X358648000Y-217142000D03*
X358648000Y-216182000D03*
%TD*%
D12*
%TO.C,H61*%
X340623936Y-199086981D03*
X342217410Y-200121795D03*
X342659727Y-197696412D03*
%TD*%
%TO.C,H68*%
X417165636Y-147831981D03*
X418759110Y-148866795D03*
X419201427Y-146441412D03*
%TD*%
D14*
%TO.C,C5*%
X245110000Y-219484000D03*
X245110000Y-220444000D03*
%TD*%
D11*
%TO.C,H29*%
X187365205Y-187546490D03*
X188400019Y-189139964D03*
X189790588Y-187104173D03*
%TD*%
%TO.C,H16*%
X199227905Y-150056490D03*
X200262719Y-151649964D03*
X201653288Y-149614173D03*
%TD*%
D14*
%TO.C,C8*%
X219710000Y-211765000D03*
X219710000Y-212725000D03*
%TD*%
D11*
%TO.C,H18*%
X178338205Y-173769590D03*
X179373019Y-175363064D03*
X180763588Y-173327273D03*
%TD*%
D12*
%TO.C,H58*%
X356406536Y-155005181D03*
X358000010Y-156039995D03*
X358442327Y-153614612D03*
%TD*%
D11*
%TO.C,H9*%
X237345505Y-184242990D03*
X238380319Y-185836464D03*
X239770888Y-183800673D03*
%TD*%
%TO.C,H13*%
X228415205Y-166781490D03*
X229450019Y-168374964D03*
X230840588Y-166339173D03*
%TD*%
D12*
%TO.C,H49*%
X394775536Y-153251181D03*
X396369010Y-154285995D03*
X396811327Y-151860612D03*
%TD*%
%TO.C,H48*%
X403328136Y-140551181D03*
X404921610Y-141585995D03*
X405363927Y-139160612D03*
%TD*%
D16*
%TO.C,H3*%
X264044228Y-213300861D03*
X265581360Y-214417653D03*
X266150006Y-212018743D03*
%TD*%
D12*
%TO.C,H54*%
X372141936Y-159321981D03*
X373735410Y-160356795D03*
X374177727Y-157931412D03*
%TD*%
%TO.C,H63*%
X336889036Y-214741081D03*
X338482510Y-215775895D03*
X338924827Y-213350512D03*
%TD*%
D14*
%TO.C,C7*%
X133985000Y-201958000D03*
X133985000Y-202918000D03*
%TD*%
D13*
%TO.C,H25*%
X234136410Y-143514805D03*
X232542936Y-144549619D03*
X234578727Y-145940188D03*
%TD*%
D12*
%TO.C,H71*%
X398479336Y-190165081D03*
X400072810Y-191199895D03*
X400515127Y-188774512D03*
%TD*%
%TO.C,H50*%
X386356036Y-166036881D03*
X387949510Y-167071695D03*
X388391827Y-164646312D03*
%TD*%
%TO.C,H42*%
X464968236Y-185921981D03*
X466561710Y-186956795D03*
X467004027Y-184531412D03*
%TD*%
D10*
%TO.C,U6*%
X144770000Y-199500000D03*
X143500000Y-199500000D03*
X142230000Y-199500000D03*
X140960000Y-199500000D03*
X139690000Y-199500000D03*
X138420000Y-199500000D03*
X137150000Y-199500000D03*
X135880000Y-199500000D03*
X135880000Y-204450000D03*
X137150000Y-204450000D03*
X138420000Y-204450000D03*
X139690000Y-204450000D03*
X140960000Y-204450000D03*
X142230000Y-204450000D03*
X143500000Y-204450000D03*
X144770000Y-204450000D03*
%TD*%
D11*
%TO.C,H33*%
X148768205Y-185542290D03*
X149803019Y-187135764D03*
X151193588Y-185099973D03*
%TD*%
D14*
%TO.C,C6*%
X446278000Y-213896000D03*
X446278000Y-214856000D03*
%TD*%
D17*
%TO.C,H1*%
X334803019Y-164791936D03*
X333768205Y-166385410D03*
X336193588Y-166827727D03*
%TD*%
D10*
%TO.C,U8*%
X388620000Y-212090000D03*
X387350000Y-212090000D03*
X386080000Y-212090000D03*
X384810000Y-212090000D03*
X383540000Y-212090000D03*
X382270000Y-212090000D03*
X381000000Y-212090000D03*
X379730000Y-212090000D03*
X379730000Y-217040000D03*
X381000000Y-217040000D03*
X382270000Y-217040000D03*
X383540000Y-217040000D03*
X384810000Y-217040000D03*
X386080000Y-217040000D03*
X387350000Y-217040000D03*
X388620000Y-217040000D03*
%TD*%
D11*
%TO.C,H6*%
X244385205Y-204446490D03*
X245420019Y-206039964D03*
X246810588Y-204004173D03*
%TD*%
%TO.C,H20*%
X202400005Y-128299990D03*
X203434819Y-129893464D03*
X204825388Y-127857673D03*
%TD*%
D18*
%TO.C,U13*%
X281154000Y-127121500D03*
X282104000Y-127121500D03*
X283054000Y-127121500D03*
X283054000Y-124846500D03*
X282104000Y-124846500D03*
X281154000Y-124846500D03*
%TD*%
D11*
%TO.C,H32*%
X159168205Y-173589590D03*
X160203019Y-175183064D03*
X161593588Y-173147273D03*
%TD*%
D19*
%TO.C,U11*%
X348966500Y-146326000D03*
X348966500Y-147276000D03*
X348966500Y-148226000D03*
X351241500Y-148226000D03*
X351241500Y-147276000D03*
X351241500Y-146326000D03*
%TD*%
D11*
%TO.C,H21*%
X190150005Y-137449990D03*
X191184819Y-139043464D03*
X192575388Y-137007673D03*
%TD*%
D10*
%TO.C,U3*%
X231394000Y-207710000D03*
X230124000Y-207710000D03*
X228854000Y-207710000D03*
X227584000Y-207710000D03*
X226314000Y-207710000D03*
X225044000Y-207710000D03*
X223774000Y-207710000D03*
X222504000Y-207710000D03*
X222504000Y-212660000D03*
X223774000Y-212660000D03*
X225044000Y-212660000D03*
X226314000Y-212660000D03*
X227584000Y-212660000D03*
X228854000Y-212660000D03*
X230124000Y-212660000D03*
X231394000Y-212660000D03*
%TD*%
D11*
%TO.C,H12*%
X240815205Y-157856490D03*
X241850019Y-159449964D03*
X243240588Y-157414173D03*
%TD*%
%TO.C,H26*%
X219960305Y-153820490D03*
X220995119Y-155413964D03*
X222385688Y-153378173D03*
%TD*%
D12*
%TO.C,H52*%
X377553636Y-196479781D03*
X379147110Y-197514595D03*
X379589427Y-195089212D03*
%TD*%
D14*
%TO.C,C3*%
X162814000Y-204145000D03*
X162814000Y-205105000D03*
%TD*%
D12*
%TO.C,H44*%
X452930536Y-157026181D03*
X454524010Y-158060995D03*
X454966327Y-155635612D03*
%TD*%
D11*
%TO.C,H19*%
X167988605Y-186402790D03*
X169023419Y-187996264D03*
X170413988Y-185960473D03*
%TD*%
D12*
%TO.C,H53*%
X380493336Y-146631681D03*
X382086810Y-147666495D03*
X382529127Y-145241112D03*
%TD*%
%TO.C,H59*%
X350414236Y-169230581D03*
X352007710Y-170265395D03*
X352450027Y-167840012D03*
%TD*%
D11*
%TO.C,H22*%
X179114605Y-148402890D03*
X180149419Y-149996364D03*
X181539988Y-147960573D03*
%TD*%
%TO.C,H15*%
X207989005Y-191005990D03*
X209023819Y-192599464D03*
X210414388Y-190563673D03*
%TD*%
%TO.C,H8*%
X248014005Y-172830990D03*
X249048819Y-174424464D03*
X250439388Y-172388673D03*
%TD*%
D12*
%TO.C,H70*%
X402844836Y-174921381D03*
X404438310Y-175956195D03*
X404880627Y-173530812D03*
%TD*%
D14*
%TO.C,C9*%
X377698000Y-216182000D03*
X377698000Y-217142000D03*
%TD*%
D12*
%TO.C,H47*%
X441794236Y-145690581D03*
X443387710Y-146725395D03*
X443830027Y-144300012D03*
%TD*%
%TO.C,H45*%
X447201436Y-171403681D03*
X448794910Y-172438495D03*
X449237227Y-170013112D03*
%TD*%
D16*
%TO.C,H2*%
X272998728Y-201077061D03*
X274535860Y-202193853D03*
X275104506Y-199794943D03*
%TD*%
D11*
%TO.C,H34*%
X179165205Y-126106490D03*
X180200019Y-127699964D03*
X181590588Y-125664173D03*
%TD*%
D12*
%TO.C,H51*%
X381886536Y-181215181D03*
X383480010Y-182249995D03*
X383922327Y-179824612D03*
%TD*%
D11*
%TO.C,H36*%
X157974605Y-149242290D03*
X159009419Y-150835764D03*
X160399988Y-148799973D03*
%TD*%
D12*
%TO.C,H57*%
X357037436Y-203941281D03*
X358630910Y-204976095D03*
X359073227Y-202550712D03*
%TD*%
%TO.C,H67*%
X428796536Y-137285181D03*
X430390010Y-138319995D03*
X430832327Y-135894612D03*
%TD*%
%TO.C,H64*%
X430146536Y-156235181D03*
X431740010Y-157269995D03*
X432182327Y-154844612D03*
%TD*%
D11*
%TO.C,H35*%
X168178605Y-137022790D03*
X169213419Y-138616264D03*
X170603988Y-136580473D03*
%TD*%
D10*
%TO.C,U7*%
X458445000Y-210000000D03*
X457175000Y-210000000D03*
X455905000Y-210000000D03*
X454635000Y-210000000D03*
X453365000Y-210000000D03*
X452095000Y-210000000D03*
X450825000Y-210000000D03*
X449555000Y-210000000D03*
X449555000Y-214950000D03*
X450825000Y-214950000D03*
X452095000Y-214950000D03*
X453365000Y-214950000D03*
X454635000Y-214950000D03*
X455905000Y-214950000D03*
X457175000Y-214950000D03*
X458445000Y-214950000D03*
%TD*%
D11*
%TO.C,H28*%
X198228205Y-176239590D03*
X199263019Y-177833064D03*
X200653588Y-175797273D03*
%TD*%
D12*
%TO.C,H40*%
X482840536Y-186875481D03*
X484434010Y-187910295D03*
X484876327Y-185484912D03*
%TD*%
%TO.C,H66*%
X420425436Y-186093881D03*
X422018910Y-187128695D03*
X422461227Y-184703312D03*
%TD*%
D11*
%TO.C,H39*%
X128076905Y-186889690D03*
X129111719Y-188483164D03*
X130502288Y-186447373D03*
%TD*%
D12*
%TO.C,H62*%
X329416936Y-182146981D03*
X331010410Y-183181795D03*
X331452727Y-180756412D03*
%TD*%
%TO.C,H56*%
X361958236Y-188900781D03*
X363551710Y-189935595D03*
X363994027Y-187510212D03*
%TD*%
D18*
%TO.C,U12*%
X295214000Y-201289500D03*
X296164000Y-201289500D03*
X297114000Y-201289500D03*
X297114000Y-199014500D03*
X296164000Y-199014500D03*
X295214000Y-199014500D03*
%TD*%
D10*
%TO.C,U2*%
X256032000Y-217235000D03*
X254762000Y-217235000D03*
X253492000Y-217235000D03*
X252222000Y-217235000D03*
X250952000Y-217235000D03*
X249682000Y-217235000D03*
X248412000Y-217235000D03*
X247142000Y-217235000D03*
X247142000Y-222185000D03*
X248412000Y-222185000D03*
X249682000Y-222185000D03*
X250952000Y-222185000D03*
X252222000Y-222185000D03*
X253492000Y-222185000D03*
X254762000Y-222185000D03*
X256032000Y-222185000D03*
%TD*%
D14*
%TO.C,C4*%
X179070000Y-203990000D03*
X179070000Y-204950000D03*
%TD*%
D12*
%TO.C,H60*%
X346256136Y-184673081D03*
X347849610Y-185707895D03*
X348291927Y-183282512D03*
%TD*%
D11*
%TO.C,H10*%
X227448205Y-196919590D03*
X228483019Y-198513064D03*
X229873588Y-196477273D03*
%TD*%
%TO.C,H17*%
X188225205Y-160966490D03*
X189260019Y-162559964D03*
X190650588Y-160524173D03*
%TD*%
D13*
%TO.C,H7*%
X262834410Y-163436105D03*
X261240936Y-164470919D03*
X263276727Y-165861488D03*
%TD*%
%TO.C,H24*%
X248310410Y-136668205D03*
X246716936Y-137703019D03*
X248752727Y-139093588D03*
%TD*%
D20*
%TO.C,R1*%
X364004000Y-145431000D03*
X364004000Y-146121000D03*
%TD*%
D10*
%TO.C,U4*%
X173736000Y-200152000D03*
X172466000Y-200152000D03*
X171196000Y-200152000D03*
X169926000Y-200152000D03*
X168656000Y-200152000D03*
X167386000Y-200152000D03*
X166116000Y-200152000D03*
X164846000Y-200152000D03*
X164846000Y-205102000D03*
X166116000Y-205102000D03*
X167386000Y-205102000D03*
X168656000Y-205102000D03*
X169926000Y-205102000D03*
X171196000Y-205102000D03*
X172466000Y-205102000D03*
X173736000Y-205102000D03*
%TD*%
D11*
%TO.C,H4*%
X265165205Y-180506490D03*
X266200019Y-182099964D03*
X267590588Y-180064173D03*
%TD*%
D12*
%TO.C,H46*%
X441736536Y-185926081D03*
X443330010Y-186960895D03*
X443772327Y-184535512D03*
%TD*%
D13*
%TO.C,H30*%
X225956210Y-130746605D03*
X224362736Y-131781419D03*
X226398527Y-133171988D03*
%TD*%
D11*
%TO.C,H27*%
X207739005Y-162955990D03*
X208773819Y-164549464D03*
X210164388Y-162513673D03*
%TD*%
D10*
%TO.C,U10*%
X410083000Y-212155000D03*
X408813000Y-212155000D03*
X407543000Y-212155000D03*
X406273000Y-212155000D03*
X405003000Y-212155000D03*
X403733000Y-212155000D03*
X402463000Y-212155000D03*
X401193000Y-212155000D03*
X401193000Y-217105000D03*
X402463000Y-217105000D03*
X403733000Y-217105000D03*
X405003000Y-217105000D03*
X406273000Y-217105000D03*
X407543000Y-217105000D03*
X408813000Y-217105000D03*
X410083000Y-217105000D03*
%TD*%
%TO.C,U5*%
X190246000Y-200090000D03*
X188976000Y-200090000D03*
X187706000Y-200090000D03*
X186436000Y-200090000D03*
X185166000Y-200090000D03*
X183896000Y-200090000D03*
X182626000Y-200090000D03*
X181356000Y-200090000D03*
X181356000Y-205040000D03*
X182626000Y-205040000D03*
X183896000Y-205040000D03*
X185166000Y-205040000D03*
X186436000Y-205040000D03*
X187706000Y-205040000D03*
X188976000Y-205040000D03*
X190246000Y-205040000D03*
%TD*%
D11*
%TO.C,H23*%
X168965205Y-160706490D03*
X170000019Y-162299964D03*
X171390588Y-160264173D03*
%TD*%
D12*
%TO.C,H55*%
X366335736Y-173664681D03*
X367929210Y-174699495D03*
X368371527Y-172274112D03*
%TD*%
%TO.C,H65*%
X425916936Y-171571981D03*
X427510410Y-172606795D03*
X427952727Y-170181412D03*
%TD*%
M02*
